<svg width="120" height="160" viewBox="0 0 120 160" fill="none" xmlns="http://www.w3.org/2000/svg">
<rect width="120" height="160" fill="rgba(255,255,255,0.5)" stroke="white" stroke-width="1.5"/>
<rect x="3" y="3" width="114" height="154" rx="3" fill="#1C2A3F"/>
<path fill-rule="evenodd" clip-rule="evenodd" d="M53.2071 7.70711L52.5 8.41421L51.7929 7.70711L52.5 7L53.2071 7.70711ZM12.5 9C12.7761 9 13 8.77614 13 8.5C13 8.22386 12.7761 8 12.5 8C12.2239 8 12 8.22386 12 8.5C12 8.77614 12.2239 9 12.5 9ZM8.5 13C8.77614 13 9 12.7761 9 12.5C9 12.2239 8.77614 12 8.5 12C8.22386 12 8 12.2239 8 12.5C8 12.7761 8.22386 13 8.5 13ZM5 11.5C5 11.7761 4.77614 12 4.5 12C4.22386 12 4 11.7761 4 11.5C4 11.2239 4.22386 11 4.5 11C4.77614 11 5 11.2239 5 11.5ZM4.5 13C4.77614 13 5 13.2239 5 13.5C5 13.7761 4.77614 14 4.5 14C4.22386 14 4 13.7761 4 13.5C4 13.2239 4.22386 13 4.5 13ZM10 8L10.3708 8.85873L11.1756 8.38197L10.9708 9.29466L11.9021 9.38197L11.2 10L11.9021 10.618L10.9708 10.7053L11.1756 11.618L10.3708 11.1413L10 12L9.62918 11.1413L8.82443 11.618L9.02918 10.7053L8.09789 10.618L8.8 10L8.09789 9.38197L9.02918 9.29466L8.82443 8.38197L9.62918 8.85873L10 8ZM107.5 151C107.224 151 107 151.224 107 151.5C107 151.776 107.224 152 107.5 152C107.776 152 108 151.776 108 151.5C108 151.224 107.776 151 107.5 151ZM111.5 147C111.224 147 111 147.224 111 147.5C111 147.776 111.224 148 111.5 148C111.776 148 112 147.776 112 147.5C112 147.224 111.776 147 111.5 147ZM115 146.5C115 146.224 115.224 146 115.5 146C115.776 146 116 146.224 116 146.5C116 146.776 115.776 147 115.5 147C115.224 147 115 146.776 115 146.5ZM115.5 148C115.224 148 115 148.224 115 148.5C115 148.776 115.224 149 115.5 149C115.776 149 116 148.776 116 148.5C116 148.224 115.776 148 115.5 148ZM110 148L110.371 148.859L111.176 148.382L110.971 149.295L111.902 149.382L111.2 150L111.902 150.618L110.971 150.705L111.176 151.618L110.371 151.141L110 152L109.629 151.141L108.824 151.618L109.029 150.705L108.098 150.618L108.8 150L108.098 149.382L109.029 149.295L108.824 148.382L109.629 148.859L110 148ZM107 8.5C107 8.77614 107.224 9 107.5 9C107.776 9 108 8.77614 108 8.5C108 8.22386 107.776 8 107.5 8C107.224 8 107 8.22386 107 8.5ZM111 12.5C111 12.7761 111.224 13 111.5 13C111.776 13 112 12.7761 112 12.5C112 12.2239 111.776 12 111.5 12C111.224 12 111 12.2239 111 12.5ZM115.5 14C115.224 14 115 13.7761 115 13.5C115 13.2239 115.224 13 115.5 13C115.776 13 116 13.2239 116 13.5C116 13.7761 115.776 14 115.5 14ZM115 11.5C115 11.7761 115.224 12 115.5 12C115.776 12 116 11.7761 116 11.5C116 11.2239 115.776 11 115.5 11C115.224 11 115 11.2239 115 11.5ZM110.371 8.85873L110 8L109.629 8.85873L108.824 8.38197L109.029 9.29466L108.098 9.38197L108.8 10L108.098 10.618L109.029 10.7053L108.824 11.618L109.629 11.1413L110 12L110.371 11.1413L111.176 11.618L110.971 10.7053L111.902 10.618L111.2 10L111.902 9.38197L110.971 9.29466L111.176 8.38197L110.371 8.85873ZM12.5 151C12.7761 151 13 151.224 13 151.5C13 151.776 12.7761 152 12.5 152C12.2239 152 12 151.776 12 151.5C12 151.224 12.2239 151 12.5 151ZM8.5 147C8.77614 147 9 147.224 9 147.5C9 147.776 8.77614 148 8.5 148C8.22386 148 8 147.776 8 147.5C8 147.224 8.22386 147 8.5 147ZM5 146.5C5 146.224 4.77614 146 4.5 146C4.22386 146 4 146.224 4 146.5C4 146.776 4.22386 147 4.5 147C4.77614 147 5 146.776 5 146.5ZM4.5 148C4.77614 148 5 148.224 5 148.5C5 148.776 4.77614 149 4.5 149C4.22386 149 4 148.776 4 148.5C4 148.224 4.22386 148 4.5 148ZM10 148L10.3708 148.859L11.1756 148.382L10.9708 149.295L11.9021 149.382L11.2 150L11.9021 150.618L10.9708 150.705L11.1756 151.618L10.3708 151.141L10 152L9.62918 151.141L8.82443 151.618L9.02918 150.705L8.09789 150.618L8.8 150L8.09789 149.382L9.02918 149.295L8.82443 148.382L9.62918 148.859L10 148ZM68.4142 151.707L67.7071 151L67 151.707L67.7071 152.414L68.4142 151.707Z" fill="#FFDAB7"/>
<mask id="path-3-inside-1" fill="white">
<path fill-rule="evenodd" clip-rule="evenodd" d="M11.8965 11.8964C14.0763 9.71662 15.5 6.83739 15.5 4L16 4H16.5H103.5H104H104.5C104.5 6.83739 105.924 9.71662 108.104 11.8964C110.283 14.0763 113.163 15.5 116 15.5V16V16.5V143.5V144V144.5C113.163 144.5 110.283 145.924 108.104 148.104C105.924 150.283 104.5 153.163 104.5 156H104H103.5H16.5H16H15.5C15.5 153.163 14.0763 150.283 11.8965 148.104C9.71663 145.924 6.8374 144.5 4.00003 144.5L4.00001 144V16.5H4L4 15.5C6.83739 15.5 9.71663 14.0763 11.8965 11.8964ZM103.552 155C103.841 152.187 105.321 149.472 107.396 147.396C109.472 145.321 112.187 143.841 115 143.552V16.4482C112.187 16.1587 109.472 14.6786 107.396 12.6036C106.075 11.282 104.995 9.70078 104.31 8.00001L55 8V7.7L104.193 7.70001C103.867 6.82289 103.646 5.91662 103.552 5L16.4482 5C16.1587 7.81304 14.6786 10.5285 12.6036 12.6036C10.5285 14.6786 7.81305 16.1587 5.00001 16.4482V143.552C7.81305 143.841 10.5285 145.321 12.6036 147.396C13.8471 148.64 14.8769 150.113 15.5649 151.7L65 151.7V152L15.6903 152C16.0809 152.97 16.3431 153.978 16.4482 155H103.552Z"/>
</mask>
<path d="M15.5 4L15.5 3.8L15.3 3.8L15.3 4L15.5 4ZM11.8965 11.8964L11.755 11.755L11.755 11.755L11.8965 11.8964ZM16 4L16 4.2H16V4ZM104.5 4L104.7 4L104.7 3.8H104.5V4ZM108.104 11.8964L108.245 11.755L108.245 11.755L108.104 11.8964ZM116 15.5H116.2V15.3H116V15.5ZM116 144.5V144.7H116.2V144.5H116ZM108.104 148.104L108.245 148.245L108.245 148.245L108.104 148.104ZM104.5 156V156.2H104.7V156H104.5ZM15.5 156L15.3 156L15.3 156.2H15.5V156ZM11.8965 148.104L11.755 148.245L11.755 148.245L11.8965 148.104ZM4.00003 144.5L3.80003 144.5L3.80003 144.7H4.00003V144.5ZM4.00001 144L3.80001 144L3.80001 144L4.00001 144ZM4.00001 16.5H4.20001V16.3H4.00001V16.5ZM4 16.5L3.8 16.5L3.8 16.7H4V16.5ZM4 15.5L4 15.3L3.8 15.3L3.8 15.5L4 15.5ZM107.396 147.396L107.538 147.538L107.538 147.538L107.396 147.396ZM103.552 155V155.2H103.732L103.751 155.02L103.552 155ZM115 143.552L115.02 143.751L115.2 143.732V143.552H115ZM115 16.4482H115.2V16.2677L115.02 16.2493L115 16.4482ZM107.396 12.6036L107.538 12.4621L107.538 12.4621L107.396 12.6036ZM104.31 8.00001L104.495 7.92528L104.445 7.80001L104.31 7.80001L104.31 8.00001ZM55 8H54.8V8.2L55 8.2L55 8ZM55 7.7L55 7.5L54.8 7.5V7.7H55ZM104.193 7.70001L104.193 7.90001L104.481 7.90001L104.381 7.63023L104.193 7.70001ZM103.552 5L103.751 4.97952L103.732 4.8L103.552 4.8L103.552 5ZM16.4482 5L16.4482 4.8L16.2677 4.8L16.2493 4.97952L16.4482 5ZM12.6036 12.6036L12.745 12.745L12.745 12.745L12.6036 12.6036ZM5.00001 16.4482L4.97953 16.2493L4.80001 16.2677V16.4482H5.00001ZM5.00001 143.552H4.80001V143.732L4.97953 143.751L5.00001 143.552ZM12.6036 147.396L12.4621 147.538L12.4621 147.538L12.6036 147.396ZM15.5649 151.7L15.3814 151.78L15.4336 151.9L15.5649 151.9L15.5649 151.7ZM65 151.7H65.2V151.5L65 151.5L65 151.7ZM65 152L65 152.2L65.2 152.2V152H65ZM15.6903 152L15.6903 151.8L15.3941 151.8L15.5048 152.075L15.6903 152ZM16.4482 155L16.2493 155.02L16.2677 155.2H16.4482V155ZM15.3 4C15.3 6.77237 13.9068 9.60329 11.755 11.755L12.0379 12.0379C14.2458 9.82995 15.7 6.90241 15.7 4L15.3 4ZM16 3.8L15.5 3.8L15.5 4.2L16 4.2L16 3.8ZM16.5 3.8H16V4.2H16.5V3.8ZM103.5 3.8H16.5V4.2H103.5V3.8ZM104 3.8H103.5V4.2H104V3.8ZM104.5 3.8H104V4.2H104.5V3.8ZM108.245 11.755C106.093 9.60329 104.7 6.77237 104.7 4L104.3 4C104.3 6.90241 105.754 9.82995 107.962 12.0379L108.245 11.755ZM116 15.3C113.228 15.3 110.397 13.9068 108.245 11.755L107.962 12.0379C110.17 14.2458 113.098 15.7 116 15.7V15.3ZM116.2 16V15.5H115.8V16H116.2ZM116.2 16.5V16H115.8V16.5H116.2ZM116.2 143.5V16.5H115.8V143.5H116.2ZM116.2 144V143.5H115.8V144H116.2ZM116.2 144.5V144H115.8V144.5H116.2ZM108.245 148.245C110.397 146.093 113.228 144.7 116 144.7V144.3C113.098 144.3 110.17 145.754 107.962 147.962L108.245 148.245ZM104.7 156C104.7 153.228 106.093 150.397 108.245 148.245L107.962 147.962C105.754 150.17 104.3 153.098 104.3 156H104.7ZM104 156.2H104.5V155.8H104V156.2ZM103.5 156.2H104V155.8H103.5V156.2ZM16.5 156.2H103.5V155.8H16.5V156.2ZM16 156.2H16.5V155.8H16V156.2ZM15.5 156.2H16V155.8H15.5V156.2ZM11.755 148.245C13.9068 150.397 15.3 153.228 15.3 156L15.7 156C15.7 153.098 14.2458 150.17 12.0379 147.962L11.755 148.245ZM4.00003 144.7C6.77238 144.7 9.60331 146.093 11.755 148.245L12.0379 147.962C9.82996 145.754 6.90242 144.3 4.00003 144.3V144.7ZM3.80001 144L3.80003 144.5L4.20003 144.5L4.20001 144L3.80001 144ZM3.80001 16.5V144H4.20001V16.5H3.80001ZM4 16.7H4.00001V16.3H4V16.7ZM3.8 15.5L3.8 16.5L4.2 16.5L4.2 15.5L3.8 15.5ZM11.755 11.755C9.6033 13.9068 6.77237 15.3 4 15.3L4 15.7C6.90241 15.7 9.82995 14.2458 12.0379 12.0379L11.755 11.755ZM107.255 147.255C105.154 149.356 103.648 152.112 103.353 154.98L103.751 155.02C104.035 152.262 105.489 149.587 107.538 147.538L107.255 147.255ZM114.98 143.353C112.112 143.648 109.356 145.154 107.255 147.255L107.538 147.538C109.587 145.489 112.262 144.035 115.02 143.751L114.98 143.353ZM114.8 16.4482V143.552H115.2V16.4482H114.8ZM107.255 12.745C109.356 14.8458 112.112 16.352 114.98 16.6472L115.02 16.2493C112.262 15.9653 109.587 14.5115 107.538 12.4621L107.255 12.745ZM104.124 8.07473C104.82 9.80264 105.916 11.4061 107.255 12.745L107.538 12.4621C106.234 11.1579 105.169 9.59893 104.495 7.92528L104.124 8.07473ZM55 8.2L104.31 8.20001L104.31 7.80001L55 7.8L55 8.2ZM54.8 7.7V8H55.2V7.7H54.8ZM104.193 7.50001L55 7.5L55 7.9L104.193 7.90001L104.193 7.50001ZM103.353 5.02048C103.449 5.95533 103.674 6.87814 104.006 7.76979L104.381 7.63023C104.06 6.76764 103.843 5.87792 103.751 4.97952L103.353 5.02048ZM16.4482 5.2L103.552 5.2L103.552 4.8L16.4482 4.8L16.4482 5.2ZM12.745 12.745C14.8458 10.6442 16.352 7.88794 16.6472 5.02048L16.2493 4.97952C15.9653 7.73813 14.5115 10.4128 12.4621 12.4621L12.745 12.745ZM5.02049 16.6472C7.88795 16.352 10.6442 14.8458 12.745 12.745L12.4621 12.4621C10.4128 14.5115 7.73814 15.9653 4.97953 16.2493L5.02049 16.6472ZM5.20001 143.552V16.4482H4.80001V143.552H5.20001ZM12.745 147.255C10.6442 145.154 7.88795 143.648 5.02049 143.353L4.97953 143.751C7.73814 144.035 10.4128 145.489 12.4621 147.538L12.745 147.255ZM15.7484 151.62C15.0496 150.009 14.0048 148.515 12.745 147.255L12.4621 147.538C13.6893 148.765 14.7042 150.218 15.3814 151.78L15.7484 151.62ZM15.5649 151.9L65 151.9L65 151.5L15.5649 151.5L15.5649 151.9ZM64.8 151.7V152H65.2V151.7H64.8ZM65 151.8L15.6903 151.8L15.6903 152.2L65 152.2L65 151.8ZM16.6472 154.98C16.5399 153.938 16.2728 152.911 15.8758 151.925L15.5048 152.075C15.8891 153.029 16.1462 154.019 16.2493 155.02L16.6472 154.98ZM103.552 154.8H16.4482V155.2H103.552V154.8Z" fill="#FFDAB7" mask="url(#path-3-inside-1)"/>
<path d="M114 6.00206H114.15V5.85207L114 5.85206V6.00206ZM6.1 5.99999L6.1 5.84999L5.95 5.84999V5.99999H6.1ZM114 153.9V154.05H114.15V153.9H114ZM6.1 153.9H5.95V154.05H6.1V153.9ZM6 5.99999L5.85 5.99999V5.99999H6ZM6 5.89999L6 5.74999L5.85 5.74999L5.85 5.89999L6 5.89999ZM114 5.90206H114.15V5.75207L114 5.75206V5.90206ZM114 5.99999H113.85V6.14999H114V5.99999ZM114.1 5.99999H114.25V5.84999H114.1V5.99999ZM114.1 154V154.15H114.25V154H114.1ZM6 154H5.85V154.15H6V154ZM114 5.85206L6.1 5.84999L6.1 6.14999L114 6.15206V5.85206ZM114.15 153.9V6.00206H113.85V153.9H114.15ZM6.1 154.05H114V153.75H6.1V154.05ZM5.95 5.99999V153.9H6.25V5.99999H5.95ZM6.15 153.9V5.99999H5.85V153.9H6.15ZM6.15 6L6.15 5.9L5.85 5.89999L5.85 5.99999L6.15 6ZM6 6.04999L114 6.05206V5.75206L6 5.74999L6 6.04999ZM113.85 5.90206V5.99999H114.15V5.90206H113.85ZM114 6.14999H114.1V5.84999H114V6.14999ZM113.95 5.99999V154H114.25V5.99999H113.95ZM114.1 153.85H114V154.15H114.1V153.85ZM114 153.85H6.1V154.15H114V153.85ZM6.1 153.85H6V154.15H6.1V153.85ZM6.15 154V153.9H5.85V154H6.15Z" fill="#FFDAB7"/>
<path d="M86 146.999C86 146.728 85.9471 146.47 85.8412 146.223C85.7354 145.977 85.5931 145.764 85.4144 145.586C85.2357 145.407 85.0232 145.265 84.7768 145.159C84.5305 145.053 84.272 145 84.0013 145C83.7306 145 83.4717 145.053 83.2245 145.159C82.9772 145.265 82.7643 145.407 82.5856 145.586C82.4069 145.764 82.2646 145.977 82.1588 146.223C82.0529 146.47 82 146.728 82 146.999C82 147.269 82.0529 147.528 82.1588 147.776C82.2646 148.023 82.4069 148.236 82.5856 148.414C82.7643 148.593 82.9772 148.735 83.2245 148.841C83.4717 148.947 83.7306 149 84.0013 149C84.272 149 84.5305 148.947 84.7768 148.841C85.0232 148.735 85.2357 148.593 85.4144 148.414C85.5931 148.236 85.7354 148.023 85.8412 147.776C85.9471 147.528 86 147.269 86 146.999ZM84.54 146.999C84.54 147.736 84.3969 148.331 84.1106 148.784C84.0846 148.786 84.0481 148.787 84.0013 148.787C83.7584 148.787 83.5268 148.739 83.3064 148.645C83.0861 148.55 82.8961 148.423 82.7365 148.264C82.5769 148.104 82.4498 147.914 82.3552 147.694C82.2607 147.473 82.2134 147.242 82.2134 146.999C82.2134 146.758 82.2607 146.527 82.3552 146.306C82.4498 146.086 82.5769 145.896 82.7365 145.736C82.8961 145.577 83.0861 145.45 83.3064 145.355C83.5268 145.261 83.7584 145.213 84.0013 145.213C84.0429 145.213 84.075 145.214 84.0976 145.216C84.3925 145.775 84.54 146.369 84.54 146.999Z" fill="#FFDAB7"/>
<path d="M94 147.001C94 146.729 93.9472 146.47 93.8415 146.223C93.7358 145.976 93.5937 145.763 93.4152 145.585C93.2367 145.406 93.024 145.264 92.7771 145.159C92.5302 145.053 92.2716 145 92.0013 145C91.7293 145 91.4698 145.053 91.2229 145.159C90.976 145.264 90.7633 145.406 90.5848 145.585C90.4063 145.763 90.2642 145.976 90.1585 146.223C90.0528 146.47 90 146.729 90 147.001C90 147.272 90.0528 147.53 90.1585 147.777C90.2642 148.024 90.4063 148.237 90.5848 148.415C90.7633 148.594 90.976 148.736 91.2229 148.841C91.4698 148.947 91.7293 149 92.0013 149C92.2716 149 92.5302 148.947 92.7771 148.841C93.024 148.736 93.2367 148.594 93.4152 148.415C93.5937 148.237 93.7358 148.024 93.8415 147.777C93.9472 147.53 94 147.272 94 147.001ZM93.7869 147.001C93.7869 147.242 93.7397 147.473 93.6452 147.694C93.5508 147.915 93.4239 148.105 93.2645 148.264C93.105 148.424 92.9149 148.551 92.694 148.645C92.473 148.74 92.2421 148.787 92.0013 148.787C91.7587 148.787 91.5274 148.74 91.3073 148.645C91.0873 148.551 90.8971 148.424 90.7368 148.264C90.5766 148.105 90.4492 147.915 90.3548 147.694C90.2603 147.473 90.2131 147.242 90.2131 147.001C90.2131 146.679 90.2933 146.381 90.4535 146.106C90.6138 145.831 90.8313 145.614 91.1059 145.454C91.3806 145.293 91.679 145.213 92.0013 145.213C92.2421 145.213 92.473 145.26 92.694 145.355C92.9149 145.449 93.105 145.577 93.2645 145.737C93.4239 145.897 93.5508 146.087 93.6452 146.307C93.7397 146.527 93.7869 146.759 93.7869 147.001Z" fill="#FFDAB7"/>
<path d="M74 146.999C74 146.728 74.0529 146.47 74.1588 146.223C74.2646 145.977 74.4069 145.764 74.5856 145.586C74.7643 145.407 74.9768 145.265 75.2232 145.159C75.4695 145.053 75.728 145 75.9987 145C76.2694 145 76.5283 145.053 76.7755 145.159C77.0228 145.265 77.2357 145.407 77.4144 145.586C77.5931 145.764 77.7354 145.977 77.8412 146.223C77.9471 146.47 78 146.728 78 146.999C78 147.269 77.9471 147.528 77.8412 147.776C77.7354 148.023 77.5931 148.236 77.4144 148.414C77.2357 148.593 77.0228 148.735 76.7755 148.841C76.5283 148.947 76.2694 149 75.9987 149C75.728 149 75.4695 148.947 75.2232 148.841C74.9768 148.735 74.7643 148.593 74.5856 148.414C74.4069 148.236 74.2646 148.023 74.1588 147.776C74.0529 147.528 74 147.269 74 146.999ZM74.2134 146.999C74.2134 147.242 74.2607 147.473 74.3552 147.694C74.4498 147.914 74.5769 148.104 74.7365 148.264C74.8961 148.423 75.0861 148.55 75.3064 148.645C75.5268 148.739 75.7575 148.787 75.9987 148.787H76.0351V145.213H75.9987C75.7575 145.213 75.5268 145.261 75.3064 145.355C75.0861 145.45 74.8961 145.577 74.7365 145.736C74.5769 145.896 74.4498 146.086 74.3552 146.306C74.2607 146.527 74.2134 146.758 74.2134 146.999Z" fill="#FFDAB7"/>
<path d="M70 146.999C70 146.728 69.9471 146.47 69.8412 146.223C69.7354 145.977 69.5931 145.764 69.4144 145.586C69.2357 145.407 69.0232 145.265 68.7768 145.159C68.5305 145.053 68.272 145 68.0013 145C67.7306 145 67.4717 145.053 67.2245 145.159C66.9772 145.265 66.7643 145.407 66.5856 145.586C66.4069 145.764 66.2646 145.977 66.1588 146.223C66.0529 146.47 66 146.728 66 146.999C66 147.269 66.0529 147.528 66.1588 147.776C66.2646 148.023 66.4069 148.236 66.5856 148.414C66.7643 148.593 66.9772 148.735 67.2245 148.841C67.4717 148.947 67.7306 149 68.0013 149C68.272 149 68.5305 148.947 68.7768 148.841C69.0232 148.735 69.2357 148.593 69.4144 148.414C69.5931 148.236 69.7354 148.023 69.8412 147.776C69.9471 147.528 70 147.269 70 146.999ZM67.9388 145.213C67.7515 145.439 67.5992 145.702 67.4821 146.002C67.365 146.302 67.3064 146.634 67.3064 146.999C67.3064 147.779 67.5094 148.375 67.9154 148.787C67.6829 148.776 67.4617 148.722 67.2518 148.623C67.0419 148.524 66.861 148.395 66.7092 148.236C66.5574 148.077 66.4368 147.89 66.3474 147.675C66.2581 147.46 66.2134 147.235 66.2134 146.999C66.2134 146.683 66.2902 146.39 66.4437 146.12C66.5973 145.851 66.8063 145.635 67.0709 145.472C67.3355 145.31 67.6248 145.224 67.9388 145.213Z" fill="#FFDAB7"/>
<path d="M58 146.999C58 147.361 58.0894 147.696 58.2681 148.003C58.4468 148.31 58.6897 148.553 58.9967 148.732C59.3038 148.911 59.6387 149 60.0013 149C60.3639 149 60.6983 148.911 61.0046 148.732C61.3108 148.553 61.5532 148.31 61.7319 148.003C61.9106 147.696 62 147.361 62 146.999C62 146.636 61.9106 146.302 61.7319 145.995C61.5532 145.689 61.3108 145.447 61.0046 145.268C60.6983 145.089 60.3639 145 60.0013 145C59.6387 145 59.3038 145.089 58.9967 145.268C58.6897 145.447 58.4468 145.689 58.2681 145.995C58.0894 146.302 58 146.636 58 146.999Z" fill="#FFDAB7"/>
<path d="M26 147.001C26 146.729 26.0528 146.47 26.1585 146.223C26.2642 145.976 26.4063 145.763 26.5848 145.585C26.7633 145.406 26.976 145.264 27.2229 145.159C27.4698 145.053 27.7284 145 27.9987 145C28.2707 145 28.5302 145.053 28.7771 145.159C29.024 145.264 29.2367 145.406 29.4152 145.585C29.5937 145.763 29.7358 145.976 29.8415 146.223C29.9472 146.47 30 146.729 30 147.001C30 147.272 29.9472 147.53 29.8415 147.777C29.7358 148.024 29.5937 148.237 29.4152 148.415C29.2367 148.594 29.024 148.736 28.7771 148.841C28.5302 148.947 28.2707 149 27.9987 149C27.7284 149 27.4698 148.947 27.2229 148.841C26.976 148.736 26.7633 148.594 26.5848 148.415C26.4063 148.237 26.2642 148.024 26.1585 147.777C26.0528 147.53 26 147.272 26 147.001ZM26.2131 147.001C26.2131 147.242 26.2603 147.473 26.3548 147.694C26.4492 147.915 26.5761 148.105 26.7355 148.264C26.895 148.424 27.0851 148.551 27.306 148.645C27.527 148.74 27.7579 148.787 27.9987 148.787C28.2413 148.787 28.4726 148.74 28.6927 148.645C28.9127 148.551 29.1029 148.424 29.2632 148.264C29.4234 148.105 29.5508 147.915 29.6452 147.694C29.7397 147.473 29.7869 147.242 29.7869 147.001C29.7869 146.679 29.7067 146.381 29.5465 146.106C29.3862 145.831 29.1687 145.614 28.8941 145.454C28.6194 145.293 28.321 145.213 27.9987 145.213C27.7579 145.213 27.527 145.26 27.306 145.355C27.0851 145.449 26.895 145.577 26.7355 145.737C26.5761 145.897 26.4492 146.087 26.3548 146.307C26.2603 146.527 26.2131 146.759 26.2131 147.001Z" fill="#FFDAB7"/>
<path d="M34 146.999C34 146.728 34.0529 146.47 34.1588 146.223C34.2646 145.977 34.4069 145.764 34.5856 145.586C34.7643 145.407 34.9768 145.265 35.2232 145.159C35.4695 145.053 35.728 145 35.9987 145C36.2694 145 36.5283 145.053 36.7755 145.159C37.0228 145.265 37.2357 145.407 37.4144 145.586C37.5931 145.764 37.7354 145.977 37.8412 146.223C37.9471 146.47 38 146.728 38 146.999C38 147.269 37.9471 147.528 37.8412 147.776C37.7354 148.023 37.5931 148.236 37.4144 148.414C37.2357 148.593 37.0228 148.735 36.7755 148.841C36.5283 148.947 36.2694 149 35.9987 149C35.728 149 35.4695 148.947 35.2232 148.841C34.9768 148.735 34.7643 148.593 34.5856 148.414C34.4069 148.236 34.2646 148.023 34.1588 147.776C34.0529 147.528 34 147.269 34 146.999ZM35.46 146.999C35.46 147.736 35.6031 148.331 35.8894 148.784C35.9154 148.786 35.9519 148.787 35.9987 148.787C36.2416 148.787 36.4732 148.739 36.6936 148.645C36.9139 148.55 37.1039 148.423 37.2635 148.264C37.4231 148.104 37.5502 147.914 37.6448 147.694C37.7393 147.473 37.7866 147.242 37.7866 146.999C37.7866 146.758 37.7393 146.527 37.6448 146.306C37.5502 146.086 37.4231 145.896 37.2635 145.736C37.1039 145.577 36.9139 145.45 36.6936 145.355C36.4732 145.261 36.2416 145.213 35.9987 145.213C35.9571 145.213 35.925 145.214 35.9024 145.216C35.6075 145.775 35.46 146.369 35.46 146.999Z" fill="#FFDAB7"/>
<path d="M46 146.999C46 146.728 45.9471 146.47 45.8412 146.223C45.7354 145.977 45.5931 145.764 45.4144 145.586C45.2357 145.407 45.0232 145.265 44.7768 145.159C44.5305 145.053 44.272 145 44.0013 145C43.7306 145 43.4717 145.053 43.2245 145.159C42.9772 145.265 42.7643 145.407 42.5856 145.586C42.4069 145.764 42.2646 145.977 42.1588 146.223C42.0529 146.47 42 146.728 42 146.999C42 147.269 42.0529 147.528 42.1588 147.776C42.2646 148.023 42.4069 148.236 42.5856 148.414C42.7643 148.593 42.9772 148.735 43.2245 148.841C43.4717 148.947 43.7306 149 44.0013 149C44.272 149 44.5305 148.947 44.7768 148.841C45.0232 148.735 45.2357 148.593 45.4144 148.414C45.5931 148.236 45.7354 148.023 45.8412 147.776C45.9471 147.528 46 147.269 46 146.999ZM45.7866 146.999C45.7866 147.242 45.7393 147.473 45.6448 147.694C45.5502 147.914 45.4231 148.104 45.2635 148.264C45.1039 148.423 44.9139 148.55 44.6936 148.645C44.4732 148.739 44.2425 148.787 44.0013 148.787H43.9649V145.213H44.0013C44.2425 145.213 44.4732 145.261 44.6936 145.355C44.9139 145.45 45.1039 145.577 45.2635 145.736C45.4231 145.896 45.5502 146.086 45.6448 146.306C45.7393 146.527 45.7866 146.758 45.7866 146.999Z" fill="#FFDAB7"/>
<path d="M50 146.999C50 146.728 50.0529 146.47 50.1588 146.223C50.2646 145.977 50.4069 145.764 50.5856 145.586C50.7643 145.407 50.9768 145.265 51.2232 145.159C51.4695 145.053 51.728 145 51.9987 145C52.2694 145 52.5283 145.053 52.7755 145.159C53.0228 145.265 53.2357 145.407 53.4144 145.586C53.5931 145.764 53.7354 145.977 53.8412 146.223C53.9471 146.47 54 146.728 54 146.999C54 147.269 53.9471 147.528 53.8412 147.776C53.7354 148.023 53.5931 148.236 53.4144 148.414C53.2357 148.593 53.0228 148.735 52.7755 148.841C52.5283 148.947 52.2694 149 51.9987 149C51.728 149 51.4695 148.947 51.2232 148.841C50.9768 148.735 50.7643 148.593 50.5856 148.414C50.4069 148.236 50.2646 148.023 50.1588 147.776C50.0529 147.528 50 147.269 50 146.999ZM52.0612 145.213C52.2485 145.439 52.4008 145.702 52.5179 146.002C52.635 146.302 52.6936 146.634 52.6936 146.999C52.6936 147.779 52.4906 148.375 52.0846 148.787C52.3171 148.776 52.5383 148.722 52.7482 148.623C52.9581 148.524 53.139 148.395 53.2908 148.236C53.4426 148.077 53.5632 147.89 53.6526 147.675C53.7419 147.46 53.7866 147.235 53.7866 146.999C53.7866 146.683 53.7098 146.39 53.5563 146.12C53.4027 145.851 53.1937 145.635 52.9291 145.472C52.6645 145.31 52.3752 145.224 52.0612 145.213Z" fill="#FFDAB7"/>
<path fill-rule="evenodd" clip-rule="evenodd" d="M93.3754 28.0713L97.6945 29.9438L96.9881 25.2486L98.2164 29.7936L101.447 26.3133L98.6597 30.1071L103.395 30.4631L98.6905 30.6497L101.364 34.5735L98.2861 31.0118L96.8851 35.5493L97.7503 30.921L93.3298 32.6548L97.4863 30.4455L93.3754 28.0713Z" fill="#FFDAB7"/>
<path fill-rule="evenodd" clip-rule="evenodd" d="M29 26.0059L31.2712 25.6415L29.7455 23.8948L31.4466 25.4425L31.8619 23.1611L31.7116 25.4551L33.7553 24.3572L31.867 25.6703L34 26.5825L31.7957 25.9255L32.4119 28.1611L31.5512 26.029L30.1865 27.9042L31.3174 25.9027L29 26.0059Z" fill="#FFDAB7"/>
<path d="M26.1948 28.3776L26.2873 28.6334C24.371 29.3253 23.3785 31.4401 24.0705 33.3564C23.9851 33.3867 23.9001 33.4177 23.8151 33.448C23.1227 31.5322 21.0083 30.5397 19.0925 31.232L19 30.9762C20.9162 30.2843 21.9088 28.1698 21.2164 26.2536C21.3018 26.2229 21.3872 26.1922 21.4722 26.1611C22.1646 28.0774 24.279 29.0699 26.1948 28.3776Z" fill="#FFDAB7"/>
<path d="M87.5087 26.8084L87.4337 26.9375C86.467 26.3753 85.2273 26.7033 84.665 27.67C84.6221 27.6448 84.5791 27.62 84.5364 27.5949C85.0984 26.6281 84.7706 25.3886 83.8038 24.8267L83.8789 24.6976C84.8456 25.2599 86.0851 24.932 86.6473 23.9651C86.6903 23.9902 86.7333 24.0153 86.7763 24.0401C86.2142 25.007 86.542 26.2465 87.5087 26.8084Z" fill="#FFDAB7"/>
<g filter="url(#filter0_d)">
<path fill-rule="evenodd" clip-rule="evenodd" d="M51.8665 78.4294L51.681 77L51.4956 78.4294L50.5055 77.382L51.1956 78.6473L49.7789 78.382L51.081 79L49.7789 79.618L51.1956 79.3527L50.565 80.5089L49.1249 82.6691L48.9421 81.2605L48.7567 82.6899L47.7666 81.6425L48.4567 82.9078L47.04 82.6425L48.3421 83.2605L47.6796 83.575L45.6026 84.0365L45.9751 83.8597L44.5584 84.125L45.2486 82.8597L44.2584 83.9071L44.073 82.4777L43.8876 83.9071L42.8974 82.8597L43.5876 84.125L42.1709 83.8597L43.473 84.4777L42.1709 85.0958L43.5876 84.8304L42.8974 86.0958L43.8876 85.0484L44.073 86.4777L44.2584 85.0484L45.2486 86.0958L44.5584 84.8304L45.9751 85.0958L45.0713 84.6668L48.2697 83.956L47.7666 84.8785L48.7368 83.8522L48.7588 83.8473L48.9421 85.2605L49.0933 84.0955L50.07 84.828L50.1177 84.8785L50.1041 84.8536L51.8266 86.1455L50.9962 85.9899L52.2983 86.608L50.9962 87.226L52.4129 86.9606L51.7227 88.226L52.7129 87.1786L52.8983 88.608L53.0837 87.1786L54.0738 88.226L53.3837 86.9606L54.8004 87.226L53.5917 86.6523L59.0262 84.9801L58.4177 86.0958L58.7515 85.7427L54.3969 97.5L54.301 97.6015L54.1156 96.1721L53.9302 97.6015L52.94 96.5541L53.6302 97.8195L52.2135 97.5541L53.231 98.0371L39.5576 98.4643L40.1931 98.1627L38.7764 98.4281L39.4665 97.1627L38.4764 98.2101L38.291 96.7808L38.1055 98.2101L37.1154 97.1627L37.7739 98.37L28.9068 95.7099L30.1506 95.1195L28.7339 95.3849L29.424 94.1195L28.4339 95.1669L28.2485 93.7376L28.0631 95.1669L27.0729 94.1195L27.7631 95.3849L26.3463 95.1195L27.6485 95.7376L26.3463 96.3556L27.7631 96.0902L27.0729 97.3556L27.6667 96.7275L27.0826 100.524L27.0312 100.128L26.8458 101.558L25.8556 100.51L26.5458 101.776L25.1291 101.51L26.4312 102.128L25.1291 102.746L26.5458 102.481L25.8556 103.746L26.7624 102.787L24.9509 120.903L24.9009 120.518L24.7155 121.947L23.7254 120.9L24.4155 122.165L22.9988 121.9L24.3009 122.518L22.9988 123.136L24.4155 122.87L23.7254 124.136L24.7155 123.088L24.9009 124.518L25.0863 123.088L26.0765 124.136L25.3863 122.87L26.803 123.136L25.5009 122.518L26.803 121.9L25.3863 122.165L26.0765 120.9L25.38 121.636L27.1661 103.776L32.055 123.776L31.6377 123.334L32.1984 124.362L32.253 124.585L30.9111 124.334L32.2132 124.952L30.9111 125.57L32.3278 125.305L31.6377 126.57L32.6278 125.523L32.8132 126.952L32.9986 125.523L33.9888 126.57L33.2986 125.305L34.7153 125.57L33.4132 124.952L34.7153 124.334L33.2986 124.6L33.9888 123.334L32.9986 124.382L32.8132 122.952L32.659 124.141L27.5684 103.316L37.4119 115.396L36.3888 115.205L37.691 115.823L36.3888 116.441L37.8055 116.175L37.1154 117.441L38.1055 116.393L38.291 117.823L38.4764 116.393L39.4665 117.441L38.7764 116.175L40.1931 116.441L38.891 115.823L40.1931 115.205L38.7764 115.47L39.4665 114.205L38.9113 114.792L40.5939 110.417L40.7255 111.432L40.911 110.003L41.9011 111.05L41.211 109.785L42.6277 110.05L41.3255 109.432L42.6277 108.814L41.211 109.079L41.9011 107.814L40.911 108.861L40.7255 107.432L40.6518 108L38.6316 99.5156L39.4665 100.399L38.7764 99.1334L40.1931 99.3988L39.2955 98.9728L52.712 98.5535L52.2135 98.7902L53.63 98.5248L53.6302 98.5248L52.94 99.7902L53.9302 98.7428L54.1156 100.172L54.301 98.7428L55.2911 99.7902L54.601 98.5248L56.0177 98.7902L54.7156 98.1721L56.0177 97.5541L54.8275 97.777L55.2579 96.6151L55.2911 96.5541L55.2736 96.5727L59.4426 85.3162L59.5933 86.4777L59.7733 85.0896L59.8818 85.1574L60.7689 86.0958L60.4511 85.5133L74.5745 94.3404L73.1468 94.0729L75.0269 94.9653L74.8947 95.0974L73.1468 95.9271L74.2767 95.7154L69.6679 100.324L69.8984 99.9016L68.9083 100.949L68.7229 99.5196L68.5375 100.949L67.5473 99.9016L68.2375 101.167L66.8207 100.902L68.1229 101.52L66.8207 102.138L68.0928 101.899L59.9298 110.062L60.1603 109.64L59.1701 110.687L58.9847 109.258L58.7993 110.687L57.8091 109.64L58.4993 110.905L57.0826 110.64L58.3847 111.258L57.0826 111.876L58.4993 111.611L57.8091 112.876L58.7993 111.828L58.9847 113.258L59.1701 111.828L60.1603 112.876L59.4701 111.611L60.8868 111.876L59.5847 111.258L60.8868 110.64L59.8688 110.83L68.5457 102.154L68.7229 103.52L68.9083 102.09L69.8984 103.138L69.2083 101.872L70.625 102.138L69.3229 101.52L70.625 100.902L69.607 101.092L75.1468 95.5524L75.2719 95.529L74.2366 97.4271L75.7219 95.856L76 98L76.2781 95.856L77.7633 97.4271L76.7281 95.529L76.7848 95.5396L88.1802 101.026L87.5145 100.902L88.8166 101.52L87.5145 102.138L88.9312 101.872L88.241 103.138L89.2312 102.09L89.4166 103.52L89.602 102.09L90.5921 103.138L89.902 101.872L89.914 101.875L93.7205 103.778L92.6879 104.268L94.1046 104.003L93.4144 105.268L94.4046 104.22L94.59 105.65L94.7754 104.22L95.7656 105.268L95.0754 104.003L96.4921 104.268L95.19 103.65L96.4921 103.032L95.0754 103.297L95.7656 102.032L94.7754 103.079L94.59 101.65L94.4046 103.079L93.4144 102.032L94.1046 103.297L93.7411 103.229L90.1733 101.445L91.3187 100.902L89.902 101.167L90.5921 99.9016L89.602 100.949L89.4166 99.5196L89.2312 100.949L88.241 99.9016L88.6841 100.714L78.6712 95.893L78.8532 95.9271L76.9 95L78.8532 94.0729L76.7281 94.471L77.7633 92.5729L76.2781 94.144L76 92L75.7219 94.144L74.2366 92.5729L75.0365 94.0395L60.3975 84.8901L61.4954 85.0958L60.1933 84.4777L61.4954 83.8597L60.0787 84.125L60.7689 82.8597L59.7787 83.9071L59.5933 82.4777L59.4079 83.9071L58.4177 82.8597L59.0236 83.9706L52.9186 79.4936L53.5832 79.618L52.281 79L53.5832 78.382L52.1665 78.6473L52.8566 77.382L51.8665 78.4294ZM51.5438 79.9421L51.681 81L51.8665 79.5706L52.8566 80.618L52.3567 79.7015L58.1421 83.9441L57.6912 83.8597L58.6429 84.3114L58.8961 84.4971L53.4244 86.1806L54.0738 84.9899L53.0837 86.0373L52.8983 84.608L52.7129 86.0373L51.7227 84.9899L52.1405 85.7559L49.5273 83.796L49.4275 83.6132L50.8442 83.8785L49.5421 83.2605L50.8442 82.6425L49.5865 82.878L51.5438 79.9421ZM38.1379 99.6006L38.291 100.781L38.3361 100.433L40.2764 108.582L39.55 107.814L40.2401 109.079L38.8234 108.814L40.1255 109.432L38.8234 110.05L40.2401 109.785L39.55 111.05L39.9964 110.578L38.4063 114.712L38.291 113.823L38.1055 115.252L37.1154 114.205L37.1751 114.314L27.5363 102.485L28.9333 102.746L27.6312 102.128L28.9333 101.51L27.5166 101.776L28.2067 100.51L27.4709 101.289L28.1427 96.9219L28.2485 97.7376L28.4339 96.3082L29.424 97.3556L28.7924 96.1976L37.5794 98.8337L36.3888 99.3988L37.8055 99.1334L37.1154 100.399L38.084 99.3742L38.1379 99.6006Z" fill="#CBE8FF"/>
</g>
<rect x="12" y="59" width="94" height="82" fill="#86898D" fill-opacity="0.8"/>
<rect x="14" y="61" width="94" height="82" fill="#86898D" fill-opacity="0.5"/>
<line x1="18" y1="51.75" x2="36" y2="51.75" stroke="#FFDAB7" stroke-width="0.5"/>
<line x1="21" y1="50.75" x2="33" y2="50.75" stroke="#FFDAB7" stroke-width="0.5"/>
<line x1="21" y1="52.75" x2="33" y2="52.75" stroke="#FFDAB7" stroke-width="0.5"/>
<line x1="24" y1="49.75" x2="30" y2="49.75" stroke="#FFDAB7" stroke-width="0.5"/>
<line x1="24" y1="53.75" x2="30" y2="53.75" stroke="#FFDAB7" stroke-width="0.5"/>
<line x1="88" y1="50.75" x2="100" y2="50.75" stroke="#FFDAB7" stroke-width="0.5"/>
<line x1="85" y1="51.75" x2="103" y2="51.75" stroke="#FFDAB7" stroke-width="0.5"/>
<line x1="88" y1="52.75" x2="100" y2="52.75" stroke="#FFDAB7" stroke-width="0.5"/>
<line x1="91" y1="49.75" x2="97" y2="49.75" stroke="#FFDAB7" stroke-width="0.5"/>
<line x1="91" y1="53.75" x2="97" y2="53.75" stroke="#FFDAB7" stroke-width="0.5"/>
<path d="M49.156 56.04C49.0387 56.04 48.9427 56.036 48.868 56.028C48.796 56.02 48.7187 56.004 48.636 55.98C48.548 55.956 48.4773 55.9213 48.424 55.876C48.3733 55.828 48.3307 55.7613 48.296 55.676C48.2613 55.596 48.244 55.496 48.244 55.376V54.064C48.244 53.944 48.2613 53.8387 48.296 53.748C48.3307 53.6573 48.376 53.5853 48.432 53.532C48.4827 53.4867 48.5493 53.4507 48.632 53.424C48.7173 53.3947 48.8027 53.376 48.888 53.368C48.984 53.3627 49.0733 53.36 49.156 53.36C49.2733 53.36 49.368 53.364 49.44 53.372C49.5147 53.38 49.5933 53.396 49.676 53.42C49.764 53.4467 49.8347 53.484 49.888 53.532C49.944 53.58 49.9893 53.648 50.024 53.736C50.0587 53.824 50.076 53.932 50.076 54.06V55.376C50.076 55.4853 50.0587 55.5827 50.024 55.668C49.9893 55.7533 49.944 55.82 49.888 55.868C49.8347 55.9133 49.7667 55.9507 49.684 55.98C49.6013 56.0067 49.5173 56.0227 49.432 56.028C49.3573 56.036 49.2653 56.04 49.156 56.04ZM49.164 55.804C49.3053 55.804 49.4147 55.7947 49.492 55.776C49.5693 55.7547 49.6253 55.7147 49.66 55.656C49.6947 55.5973 49.712 55.5107 49.712 55.396V54.036C49.712 53.9107 49.6933 53.8173 49.656 53.756C49.6213 53.692 49.5653 53.6493 49.488 53.628C49.4133 53.6067 49.304 53.596 49.16 53.596C49.0133 53.596 48.9013 53.6067 48.824 53.628C48.7493 53.6493 48.6947 53.692 48.66 53.756C48.6253 53.8173 48.608 53.9107 48.608 54.036V55.396C48.608 55.5107 48.6253 55.5973 48.66 55.656C48.6973 55.7147 48.7547 55.7547 48.832 55.776C48.9093 55.7947 49.02 55.804 49.164 55.804ZM51.7963 53.764L51.0083 54.28V53.952L51.8003 53.404H52.1443V56H51.7963V53.764ZM53.3206 55.568H53.7846V56H53.3206V55.568ZM54.5521 55.536C54.5521 55.4613 54.5641 55.392 54.5881 55.328C54.6147 55.2613 54.6481 55.2053 54.6881 55.16C54.7201 55.1227 54.7681 55.0827 54.8321 55.04C54.8987 54.9947 54.9614 54.9573 55.0201 54.928C55.0707 54.9013 55.1374 54.8707 55.2201 54.836L55.6521 54.644C55.8227 54.5693 55.9081 54.4533 55.9081 54.296V53.94C55.9081 53.8173 55.8707 53.736 55.7961 53.696C55.7214 53.6533 55.5907 53.632 55.4041 53.632C55.2201 53.632 54.9667 53.66 54.6441 53.716V53.436C54.9134 53.3853 55.1921 53.36 55.4801 53.36C55.7681 53.36 55.9761 53.404 56.1041 53.492C56.2321 53.5773 56.2961 53.7213 56.2961 53.924V54.348C56.2961 54.444 56.2801 54.524 56.2481 54.588C56.2161 54.6493 56.1641 54.7053 56.0921 54.756C56.0227 54.804 55.9201 54.8587 55.7841 54.92L55.1841 55.196C55.0081 55.276 54.9201 55.3933 54.9201 55.548V55.72H56.2961V56H54.5521V55.536ZM57.0724 55.536C57.0724 55.4613 57.0844 55.392 57.1084 55.328C57.135 55.2613 57.1684 55.2053 57.2084 55.16C57.2404 55.1227 57.2884 55.0827 57.3524 55.04C57.419 54.9947 57.4817 54.9573 57.5404 54.928C57.591 54.9013 57.6577 54.8707 57.7404 54.836L58.1724 54.644C58.343 54.5693 58.4284 54.4533 58.4284 54.296V53.94C58.4284 53.8173 58.391 53.736 58.3164 53.696C58.2417 53.6533 58.111 53.632 57.9244 53.632C57.7404 53.632 57.487 53.66 57.1644 53.716V53.436C57.4337 53.3853 57.7124 53.36 58.0004 53.36C58.2884 53.36 58.4964 53.404 58.6244 53.492C58.7524 53.5773 58.8164 53.7213 58.8164 53.924V54.348C58.8164 54.444 58.8004 54.524 58.7684 54.588C58.7364 54.6493 58.6844 54.7053 58.6124 54.756C58.543 54.804 58.4404 54.8587 58.3044 54.92L57.7044 55.196C57.5284 55.276 57.4404 55.3933 57.4404 55.548V55.72H58.8164V56H57.0724V55.536ZM60.5866 54.712H61.6986V55H60.5866V54.712ZM64.338 56.04C64.2207 56.04 64.1247 56.036 64.05 56.028C63.978 56.02 63.9007 56.004 63.818 55.98C63.73 55.956 63.6594 55.9213 63.606 55.876C63.5554 55.828 63.5127 55.7613 63.478 55.676C63.4434 55.596 63.426 55.496 63.426 55.376V54.064C63.426 53.944 63.4434 53.8387 63.478 53.748C63.5127 53.6573 63.558 53.5853 63.614 53.532C63.6647 53.4867 63.7314 53.4507 63.814 53.424C63.8994 53.3947 63.9847 53.376 64.07 53.368C64.166 53.3627 64.2554 53.36 64.338 53.36C64.4554 53.36 64.55 53.364 64.622 53.372C64.6967 53.38 64.7754 53.396 64.858 53.42C64.946 53.4467 65.0167 53.484 65.07 53.532C65.126 53.58 65.1714 53.648 65.206 53.736C65.2407 53.824 65.258 53.932 65.258 54.06V55.376C65.258 55.4853 65.2407 55.5827 65.206 55.668C65.1714 55.7533 65.126 55.82 65.07 55.868C65.0167 55.9133 64.9487 55.9507 64.866 55.98C64.7834 56.0067 64.6994 56.0227 64.614 56.028C64.5394 56.036 64.4474 56.04 64.338 56.04ZM64.346 55.804C64.4874 55.804 64.5967 55.7947 64.674 55.776C64.7514 55.7547 64.8074 55.7147 64.842 55.656C64.8767 55.5973 64.894 55.5107 64.894 55.396V54.036C64.894 53.9107 64.8754 53.8173 64.838 53.756C64.8034 53.692 64.7474 53.6493 64.67 53.628C64.5954 53.6067 64.486 53.596 64.342 53.596C64.1954 53.596 64.0834 53.6067 64.006 53.628C63.9314 53.6493 63.8767 53.692 63.842 53.756C63.8074 53.8173 63.79 53.9107 63.79 54.036V55.396C63.79 55.5107 63.8074 55.5973 63.842 55.656C63.8794 55.7147 63.9367 55.7547 64.014 55.776C64.0914 55.7947 64.202 55.804 64.346 55.804ZM65.9903 55.536C65.9903 55.4613 66.0023 55.392 66.0263 55.328C66.053 55.2613 66.0863 55.2053 66.1263 55.16C66.1583 55.1227 66.2063 55.0827 66.2703 55.04C66.337 54.9947 66.3997 54.9573 66.4583 54.928C66.509 54.9013 66.5757 54.8707 66.6583 54.836L67.0903 54.644C67.261 54.5693 67.3463 54.4533 67.3463 54.296V53.94C67.3463 53.8173 67.309 53.736 67.2343 53.696C67.1597 53.6533 67.029 53.632 66.8423 53.632C66.6583 53.632 66.405 53.66 66.0823 53.716V53.436C66.3517 53.3853 66.6303 53.36 66.9183 53.36C67.2063 53.36 67.4143 53.404 67.5423 53.492C67.6703 53.5773 67.7343 53.7213 67.7343 53.924V54.348C67.7343 54.444 67.7183 54.524 67.6863 54.588C67.6543 54.6493 67.6023 54.7053 67.5303 54.756C67.461 54.804 67.3583 54.8587 67.2223 54.92L66.6223 55.196C66.4463 55.276 66.3583 55.3933 66.3583 55.548V55.72H67.7343V56H65.9903V55.536ZM68.5027 55.568H68.9667V56H68.5027V55.568ZM70.7221 53.764L69.9341 54.28V53.952L70.7261 53.404H71.0701V56H70.7221V53.764ZM73.0504 56.04C72.8344 56.04 72.6091 56.0253 72.3744 55.996V55.728C72.6304 55.7733 72.8517 55.796 73.0384 55.796C73.1957 55.796 73.3171 55.7813 73.4024 55.752C73.4904 55.72 73.5531 55.6667 73.5904 55.592C73.6277 55.5173 73.6464 55.4133 73.6464 55.28V54.94H73.0584C72.9251 54.94 72.8251 54.9373 72.7584 54.932C72.6917 54.9267 72.6211 54.916 72.5464 54.9C72.4717 54.884 72.4157 54.8573 72.3784 54.82C72.3437 54.7827 72.3131 54.7293 72.2864 54.66C72.2624 54.5907 72.2504 54.5067 72.2504 54.408V54.024C72.2504 53.736 72.3411 53.5493 72.5224 53.464C72.6104 53.424 72.6984 53.3973 72.7864 53.384C72.8744 53.368 72.9891 53.36 73.1304 53.36C73.2477 53.36 73.3424 53.364 73.4144 53.372C73.4864 53.3773 73.5611 53.392 73.6384 53.416C73.7211 53.4427 73.7864 53.48 73.8344 53.528C73.8824 53.5733 73.9224 53.6373 73.9544 53.72C73.9864 53.8027 74.0024 53.904 74.0024 54.024V55.336C74.0024 55.5893 73.9277 55.7707 73.7784 55.88C73.6291 55.9867 73.3864 56.04 73.0504 56.04ZM73.6464 54.708V54.004C73.6464 53.8867 73.6304 53.8 73.5984 53.744C73.5664 53.6853 73.5144 53.6467 73.4424 53.628C73.3704 53.6067 73.2637 53.596 73.1224 53.596C72.9811 53.596 72.8744 53.6067 72.8024 53.628C72.7331 53.6467 72.6824 53.6853 72.6504 53.744C72.6211 53.8 72.6064 53.8867 72.6064 54.004V54.396C72.6064 54.484 72.6197 54.5507 72.6464 54.596C72.6731 54.6387 72.7224 54.668 72.7944 54.684C72.8664 54.7 72.9771 54.708 73.1264 54.708H73.6464Z" fill="#FFDAB7"/>
<path d="M45.68 49.36H44.04L43.64 50.72L44.16 50.92V51H42.96V50.92L43.48 50.72L45.04 45.28H45.16L46.84 50.8L47.32 50.92V51H45.64V50.92L46.12 50.8L45.68 49.36ZM44.08 49.208H45.632L44.832 46.56L44.08 49.208ZM51.48 48.2C51.48 48.648 51.432 49.048 51.336 49.4C51.24 49.7467 51.112 50.0427 50.952 50.288C50.7973 50.5333 50.6187 50.7253 50.416 50.864C50.2133 51.0027 50.008 51.088 49.8 51.12C49.9013 51.1787 49.992 51.2587 50.072 51.36C50.152 51.4667 50.224 51.5707 50.288 51.672C50.3573 51.7733 50.4187 51.8587 50.472 51.928C50.5307 52.0027 50.5867 52.04 50.64 52.04C50.6987 52.04 50.7467 52.0133 50.784 51.96C50.8213 51.912 50.84 51.8187 50.84 51.68C50.84 51.568 50.824 51.472 50.792 51.392C50.76 51.3173 50.7227 51.2533 50.68 51.2C50.6373 51.152 50.5947 51.1147 50.552 51.088C50.5147 51.0613 50.4907 51.0453 50.48 51.04L51.16 51C51.1973 51.0373 51.2293 51.0827 51.256 51.136C51.2827 51.1787 51.3067 51.2293 51.328 51.288C51.3493 51.3467 51.36 51.4107 51.36 51.48C51.36 51.56 51.3387 51.64 51.296 51.72C51.2533 51.8 51.1947 51.872 51.12 51.936C51.0507 52.0053 50.968 52.0587 50.872 52.096C50.776 52.1387 50.672 52.16 50.56 52.16C50.3307 52.16 50.1467 52.1173 50.008 52.032C49.8693 51.952 49.752 51.8613 49.656 51.76C49.56 51.6587 49.4693 51.5653 49.384 51.48C49.2987 51.4 49.1973 51.36 49.08 51.36C49.0267 51.36 48.9787 51.368 48.936 51.384C48.8933 51.4 48.856 51.4187 48.824 51.44C48.7867 51.4613 48.752 51.488 48.72 51.52L48.64 51.44C48.72 51.3387 48.8213 51.2533 48.944 51.184C49.0667 51.1147 49.1787 51.08 49.28 51.08C49.0773 51.032 48.8827 50.936 48.696 50.792C48.5093 50.6427 48.344 50.448 48.2 50.208C48.056 49.968 47.9387 49.6827 47.848 49.352C47.7627 49.016 47.72 48.632 47.72 48.2C47.72 47.7093 47.7733 47.2827 47.88 46.92C47.992 46.552 48.136 46.248 48.312 46.008C48.4933 45.7627 48.696 45.5813 48.92 45.464C49.144 45.3413 49.3707 45.28 49.6 45.28C49.8293 45.28 50.056 45.3413 50.28 45.464C50.504 45.5813 50.704 45.7627 50.88 46.008C51.0613 46.248 51.2053 46.552 51.312 46.92C51.424 47.2827 51.48 47.7093 51.48 48.2ZM50.72 48.2C50.72 47.6507 50.6853 47.1973 50.616 46.84C50.552 46.4773 50.464 46.1893 50.352 45.976C50.2453 45.7627 50.1253 45.6133 49.992 45.528C49.8587 45.4427 49.728 45.4 49.6 45.4C49.472 45.4 49.3413 45.4427 49.208 45.528C49.0747 45.6133 48.952 45.7627 48.84 45.976C48.7333 46.1893 48.6453 46.4773 48.576 46.84C48.512 47.1973 48.48 47.6507 48.48 48.2C48.48 48.7493 48.512 49.2053 48.576 49.568C48.6453 49.9253 48.7333 50.2107 48.84 50.424C48.952 50.6373 49.0747 50.7867 49.208 50.872C49.3413 50.9573 49.472 51 49.6 51C49.728 51 49.8587 50.9573 49.992 50.872C50.1253 50.7867 50.2453 50.6373 50.352 50.424C50.464 50.2107 50.552 49.9253 50.616 49.568C50.6853 49.2053 50.72 48.7493 50.72 48.2ZM56.0784 49.4C56.0784 50.0027 55.9531 50.44 55.7024 50.712C55.4571 50.984 55.1024 51.12 54.6384 51.12C54.0944 51.12 53.6704 50.9707 53.3664 50.672C53.0678 50.368 52.9184 49.944 52.9184 49.4V45.6L52.4384 45.48V45.4H54.0784V45.48L53.5984 45.6V49.4C53.5984 49.9387 53.7051 50.3333 53.9184 50.584C54.1318 50.8347 54.3984 50.96 54.7184 50.96C54.8998 50.96 55.0624 50.9307 55.2064 50.872C55.3558 50.808 55.4811 50.712 55.5824 50.584C55.6891 50.456 55.7718 50.296 55.8304 50.104C55.8891 49.9067 55.9184 49.672 55.9184 49.4V45.68L55.3984 45.48V45.4H56.5984V45.48L56.0784 45.68V49.4ZM59.5206 49.36H57.8806L57.4806 50.72L58.0006 50.92V51H56.8006V50.92L57.3206 50.72L58.8806 45.28H59.0006L60.6806 50.8L61.1606 50.92V51H59.4806V50.92L59.9606 50.8L59.5206 49.36ZM57.9206 49.208H59.4726L58.6726 46.56L57.9206 49.208ZM63.2369 45.4C63.5782 45.4 63.8742 45.4373 64.1249 45.512C64.3755 45.5867 64.5835 45.688 64.7489 45.816C64.9142 45.944 65.0369 46.0933 65.1169 46.264C65.1969 46.4293 65.2369 46.608 65.2369 46.8C65.2369 46.9547 65.2129 47.0933 65.1649 47.216C65.1222 47.3333 65.0635 47.44 64.9889 47.536C64.9195 47.6267 64.8369 47.704 64.7409 47.768C64.6449 47.832 64.5489 47.8853 64.4529 47.928C64.2235 48.0293 63.9649 48.0933 63.6769 48.12C63.9115 48.1467 64.1249 48.2027 64.3169 48.288C64.4822 48.3627 64.6369 48.472 64.7809 48.616C64.9249 48.76 65.0102 48.9547 65.0369 49.2L65.1969 50.6C65.2075 50.7013 65.2315 50.7733 65.2689 50.816C65.3062 50.8587 65.3489 50.88 65.3969 50.88C65.4235 50.88 65.4502 50.872 65.4769 50.856C65.5089 50.8347 65.5382 50.8107 65.5649 50.784C65.5915 50.7573 65.6155 50.7227 65.6369 50.68L65.7169 50.76C65.6849 50.8293 65.6395 50.8907 65.5809 50.944C65.5329 50.9867 65.4689 51.0267 65.3889 51.064C65.3142 51.1013 65.2235 51.12 65.1169 51.12C64.9355 51.12 64.7862 51.0693 64.6689 50.968C64.5569 50.8613 64.4929 50.7387 64.4769 50.6L64.3169 49.2C64.2955 49.0187 64.2609 48.8667 64.2129 48.744C64.1649 48.616 64.0982 48.512 64.0129 48.432C63.9329 48.352 63.8289 48.2933 63.7009 48.256C63.5729 48.2187 63.4182 48.2 63.2369 48.2H62.9169V50.8L63.3969 50.92V51H61.7569V50.92L62.2369 50.8V45.6L61.7569 45.48V45.4H63.2369ZM64.4769 46.8C64.4769 46.4 64.3702 46.0933 64.1569 45.88C63.9435 45.6667 63.6369 45.56 63.2369 45.56H62.9169V48.04H63.2369C63.6369 48.04 63.9435 47.9333 64.1569 47.72C64.3702 47.5067 64.4769 47.2 64.4769 46.8ZM67.7153 50.8L68.1953 50.92V51H66.5553V50.92L67.0353 50.8V45.6L66.5553 45.48V45.4H68.1953V45.48L67.7153 45.6V50.8ZM72.8347 49.4C72.8347 50.0027 72.7094 50.44 72.4587 50.712C72.2134 50.984 71.8587 51.12 71.3947 51.12C70.8507 51.12 70.4267 50.9707 70.1227 50.672C69.824 50.368 69.6747 49.944 69.6747 49.4V45.6L69.1947 45.48V45.4H70.8347V45.48L70.3547 45.6V49.4C70.3547 49.9387 70.4614 50.3333 70.6747 50.584C70.888 50.8347 71.1547 50.96 71.4747 50.96C71.656 50.96 71.8187 50.9307 71.9627 50.872C72.112 50.808 72.2374 50.712 72.3387 50.584C72.4454 50.456 72.528 50.296 72.5867 50.104C72.6454 49.9067 72.6747 49.672 72.6747 49.4V45.68L72.1547 45.48V45.4H73.3547V45.48L72.8347 45.68V49.4ZM74.7191 46.44C74.7191 46.6587 74.7831 46.848 74.9111 47.008C75.0391 47.1627 75.1991 47.3067 75.3911 47.44C75.5831 47.5733 75.7911 47.704 76.0151 47.832C76.2444 47.96 76.4551 48.1067 76.6471 48.272C76.8391 48.432 76.9991 48.6213 77.1271 48.84C77.2551 49.0587 77.3191 49.3253 77.3191 49.64C77.3191 49.848 77.2817 50.0427 77.2071 50.224C77.1324 50.4053 77.0257 50.5627 76.8871 50.696C76.7537 50.8293 76.5937 50.9333 76.4071 51.008C76.2204 51.0827 76.0177 51.12 75.7991 51.12C75.5964 51.12 75.4231 51.0987 75.2791 51.056C75.1351 51.0187 75.0151 50.9733 74.9191 50.92C74.8071 50.8613 74.7137 50.7947 74.6391 50.72C74.5964 50.8 74.5377 50.8747 74.4631 50.944C74.3937 51.0133 74.3191 51.0587 74.2391 51.08H74.1191C74.1244 51.0053 74.1297 50.9253 74.1351 50.84C74.1404 50.7707 74.1457 50.6933 74.1511 50.608C74.1564 50.5227 74.1591 50.44 74.1591 50.36C74.1591 50.2693 74.1564 50.1813 74.1511 50.096C74.1457 50.0053 74.1404 49.9227 74.1351 49.848C74.1297 49.7627 74.1244 49.68 74.1191 49.6H74.2391C74.3617 50.0427 74.5377 50.3813 74.7671 50.616C75.0017 50.8453 75.3191 50.96 75.7191 50.96C76.0391 50.96 76.2977 50.8587 76.4951 50.656C76.6977 50.448 76.7991 50.1627 76.7991 49.8C76.7991 49.5813 76.7351 49.3947 76.6071 49.24C76.4791 49.08 76.3191 48.9333 76.1271 48.8C75.9351 48.6667 75.7244 48.536 75.4951 48.408C75.2711 48.28 75.0631 48.136 74.8711 47.976C74.6791 47.8107 74.5191 47.6187 74.3911 47.4C74.2631 47.1813 74.1991 46.9147 74.1991 46.6C74.1991 46.4187 74.2337 46.248 74.3031 46.088C74.3724 45.928 74.4684 45.7893 74.5911 45.672C74.7137 45.5493 74.8577 45.4533 75.0231 45.384C75.1884 45.3147 75.3671 45.28 75.5591 45.28C75.7191 45.28 75.8604 45.3013 75.9831 45.344C76.1057 45.3867 76.2097 45.432 76.2951 45.48C76.3911 45.5387 76.4791 45.6053 76.5591 45.68C76.6017 45.6 76.6577 45.5253 76.7271 45.456C76.8017 45.3867 76.8791 45.3413 76.9591 45.32H77.0791C77.0684 45.4 77.0604 45.48 77.0551 45.56C77.0497 45.6347 77.0444 45.7147 77.0391 45.8C77.0391 45.88 77.0391 45.96 77.0391 46.04C77.0391 46.1307 77.0391 46.2213 77.0391 46.312C77.0444 46.3973 77.0497 46.4773 77.0551 46.552C77.0604 46.6373 77.0684 46.72 77.0791 46.8H76.9591C76.8364 46.3573 76.6657 46.0213 76.4471 45.792C76.2284 45.5573 75.9591 45.44 75.6391 45.44C75.3777 45.44 75.1591 45.5307 74.9831 45.712C74.8071 45.8933 74.7191 46.136 74.7191 46.44Z" fill="#FFDAB7"/>
<g filter="url(#filter1_d)">
<path d="M55.9774 25.6364L51.9831 23.2299L53.4211 28.6845L55.4981 31.2513L55.9774 25.6364Z" fill="url(#paint0_linear)" fill-opacity="0.75"/>
<path d="M59.8212 27.2847L55.9774 25.6364L61.25 31.893L59.8212 27.2847Z" fill="url(#paint1_linear)" fill-opacity="0.75"/>
<path d="M55.4981 31.2513L57.5752 33.9786L62.688 36.2246L61.25 31.893L55.4981 31.2513Z" fill="url(#paint2_linear)" fill-opacity="0.75"/>
<path d="M65.2444 22.4278L55.9774 14.8877L59.8212 27.2847L71.3158 32.2139L65.2444 22.4278Z" fill="url(#paint3_linear)" fill-opacity="0.75"/>
<path d="M69.8778 12L55.9774 14.8877L67.5834 17.1638L69.8778 12Z" fill="url(#paint4_linear)" fill-opacity="0.75"/>
<path d="M65.2444 22.4278L70.5016 20.7688L70.2828 17.6931L67.5834 17.1638L65.2444 22.4278Z" fill="url(#paint5_linear)" fill-opacity="0.75"/>
<path d="M76.4286 18.8984L69.8778 12L70.2828 17.6931L76.4286 18.8984Z" fill="url(#paint6_linear)" fill-opacity="0.75"/>
<path d="M71.3158 32.2139L76.4286 18.8984L70.5016 20.7688L71.3158 32.2139Z" fill="url(#paint7_linear)" fill-opacity="0.75"/>
<path d="M52.782 39.5936L53.9004 35.9037L57.5752 33.9786L50.7049 34.2995L52.782 39.5936Z" fill="url(#paint8_linear)" fill-opacity="0.75"/>
<path d="M53.4211 28.6845L47.8289 32.2139L47.5094 36.5455L50.7049 34.2995L53.4211 28.6845Z" fill="url(#paint9_linear)" fill-opacity="0.75"/>
<path d="M49.5865 38.7914L50.7049 34.2995L47.5094 36.5455L45.7519 41.8396L49.5865 38.7914Z" fill="url(#paint10_linear)" fill-opacity="0.75"/>
<path d="M42.5564 37.8289L40 42L45.7519 41.8396L42.5564 37.8289Z" fill="url(#paint11_linear)" fill-opacity="0.75"/>
<path d="M45.7519 41.8396L51.0244 42L52.782 39.5936L45.7519 41.8396Z" fill="url(#paint12_linear)" fill-opacity="0.75"/>
<path d="M69.8778 12L55.9774 14.8877M69.8778 12L76.4286 18.8984M69.8778 12L67.5834 17.1638M69.8778 12L70.2828 17.6931M55.9774 14.8877V25.6364M55.9774 14.8877L65.2444 22.4278M55.9774 14.8877L59.8212 27.2847M55.9774 14.8877L67.5834 17.1638M55.9774 25.6364L61.25 31.893M55.9774 25.6364L51.9831 23.2299L53.4211 28.6845M55.9774 25.6364L55.4981 31.2513M55.9774 25.6364L59.8212 27.2847M71.3158 32.2139L76.4286 18.8984M71.3158 32.2139L61.25 31.893M71.3158 32.2139L65.2444 22.4278M71.3158 32.2139L59.8212 27.2847M71.3158 32.2139L70.5016 20.7688M76.4286 18.8984L70.2828 17.6931M76.4286 18.8984L70.5016 20.7688M65.2444 22.4278L67.5834 17.1638M65.2444 22.4278L70.5016 20.7688M61.25 31.893L62.688 36.2246L57.5752 33.9786M61.25 31.893L55.4981 31.2513M61.25 31.893L59.8212 27.2847M53.4211 28.6845L55.4981 31.2513M53.4211 28.6845L47.8289 32.2139L47.5094 36.5455M53.4211 28.6845L50.7049 34.2995M55.4981 31.2513L57.5752 33.9786M57.5752 33.9786L53.9004 35.9037L52.782 39.5936M57.5752 33.9786L50.7049 34.2995M47.5094 36.5455L42.5564 37.8289M47.5094 36.5455L45.7519 41.8396M47.5094 36.5455L50.7049 34.2995M42.5564 37.8289L40 42L45.7519 41.8396M42.5564 37.8289L45.7519 41.8396M45.7519 41.8396L51.0244 42L52.782 39.5936M45.7519 41.8396L49.5865 38.7914L50.7049 34.2995M45.7519 41.8396L52.782 39.5936M52.782 39.5936L50.7049 34.2995M67.5834 17.1638L70.2828 17.6931M70.5016 20.7688L70.2828 17.6931" stroke="#FFDAB7" stroke-width="0.5"/>
</g>
<defs>
<filter id="filter0_d" x="18.9988" y="73" width="81.4933" height="57.9522" filterUnits="userSpaceOnUse" color-interpolation-filters="sRGB">
<feFlood flood-opacity="0" result="BackgroundImageFix"/>
<feColorMatrix in="SourceAlpha" type="matrix" values="0 0 0 0 0 0 0 0 0 0 0 0 0 0 0 0 0 0 127 0"/>
<feOffset/>
<feGaussianBlur stdDeviation="2"/>
<feColorMatrix type="matrix" values="0 0 0 0 0.796078 0 0 0 0 0.909804 0 0 0 0 1 0 0 0 1 0"/>
<feBlend mode="normal" in2="BackgroundImageFix" result="effect1_dropShadow"/>
<feBlend mode="normal" in="SourceGraphic" in2="effect1_dropShadow" result="shape"/>
</filter>
<filter id="filter1_d" x="35.5457" y="7.72691" width="45.1728" height="38.5359" filterUnits="userSpaceOnUse" color-interpolation-filters="sRGB">
<feFlood flood-opacity="0" result="BackgroundImageFix"/>
<feColorMatrix in="SourceAlpha" type="matrix" values="0 0 0 0 0 0 0 0 0 0 0 0 0 0 0 0 0 0 127 0"/>
<feOffset/>
<feGaussianBlur stdDeviation="2"/>
<feColorMatrix type="matrix" values="0 0 0 0 0.74902 0 0 0 0 0.74902 0 0 0 0 0.74902 0 0 0 1 0"/>
<feBlend mode="normal" in2="BackgroundImageFix" result="effect1_dropShadow"/>
<feBlend mode="normal" in="SourceGraphic" in2="effect1_dropShadow" result="shape"/>
</filter>
<linearGradient id="paint0_linear" x1="75.3777" y1="14.1429" x2="41.1866" y2="43.4848" gradientUnits="userSpaceOnUse">
<stop stop-color="#696969"/>
<stop offset="0.49132" stop-color="#BFBFBF"/>
<stop offset="1" stop-color="#696969"/>
</linearGradient>
<linearGradient id="paint1_linear" x1="75.3777" y1="14.1429" x2="41.1866" y2="43.4848" gradientUnits="userSpaceOnUse">
<stop stop-color="#696969"/>
<stop offset="0.49132" stop-color="#BFBFBF"/>
<stop offset="1" stop-color="#696969"/>
</linearGradient>
<linearGradient id="paint2_linear" x1="75.3777" y1="14.1429" x2="41.1866" y2="43.4848" gradientUnits="userSpaceOnUse">
<stop stop-color="#696969"/>
<stop offset="0.49132" stop-color="#BFBFBF"/>
<stop offset="1" stop-color="#696969"/>
</linearGradient>
<linearGradient id="paint3_linear" x1="75.3777" y1="14.1429" x2="41.1866" y2="43.4848" gradientUnits="userSpaceOnUse">
<stop stop-color="#696969"/>
<stop offset="0.49132" stop-color="#BFBFBF"/>
<stop offset="1" stop-color="#696969"/>
</linearGradient>
<linearGradient id="paint4_linear" x1="75.3777" y1="14.1429" x2="41.1866" y2="43.4848" gradientUnits="userSpaceOnUse">
<stop stop-color="#696969"/>
<stop offset="0.49132" stop-color="#BFBFBF"/>
<stop offset="1" stop-color="#696969"/>
</linearGradient>
<linearGradient id="paint5_linear" x1="75.3777" y1="14.1429" x2="41.1866" y2="43.4848" gradientUnits="userSpaceOnUse">
<stop stop-color="#696969"/>
<stop offset="0.49132" stop-color="#BFBFBF"/>
<stop offset="1" stop-color="#696969"/>
</linearGradient>
<linearGradient id="paint6_linear" x1="75.3777" y1="14.1429" x2="41.1866" y2="43.4848" gradientUnits="userSpaceOnUse">
<stop stop-color="#696969"/>
<stop offset="0.49132" stop-color="#BFBFBF"/>
<stop offset="1" stop-color="#696969"/>
</linearGradient>
<linearGradient id="paint7_linear" x1="75.3777" y1="14.1429" x2="41.1866" y2="43.4848" gradientUnits="userSpaceOnUse">
<stop stop-color="#696969"/>
<stop offset="0.49132" stop-color="#BFBFBF"/>
<stop offset="1" stop-color="#696969"/>
</linearGradient>
<linearGradient id="paint8_linear" x1="75.3777" y1="14.1429" x2="41.1866" y2="43.4848" gradientUnits="userSpaceOnUse">
<stop stop-color="#696969"/>
<stop offset="0.49132" stop-color="#BFBFBF"/>
<stop offset="1" stop-color="#696969"/>
</linearGradient>
<linearGradient id="paint9_linear" x1="75.3777" y1="14.1429" x2="41.1866" y2="43.4848" gradientUnits="userSpaceOnUse">
<stop stop-color="#696969"/>
<stop offset="0.49132" stop-color="#BFBFBF"/>
<stop offset="1" stop-color="#696969"/>
</linearGradient>
<linearGradient id="paint10_linear" x1="75.3777" y1="14.1429" x2="41.1866" y2="43.4848" gradientUnits="userSpaceOnUse">
<stop stop-color="#696969"/>
<stop offset="0.49132" stop-color="#BFBFBF"/>
<stop offset="1" stop-color="#696969"/>
</linearGradient>
<linearGradient id="paint11_linear" x1="75.3777" y1="14.1429" x2="41.1866" y2="43.4848" gradientUnits="userSpaceOnUse">
<stop stop-color="#696969"/>
<stop offset="0.49132" stop-color="#BFBFBF"/>
<stop offset="1" stop-color="#696969"/>
</linearGradient>
<linearGradient id="paint12_linear" x1="75.3777" y1="14.1429" x2="41.1866" y2="43.4848" gradientUnits="userSpaceOnUse">
<stop stop-color="#696969"/>
<stop offset="0.49132" stop-color="#BFBFBF"/>
<stop offset="1" stop-color="#696969"/>
</linearGradient>
</defs>
</svg>

