<svg width="250" height="334" viewBox="0 0 250 334" fill="none" xmlns="http://www.w3.org/2000/svg">
<g clip-path="url(#clip0)">
<rect width="250" height="333.333" fill="white"/>
<path d="M18.7664 69.7845L-85.0366 -17.7318V-11.2564L18.7664 69.7845Z" fill="#3A86E4" fill-opacity="0.8"/>
<path d="M-83.663 13.468L-45.9878 39.5659L-83.663 17.1963V13.468Z" fill="#3A86E4" fill-opacity="0.8"/>
<path d="M-83.1659 21.6679L-34.2208 55.8007L-83.1659 26.084V21.6679Z" fill="#3A86E4" fill-opacity="0.8"/>
<path d="M-83.663 -0.320576L-50.7812 25.164L-83.1659 3.63551L-83.663 -0.320576Z" fill="#3A86E4" fill-opacity="0.8"/>
<path d="M-82.43 77.1638V71.6548L12.7965 111.679L-82.43 77.1638Z" fill="#3A86E4" fill-opacity="0.8"/>
<path d="M-81.8679 86.4953V81.4361L12.7965 116.851L-81.8679 86.4953Z" fill="#3A86E4" fill-opacity="0.8"/>
<path d="M-8.22756 135.064L-81.3057 120.224V124.721L-8.22756 135.064Z" fill="#3A86E4" fill-opacity="0.8"/>
<path d="M-81.3057 114.602V110.555L-36.7843 122.697L-81.3057 114.602Z" fill="#3A86E4" fill-opacity="0.8"/>
<path d="M-82.43 141.922V138.1L-11.8253 146.307L-82.43 141.922Z" fill="#3A86E4" fill-opacity="0.8"/>
<path d="M-84.5661 174.414V170.704L-12.6123 168.006L-84.5661 174.414Z" fill="#3A86E4" fill-opacity="0.8"/>
<path d="M-84.5661 181.947V179.698L-45.3288 176.1L-84.5661 181.947Z" fill="#3A86E4" fill-opacity="0.8"/>
<path d="M-84.5661 185.882V183.521L-70.1754 181.947L-84.5661 185.882Z" fill="#3A86E4" fill-opacity="0.8"/>
<path d="M-84.5661 199.373V196.9L-61.9681 194.314L-84.5661 199.373Z" fill="#3A86E4" fill-opacity="0.8"/>
<path d="M-83.5543 205.557L-84.5661 202.296L-33.299 192.627L-83.5543 205.557Z" fill="#3A86E4" fill-opacity="0.8"/>
<path d="M-82.6549 215.675V211.29L-18.9082 195.775L-82.6549 215.675Z" fill="#3A86E4" fill-opacity="0.8"/>
<path d="M-81.7554 220.959V218.036L-44.6542 207.58L-81.7554 220.959Z" fill="#3A86E4" fill-opacity="0.8"/>
<path d="M-53.9857 219.498L-84.1164 229.054V231.19L-53.9857 219.498Z" fill="#3A86E4" fill-opacity="0.8"/>
<path d="M-82.6549 237.036L-9.91399 209.716L-81.7554 239.847L-82.6549 237.036Z" fill="#3A86E4" fill-opacity="0.8"/>
<path d="M-83.5543 254.35L4.81407 212.19L-84.1164 247.717L-83.5543 254.35Z" fill="#3A86E4" fill-opacity="0.8"/>
<path d="M-81.7554 268.629L11.11 220.172L-80.2939 274.25L-81.7554 268.629Z" fill="#3A86E4" fill-opacity="0.8"/>
<path d="M-84.1164 279.647L-50.7253 262.22L-82.7673 282.008L-84.1164 279.647Z" fill="#3A86E4" fill-opacity="0.8"/>
<path d="M-83.5543 283.469L-11.1507 241.084L-81.7554 289.315L-83.5543 283.469Z" fill="#3A86E4" fill-opacity="0.8"/>
<path d="M-82.7673 298.197L-83.5543 291.564L7.84963 235.687L-82.7673 298.197Z" fill="#3A86E4" fill-opacity="0.8"/>
<path d="M-58.7556 302.863L0.654243 258.285L-80.2939 325.405L-81.7554 320.121L-81.0374 319.582L-85.0159 318.434L-80.5736 315.257L-82.7673 312.251L-23.4053 268.629L-66.5382 305.218L-34.086 282.008L-58.7556 302.863Z" fill="#3A86E4" fill-opacity="0.8"/>
<path d="M-84.1164 353.624L7.62477 270.315L-82.7673 362.731L-84.1164 353.624Z" fill="#3A86E4" fill-opacity="0.8"/>
<path d="M-52.6595 375.307L55.068 249.527L-40.886 373.148L-52.6595 375.307Z" fill="#3A86E4" fill-opacity="0.8"/>
<path d="M-26.1691 378.446L33.0908 295.247L-16.7503 379.624L-26.1691 378.446Z" fill="#3A86E4" fill-opacity="0.8"/>
<path d="M-30.0936 373.148L18.5702 310.945L-23.4053 373.148H-30.0936Z" fill="#3A86E4" fill-opacity="0.8"/>
<path d="M-8.11641 373.148L45.0606 291.564L2.28352 375.307L-8.11641 373.148Z" fill="#3A86E4" fill-opacity="0.8"/>
<path d="M10.9174 375.307L31.7173 339.594L15.4306 375.307H10.9174Z" fill="#3A86E4" fill-opacity="0.8"/>
<path d="M27.2041 375.307L43.2945 345.873L31.7173 376.484L27.2041 375.307Z" fill="#3A86E4" fill-opacity="0.8"/>
<path d="M35.838 375.307L78.4188 277.194L43.2945 375.307H35.838Z" fill="#3A86E4" fill-opacity="0.8"/>
<path d="M56.9185 376.484L77.0654 319.639L63.6341 375.307L56.9185 376.484Z" fill="#3A86E4" fill-opacity="0.8"/>
<path d="M69.8461 377.562L97.0445 280.353L74.8828 376.484L69.8461 377.562Z" fill="#3A86E4" fill-opacity="0.8"/>
<path d="M124.075 375.307L125.754 319.639L128.104 375.307H124.075Z" fill="#3A86E4" fill-opacity="0.8"/>
<path d="M134.82 375.307L133.981 293.952L140.192 375.307H134.82Z" fill="#3A86E4" fill-opacity="0.8"/>
<path d="M151.945 375.307L145.061 301.843L157.149 375.307H151.945Z" fill="#3A86E4" fill-opacity="0.8"/>
<path d="M159.5 374.036L154.799 338.779L162.69 375.307L159.5 374.036Z" fill="#3A86E4" fill-opacity="0.8"/>
<path d="M178.975 375.307L159.5 299.828L183.173 375.307H178.975Z" fill="#3A86E4" fill-opacity="0.8"/>
<path d="M201.137 374.036L194.253 350.363L203.152 374.036H201.137Z" fill="#3A86E4" fill-opacity="0.8"/>
<path d="M232.701 376.386L190.224 292.441L227.496 376.386H232.701Z" fill="#3A86E4" fill-opacity="0.8"/>
<path d="M242.942 375.307L223.802 335.421L245.46 374.036L242.942 375.307Z" fill="#3A86E4" fill-opacity="0.8"/>
<path d="M273.162 375.307L232.701 319.639L268.629 376.386L273.162 375.307Z" fill="#3A86E4" fill-opacity="0.8"/>
<path d="M283.068 376.386L194.253 247.614L290.287 374.036L283.068 376.386Z" fill="#3A86E4" fill-opacity="0.8"/>
<path d="M306.405 375.307L207.853 248.957L318.661 372.525L306.405 375.307Z" fill="#3A86E4" fill-opacity="0.8"/>
<path d="M333.603 337.268L239.584 252.986L333.603 327.026V337.268Z" fill="#3A86E4" fill-opacity="0.8"/>
<path d="M332.932 302.85L245.796 242.745L332.932 309.901V302.85Z" fill="#3A86E4" fill-opacity="0.8"/>
<path d="M334.61 252.986L237.066 209.335L331.253 257.016L334.61 252.986Z" fill="#3A86E4" fill-opacity="0.8"/>
<path d="M336.121 241.066L257.548 212.021L334.61 247.446L336.121 241.066Z" fill="#3A86E4" fill-opacity="0.8"/>
<path d="M334.61 205.641L257.548 189.356L334.61 210.678V205.641Z" fill="#3A86E4" fill-opacity="0.8"/>
<path d="M334.61 189.356L263.928 180.793L334.61 195.4V189.356Z" fill="#3A86E4" fill-opacity="0.8"/>
<path d="M337.632 151.58L253.015 153.763L336.121 154.938L337.632 151.58Z" fill="#3A86E4" fill-opacity="0.8"/>
<path d="M334.61 162.661H284.075L332.428 159.135L334.61 162.661Z" fill="#3A86E4" fill-opacity="0.8"/>
<path d="M337.632 114.14L245.46 131.601L336.121 119.513L337.632 114.14Z" fill="#3A86E4" fill-opacity="0.8"/>
<path d="M334.61 111.622V108.936L293.813 119.513L334.61 111.622Z" fill="#3A86E4" fill-opacity="0.8"/>
<path d="M332.775 99.1337V95.8216L286.038 110.174L332.775 99.1337Z" fill="#3A86E4" fill-opacity="0.8"/>
<path d="M331.579 81.643V84.1373L289.442 97.9376L314.729 87.7236L250.986 110.726L333.971 76.2251L334.61 80.5492L331.579 81.643Z" fill="#3A86E4" fill-opacity="0.8"/>
<path d="M332.775 57.3647V51.2926L279.138 80.5492L332.775 57.3647Z" fill="#3A86E4" fill-opacity="0.8"/>
<path d="M332.775 41.8164V39.7923L313.731 50.1886L332.775 41.8164Z" fill="#3A86E4" fill-opacity="0.8"/>
<path d="M333.235 35.3762V31.5121L236.541 91.9575L333.235 35.3762Z" fill="#3A86E4" fill-opacity="0.8"/>
<path d="M332.223 24.796L331.579 20.3799L259.726 69.969L332.223 24.796Z" fill="#3A86E4" fill-opacity="0.8"/>
<path d="M333.235 4.83154L332.775 1.33546L292.57 31.5121L333.235 4.83154Z" fill="#3A86E4" fill-opacity="0.8"/>
<path d="M333.235 6.67158L332.223 11.3637L331.114 12.1241L331.579 15.7798L286.222 45.1284L312.774 24.6958L266.994 56.0767L333.235 6.67158Z" fill="#3A86E4" fill-opacity="0.8"/>
<path d="M333.235 -29.4852V-34.6373L232.861 61.4128L333.235 -29.4852Z" fill="#3A86E4" fill-opacity="0.8"/>
<path d="M308.395 -41.0775H299.287L270.306 -0.872589L308.395 -41.0775Z" fill="#3A86E4" fill-opacity="0.8"/>
<path d="M292.202 -41.0775H286.866L225.041 39.6083L292.202 -41.0775Z" fill="#3A86E4" fill-opacity="0.8"/>
<path d="M283.278 -40.3415L277.482 -41.0775L224.489 31.5121L283.278 -40.3415Z" fill="#3A86E4" fill-opacity="0.8"/>
<path d="M275.458 -40.3415H266.994L215.013 36.0202L275.458 -40.3415Z" fill="#3A86E4" fill-opacity="0.8"/>
<path d="M256.322 -41.0775H250.986L215.105 20.7479L256.322 -41.0775Z" fill="#3A86E4" fill-opacity="0.8"/>
<path d="M223.569 -40.3415C221.146 -40.5868 216.227 -41.0775 215.933 -41.0775L181.432 41.5404L223.569 -40.3415Z" fill="#3A86E4" fill-opacity="0.8"/>
<path d="M208.389 -40.3415H203.972L176.832 30.5001L208.389 -40.3415Z" fill="#3A86E4" fill-opacity="0.8"/>
<path d="M202.04 -39.4214H198.452L179.132 18.6318L202.04 -39.4214Z" fill="#3A86E4" fill-opacity="0.8"/>
<path d="M181.8 -40.3415H177.844L167.356 3.81952L181.8 -40.3415Z" fill="#3A86E4" fill-opacity="0.8"/>
<path d="M175.084 -40.3415H171.404L153.923 43.4724L175.084 -40.3415Z" fill="#3A86E4" fill-opacity="0.8"/>
<path d="M170.576 -40.3415H168.92L165.7 -19.549L170.576 -40.3415Z" fill="#3A86E4" fill-opacity="0.8"/>
<path d="M153.831 -40.3415H147.759L139.847 48.2565L153.831 -40.3415Z" fill="#3A86E4" fill-opacity="0.8"/>
<path d="M94.0922 -43.946H88.8072L99.7459 3.00426L94.0922 -43.946Z" fill="#3A86E4" fill-opacity="0.8"/>
<path d="M79.2205 -43.946L97.1649 35.3287L74.3043 -43.946H79.2205Z" fill="#3A86E4" fill-opacity="0.8"/>
<path d="M72.2149 -42.717H68.8964C72.3378 -31.8602 79.2205 -10.2696 79.2205 -10.7613C79.2205 -11.2529 74.5501 -32.2699 72.2149 -42.717Z" fill="#3A86E4" fill-opacity="0.8"/>
<path d="M54.0247 -41.6108H50.4604L81.9245 36.4349L54.0247 -41.6108Z" fill="#3A86E4" fill-opacity="0.8"/>
<path d="M16.4153 -41.6108L24.65 -42.717L66.6841 47.0048L34.2419 -10.1853L61.0304 44.9154L22.5407 -20.0537L46.1587 26.3565L4.00171 -41.6108L11.0074 -42.717L12.6336 -39.5214H17.6005L16.4153 -41.6108Z" fill="#3A86E4" fill-opacity="0.8"/>
<path d="M-12.8365 -42.717L-19.7193 -41.6108L60.0471 68.0218L-12.8365 -42.717Z" fill="#3A86E4" fill-opacity="0.8"/>
<path d="M-21.4399 -40.7505L-28.3227 -39.5214L49.4771 56.7144L-21.4399 -40.7505Z" fill="#3A86E4" fill-opacity="0.8"/>
<path d="M-58.3966 -44.8319L9.63814 33.7997L-64.8468 -42.3746L-58.3966 -44.8319Z" fill="#3164E1" fill-opacity="0.8"/>
<path d="M-70.222 -44.8319L29.7568 61.9044L-78.3616 -41.6068L-70.222 -44.8319Z" fill="#3164E1" fill-opacity="0.8"/>
<path d="M-84.044 -40.8389L29.7568 69.7368L-85.2726 -29.167L-84.044 -40.8389Z" fill="#3164E1" fill-opacity="0.8"/>
<path d="M-82.8153 -5.82325L20.0815 73.4227L-82.8153 2.31635V-5.82325Z" fill="#3164E1" fill-opacity="0.8"/>
<path d="M-86.5012 33.7997L20.0815 98.1486L-86.5012 40.25V33.7997Z" fill="#3164E1" fill-opacity="0.8"/>
<path d="M-86.5012 65.7438L-19.2343 96.4592L-86.5012 71.4262V65.7438Z" fill="#3164E1" fill-opacity="0.8"/>
<path d="M-84.5047 60.215L-56.5536 74.4977L-84.5047 63.2866V60.215Z" fill="#3164E1" fill-opacity="0.8"/>
<path d="M-85.2726 92.927L-49.0283 104.445L-85.2726 96.4592V92.927Z" fill="#3164E1" fill-opacity="0.8"/>
<path d="M-83.2761 112.431L-49.7962 120.724L-83.2761 115.656V112.431Z" fill="#3164E1" fill-opacity="0.8"/>
<path d="M-83.2761 123.335L-47.4926 131.168L-82.0475 127.021L-83.2761 123.335Z" fill="#3164E1" fill-opacity="0.8"/>
<path d="M-85.4262 145.758L-11.0948 151.44H-85.4262V145.758Z" fill="#3164E1" fill-opacity="0.8"/>
<path d="M-87.7298 185.534L-26.7596 178.623L-87.7298 188.145V185.534Z" fill="#3164E1" fill-opacity="0.8"/>
<path d="M-84.9654 215.021L-24.456 200.278L-84.9654 218.246V215.021Z" fill="#3164E1" fill-opacity="0.8"/>
<path d="M-84.9654 224.543L-26.7596 207.496L-84.9654 227.921V224.543Z" fill="#3164E1" fill-opacity="0.8"/>
<path d="M-84.9654 238.979L-49.9498 227.921L-84.9654 242.051V238.979Z" fill="#3164E1" fill-opacity="0.8"/>
<path d="M-84.044 266.93L-69.147 260.787L-84.044 269.08V266.93Z" fill="#3164E1" fill-opacity="0.8"/>
<path d="M-86.3476 271.998L-7.10174 233.297L-84.9654 277.681L-86.3476 271.998Z" fill="#3164E1" fill-opacity="0.8"/>
<path d="M-86.3476 283.824L-51.332 264.934L-84.9654 287.049L-86.3476 283.824Z" fill="#3164E1" fill-opacity="0.8"/>
<path d="M-84.044 301.178L-5.10523 249.883L-82.6618 304.71L-84.044 301.178Z" fill="#3164E1" fill-opacity="0.8"/>
<path d="M-86.3476 328.515L-9.09824 269.08L-49.5773 303.741L-19.2343 280.445L-82.6618 335.118L-83.3526 332.662L-84.9654 334.043L-86.3476 328.515Z" fill="#3164E1" fill-opacity="0.8"/>
<path d="M-84.044 338.804L7.02737 263.244L-82.6618 344.026L-84.044 338.804Z" fill="#3164E1" fill-opacity="0.8"/>
<path d="M-84.044 363.008L30.1696 253.977L-82.6618 373.124L-84.044 363.008Z" fill="#3164E1" fill-opacity="0.8"/>
<path d="M-77.0075 377.03L-12.4477 310.781L-69.1252 377.03H-77.0075Z" fill="#3164E1" fill-opacity="0.8"/>
<path d="M-64.4333 374.778L-18.0779 324.106L-43.4811 355.714L-18.0779 328.515L-54.862 373.124H-57.4736L-58.8031 374.778H-64.4333Z" fill="#3164E1" fill-opacity="0.8"/>
<path d="M-37.596 377.03L9.88552 315.473L-30.652 377.03H-37.596Z" fill="#3164E1" fill-opacity="0.8"/>
<path d="M-45.1029 374.778L3.50461 313.596L-38.9097 374.778H-45.1029Z" fill="#3164E1" fill-opacity="0.8"/>
<path d="M-2.68863 377.03L63.7479 264.934L7.02737 377.03H-2.68863Z" fill="#3164E1" fill-opacity="0.8"/>
<path d="M47.9833 374.778L86.4565 271.998L55.4903 374.778H47.9833Z" fill="#3164E1" fill-opacity="0.8"/>
<path d="M86.4565 378.156L103.722 300.084L94.1511 378.156H86.4565Z" fill="#3164E1" fill-opacity="0.8"/>
<path d="M77.6358 378.156L91.899 319.79L83.0783 378.156H77.6358Z" fill="#3164E1" fill-opacity="0.8"/>
<path d="M114.045 376.467L117.61 311.344L109.165 374.778L114.045 376.467Z" fill="#3164E1" fill-opacity="0.8"/>
<path d="M131.123 379.47L129.621 293.891L134.313 379.47H131.123Z" fill="#3164E1" fill-opacity="0.8"/>
<path d="M144.072 378.156L137.316 267.241L148.577 378.156H144.072Z" fill="#3164E1" fill-opacity="0.8"/>
<path d="M169.971 378.156L156.459 302.899L175.226 378.156H169.971Z" fill="#3164E1" fill-opacity="0.8"/>
<path d="M194.181 378.156L176.915 316.036L198.685 378.156H194.181Z" fill="#3164E1" fill-opacity="0.8"/>
<path d="M206.943 378.156L167.719 267.241L214.262 378.156H206.943Z" fill="#3164E1" fill-opacity="0.8"/>
<path d="M218.579 378.156L187.613 295.017L227.212 374.778L218.579 378.156Z" fill="#3164E1" fill-opacity="0.8"/>
<path d="M231.716 378.156L206.943 320.916L235.094 378.156H231.716Z" fill="#3164E1" fill-opacity="0.8"/>
<path d="M252.736 374.778L192.492 268.367L262.307 374.778H252.736Z" fill="#3164E1" fill-opacity="0.8"/>
<path d="M289.895 376.467L227.212 287.885L297.777 374.778L289.895 376.467Z" fill="#3164E1" fill-opacity="0.8"/>
<path d="M312.979 374.778L223.834 267.241L327.617 374.778H312.979Z" fill="#3164E1" fill-opacity="0.8"/>
<path d="M331.934 367.459L282.763 313.784L333.811 359.952L331.934 367.459Z" fill="#3164E1" fill-opacity="0.8"/>
<path d="M335.687 316.036L265.31 261.798L336.813 307.966L335.687 316.036Z" fill="#3164E1" fill-opacity="0.8"/>
<path d="M334.561 287.885L276.945 248.286L334.561 280.003V287.885Z" fill="#3164E1" fill-opacity="0.8"/>
<path d="M334.561 275.686L303.22 258.233L334.561 272.12V275.686Z" fill="#3164E1" fill-opacity="0.8"/>
<path d="M332.868 261.077L258.495 222.708L334.561 256.346L332.868 261.077Z" fill="#3164E1" fill-opacity="0.8"/>
<path d="M336.284 250.828L259.94 217.977L337.73 256.346L336.284 250.828Z" fill="#3164E1" fill-opacity="0.8"/>
<path d="M334.561 239.264L303.22 227.832L332.868 242.155L334.561 239.264Z" fill="#3164E1" fill-opacity="0.8"/>
<path d="M332.868 230.592L278.073 211.933L332.868 234.008V230.592Z" fill="#3164E1" fill-opacity="0.8"/>
<path d="M332.868 203.786V202.472L323.014 200.397L332.868 203.786Z" fill="#3164E1" fill-opacity="0.8"/>
<path d="M332.868 179.345L255.998 172.512L332.868 184.995V179.345Z" fill="#3164E1" fill-opacity="0.8"/>
<path d="M334.313 157.138L254.158 159.109L334.313 160.817V157.138Z" fill="#3164E1" fill-opacity="0.8"/>
<path d="M334.313 134.406L305.405 138.742L334.313 137.297V134.406Z" fill="#3164E1" fill-opacity="0.8"/>
<path d="M333.656 125.339L274.131 135.588L333.656 130.464V125.339Z" fill="#3164E1" fill-opacity="0.8"/>
<path d="M333.656 102.607L246.406 125.339L333.656 106.68V102.607Z" fill="#3164E1" fill-opacity="0.8"/>
<path d="M334.313 81.4509L244.697 116.272L334.313 84.4731V81.4509Z" fill="#3164E1" fill-opacity="0.8"/>
<path d="M337.598 88.4152L270.715 111.148L337.598 91.8316V88.4152Z" fill="#3164E1" fill-opacity="0.8"/>
<path d="M333.656 61.0836V53.1995L260.466 91.8316L333.656 61.0836Z" fill="#3164E1" fill-opacity="0.8"/>
<path d="M333.656 37.6941L334.313 33.2265L242.069 89.2036L333.656 37.6941Z" fill="#3164E1" fill-opacity="0.8"/>
<path d="M332.605 20.8747V18.9037L301.857 39.6652L332.605 20.8747Z" fill="#3164E1" fill-opacity="0.8"/>
<path d="M301.857 45.9724L332.605 25.6052V28.496L301.857 45.9724Z" fill="#3164E1" fill-opacity="0.8"/>
<path d="M331.817 -6.194L332.605 -14.8665L224.987 79.217L331.817 -6.194Z" fill="#3164E1" fill-opacity="0.8"/>
<path d="M334.313 -22.6683L333.656 -33.4473L232.5 63.105L334.313 -22.6683Z" fill="#3164E1" fill-opacity="0.8"/>
<path d="M334.313 -37.1167L331.817 -44.9143L240.986 45.9724L334.313 -37.1167Z" fill="#3164E1" fill-opacity="0.8"/>
<path d="M305.889 -46.2904H297.403L242.069 27.3279L305.889 -46.2904Z" fill="#3164E1" fill-opacity="0.8"/>
<path d="M293.734 -46.2904H286.624L202.227 67.2332L293.734 -46.2904Z" fill="#3164E1" fill-opacity="0.8"/>
<path d="M256.81 -46.2904H244.697L206.585 28.496L256.81 -46.2904Z" fill="#3164E1" fill-opacity="0.8"/>
<path d="M229.06 -42.8502H221.721L182.275 47.2805L229.06 -42.8502Z" fill="#3164E1" fill-opacity="0.8"/>
<path d="M206.585 -42.8502H202.227L185.027 11.2741L206.585 -42.8502Z" fill="#3164E1" fill-opacity="0.8"/>
<path d="M197.64 -42.8502H192.595L168.055 37.6941L197.64 -42.8502Z" fill="#3164E1" fill-opacity="0.8"/>
<path d="M179.064 -46.2904H174.477L156.359 37.6941L179.064 -46.2904Z" fill="#3164E1" fill-opacity="0.8"/>
<path d="M156.359 -44.9143H152.002L145.121 30.5387L156.359 -44.9143Z" fill="#3164E1" fill-opacity="0.8"/>
<path d="M139.617 -44.9143H132.278L134.572 0.953781L139.617 -44.9143Z" fill="#3164E1" fill-opacity="0.8"/>
<path d="M119.206 -44.9143H115.307L120.811 7.37531L119.206 -44.9143Z" fill="#3164E1" fill-opacity="0.8"/>
<path d="M109.115 -44.9143H104.528L115.307 30.5387L109.115 -44.9143Z" fill="#3164E1" fill-opacity="0.8"/>
<path d="M34.35 -42.8502H28.1578L74.9432 49.1153L34.35 -42.8502Z" fill="#3164E1" fill-opacity="0.8"/>
<path d="M-28.948 -42.8502L-37.8923 -42.3746L26.5524 35.3548L-28.948 -42.8502Z" fill="#3164E1" fill-opacity="0.8"/>
<path d="M-4.40858 -42.3746L-10.1421 -40.3275L26.5524 11.2741L-4.40858 -42.3746Z" fill="#3164E1" fill-opacity="0.8"/>
<path d="M221.946 293.826L10.5211 284.289L35.6696 90.0139L232.351 102.803L221.946 293.826Z" fill="#585555" stroke="black"/>
<path d="M222.994 295.927L11.9956 289.979L33.6921 91.8889L230.045 101.407L222.994 295.927Z" fill="#E7E7E7" stroke="black"/>
<path d="M238.004 288.234L23.0679 296.112V101.544L223.773 96.053L238.004 288.234Z" fill="#FCFCFC" stroke="black"/>
<g filter="url(#filter0_d)">
<rect x="35.8772" y="273.819" width="86.0734" height="36.0037" fill="white"/>
<rect x="36.3772" y="274.319" width="85.0734" height="35.0037" stroke="black"/>
</g>
<circle cx="40.5067" cy="278.251" r="1.9365" fill="black"/>
<circle cx="118.243" cy="306.099" r="1.9365" fill="black"/>
<circle cx="118.243" cy="278.251" r="1.9365" fill="black"/>
<circle cx="40.5067" cy="306.099" r="1.9365" fill="black"/>
<g filter="url(#filter1_d)">
<rect x="128.05" y="273.819" width="86.0734" height="36.0037" fill="white"/>
<rect x="128.55" y="274.319" width="85.0734" height="35.0037" stroke="black"/>
</g>
<circle cx="132.679" cy="278.251" r="1.9365" fill="black"/>
<circle cx="210.415" cy="306.099" r="1.9365" fill="black"/>
<circle cx="210.415" cy="278.251" r="1.9365" fill="black"/>
<circle cx="132.679" cy="306.099" r="1.9365" fill="black"/>
<path d="M80.4897 23.9603L182.893 30.6324L177.394 81.1802L59.59 74.646L80.4897 23.9603Z" fill="white" fill-opacity="0.5"/>
<path d="M169.539 26.1409L66.9268 27.4236L69.7628 78.1905L187.747 77.8547L169.539 26.1409Z" fill="white" fill-opacity="0.8"/>
<path d="M78.4281 29.0449L78.0719 29.0719L77.9819 29.4175L64.8841 79.6961L64.7255 80.3048L65.3543 80.322L173.517 83.2796L174.03 83.2936V82.7798V22.3609V21.8217L173.493 21.8623L78.4281 29.0449Z" stroke="black"/>
<path d="M102.693 22.7738L75.4553 25.6662L75.1373 25.7L75.0346 26.0029L68.6301 44.8963L72.131 24.5273L102.693 22.7738Z" fill="black" stroke="black"/>
<path d="M167.416 87.3386C147.727 87.9669 133.72 86.9525 120.906 85.871C131.708 86.0106 144.07 86.3905 154.445 86.7881C159.336 86.9755 163.783 87.1668 167.416 87.3386Z" fill="black" stroke="black"/>
<path d="M85.5678 41.9516L110.918 35.1914V40.6841L89.3704 44.9092L90.2154 54.6269L107.961 49.9793L107.116 54.6269L90.6379 58.852L92.328 68.9922L110.918 66.4572L111.341 71.9498L89.3704 74.4848L85.5678 41.9516Z" fill="black"/>
<path d="M112.608 35.1914L119.791 32.6564L111.341 71.5273L131.621 70.2598L128.664 76.1749H105.003L112.608 35.1914Z" fill="black"/>
<path fill-rule="evenodd" clip-rule="evenodd" d="M130.354 40.2616L136.691 38.5715L151.057 81.245L143.029 80.4L139.649 64.3446L132.466 65.1897L130.354 79.555H124.439L130.354 40.2616ZM132.044 60.9646L134.156 44.9092L138.804 59.697L132.044 60.9646Z" fill="black"/>
<path d="M143.874 39.1812L147.043 77.4424L152.324 72.2011L150.212 47.0431L162.887 70.6288L169.225 69.0564L167.64 37.6088H161.831L163.943 62.7669L150.212 36.0364L143.874 39.1812Z" fill="black"/>
<path d="M84.5789 41.1957L109.929 34.4355V39.9281L88.3815 44.1532L89.2265 53.871L106.972 49.2233L106.127 53.871L89.649 58.096L91.339 68.2363L109.929 65.7012L110.352 71.1939L88.3815 73.7289L84.5789 41.1957Z" fill="white"/>
<path d="M111.619 34.4355L118.802 31.9005L110.352 70.7714L130.632 69.5038L127.675 75.419H104.014L111.619 34.4355Z" fill="white"/>
<path fill-rule="evenodd" clip-rule="evenodd" d="M129.365 39.5057L135.703 37.8156L150.068 80.4891L142.04 79.6441L138.66 63.5887L131.477 64.4337L129.365 78.7991H123.45L129.365 39.5057ZM131.055 60.2086L133.167 44.1533L137.815 58.9411L131.055 60.2086Z" fill="white"/>
<path d="M142.885 38.4253L146.054 76.6865L151.335 71.4452L149.223 46.2872L161.898 69.8728L168.236 68.3005L166.651 36.8529H160.842L162.954 62.0109L149.223 35.2805L142.885 38.4253Z" fill="white"/>
<path d="M81.4233 39.6837L106.774 32.9236V38.4162L85.2259 42.6413L86.0709 52.359L103.816 47.7114L102.971 52.359L86.4934 56.5841L88.1835 66.7244L106.774 64.1893L107.196 69.6819L85.2259 72.217L81.4233 39.6837Z" fill="black" stroke="black"/>
<path d="M108.464 32.9236L115.647 30.3885L107.196 69.2594L127.477 67.9919L124.519 73.907H100.859L108.464 32.9236Z" fill="black" stroke="black"/>
<path fill-rule="evenodd" clip-rule="evenodd" d="M126.209 37.9937L132.547 36.3037L146.912 78.9772L138.885 78.1321L135.505 62.0768L128.322 62.9218L126.209 77.2871H120.294L126.209 37.9937ZM127.899 58.6967L130.012 42.6413L134.66 57.4292L127.899 58.6967Z" fill="black" stroke="black"/>
<path d="M139.73 36.9133L142.898 75.1745L148.18 69.9333L146.067 44.7752L158.743 68.3609L165.08 66.7885L163.496 35.341H157.686L159.799 60.499L146.067 33.7686L139.73 36.9133Z" fill="black" stroke="black"/>
<path d="M118.805 32.6092L118.681 32.4169L118.871 32.5731L118.805 32.6092Z" stroke="black"/>
<rect x="1" y="0.917747" width="248" height="331.33" stroke="#131313" stroke-width="2"/>
</g>
<defs>
<filter id="filter0_d" x="35.8772" y="273.819" width="87.0734" height="37.0037" filterUnits="userSpaceOnUse" color-interpolation-filters="sRGB">
<feFlood flood-opacity="0" result="BackgroundImageFix"/>
<feColorMatrix in="SourceAlpha" type="matrix" values="0 0 0 0 0 0 0 0 0 0 0 0 0 0 0 0 0 0 127 0"/>
<feOffset dx="1" dy="1"/>
<feColorMatrix type="matrix" values="0 0 0 0 0 0 0 0 0 0 0 0 0 0 0 0 0 0 1 0"/>
<feBlend mode="normal" in2="BackgroundImageFix" result="effect1_dropShadow"/>
<feBlend mode="normal" in="SourceGraphic" in2="effect1_dropShadow" result="shape"/>
</filter>
<filter id="filter1_d" x="128.05" y="273.819" width="87.0734" height="37.0037" filterUnits="userSpaceOnUse" color-interpolation-filters="sRGB">
<feFlood flood-opacity="0" result="BackgroundImageFix"/>
<feColorMatrix in="SourceAlpha" type="matrix" values="0 0 0 0 0 0 0 0 0 0 0 0 0 0 0 0 0 0 127 0"/>
<feOffset dx="1" dy="1"/>
<feColorMatrix type="matrix" values="0 0 0 0 0 0 0 0 0 0 0 0 0 0 0 0 0 0 1 0"/>
<feBlend mode="normal" in2="BackgroundImageFix" result="effect1_dropShadow"/>
<feBlend mode="normal" in="SourceGraphic" in2="effect1_dropShadow" result="shape"/>
</filter>
<clipPath id="clip0">
<rect width="250" height="333.333" fill="white"/>
</clipPath>
</defs>
</svg>
