<svg width="250" height="334" viewBox="0 0 250 334" fill="none" xmlns="http://www.w3.org/2000/svg">
<g clip-path="url(#clip0)">
<rect width="250" height="333.333" fill="white"/>
<path d="M19.0678 69.455L-84.4627 -18.3835L-84.4829 -11.9081L19.0678 69.455Z" fill="#1BDC9D" fill-opacity="0.8"/>
<path d="M-83.1861 12.8204L-45.5922 39.0353L-83.1977 16.5487L-83.1861 12.8204Z" fill="#1BDC9D" fill-opacity="0.8"/>
<path d="M-82.7145 21.0219L-33.8757 55.3065L-82.7282 25.4379L-82.7145 21.0219Z" fill="#1BDC9D" fill-opacity="0.8"/>
<path d="M-83.1432 -0.968061L-50.3408 24.6185L-82.6585 2.98955L-83.1432 -0.968061Z" fill="#1BDC9D" fill-opacity="0.8"/>
<path d="M-82.151 76.5198L-82.1339 71.0108L12.9678 111.331L-82.151 76.5198Z" fill="#1BDC9D" fill-opacity="0.8"/>
<path d="M-81.6178 85.853L-81.6021 80.7938L12.9517 116.503L-81.6178 85.853Z" fill="#1BDC9D" fill-opacity="0.8"/>
<path d="M-8.12879 134.65L-81.1605 119.583L-81.1745 124.08L-8.12879 134.65Z" fill="#1BDC9D" fill-opacity="0.8"/>
<path d="M-81.143 113.962L-81.1305 109.914L-36.6469 122.195L-81.143 113.962Z" fill="#1BDC9D" fill-opacity="0.8"/>
<path d="M-82.3522 141.278L-82.3403 137.455L-11.7614 145.882L-82.3522 141.278Z" fill="#1BDC9D" fill-opacity="0.8"/>
<path d="M-84.5893 173.763L-84.5777 170.053L-12.6158 167.578L-84.5893 173.763Z" fill="#1BDC9D" fill-opacity="0.8"/>
<path d="M-84.6127 181.295L-84.6057 179.047L-45.3573 175.571L-84.6127 181.295Z" fill="#1BDC9D" fill-opacity="0.8"/>
<path d="M-84.6249 185.23L-84.6176 182.869L-70.222 181.34L-84.6249 185.23Z" fill="#1BDC9D" fill-opacity="0.8"/>
<path d="M-84.6668 198.722L-84.6591 196.248L-62.0532 193.733L-84.6668 198.722Z" fill="#1BDC9D" fill-opacity="0.8"/>
<path d="M-83.6742 204.908L-84.6759 201.645L-33.379 192.135L-83.6742 204.908Z" fill="#1BDC9D" fill-opacity="0.8"/>
<path d="M-82.8062 215.03L-82.7926 210.645L-18.998 195.328L-82.8062 215.03Z" fill="#1BDC9D" fill-opacity="0.8"/>
<path d="M-81.9232 220.317L-81.9141 217.393L-44.7806 207.053L-81.9232 220.317Z" fill="#1BDC9D" fill-opacity="0.8"/>
<path d="M-54.1491 218.941L-84.3093 228.404L-84.316 230.54L-54.1491 218.941Z" fill="#1BDC9D" fill-opacity="0.8"/>
<path d="M-82.8726 236.391L-10.0471 209.297L-81.9819 239.204L-82.8726 236.391Z" fill="#1BDC9D" fill-opacity="0.8"/>
<path d="M-83.8258 253.702L4.67315 211.816L-84.3673 247.067L-83.8258 253.702Z" fill="#1BDC9D" fill-opacity="0.8"/>
<path d="M-82.0713 267.986L10.9443 219.818L-80.6272 273.612L-82.0713 267.986Z" fill="#1BDC9D" fill-opacity="0.8"/>
<path d="M-84.4665 278.996L-51.0214 261.674L-83.1247 281.361L-84.4665 278.996Z" fill="#1BDC9D" fill-opacity="0.8"/>
<path d="M-83.9162 282.821L-11.3813 240.66L-82.1356 288.672L-83.9162 282.821Z" fill="#1BDC9D" fill-opacity="0.8"/>
<path d="M-83.175 297.551L-83.9414 290.915L7.63569 235.323L-83.175 297.551Z" fill="#1BDC9D" fill-opacity="0.8"/>
<path d="M-59.1779 302.291L0.37013 257.898L-80.7861 324.766L-82.2313 319.477L-81.5116 318.941L-85.4864 317.781L-81.0343 314.617L-83.2187 311.604L-23.7215 268.167L-66.9678 304.623L-34.4436 281.513L-59.1779 302.291Z" fill="#1BDC9D" fill-opacity="0.8"/>
<path d="M-84.6963 352.974L7.30325 269.95L-83.3755 362.084L-84.6963 352.974Z" fill="#1BDC9D" fill-opacity="0.8"/>
<path d="M-53.3069 374.754L54.8109 249.309L-41.5268 372.632L-53.3069 374.754Z" fill="#1BDC9D" fill-opacity="0.8"/>
<path d="M-26.8264 377.976L32.6917 294.961L-17.4113 379.182L-26.8264 377.976Z" fill="#1BDC9D" fill-opacity="0.8"/>
<path d="M-30.7344 372.665L18.1224 310.614L-24.0462 372.686L-30.7344 372.665Z" fill="#1BDC9D" fill-opacity="0.8"/>
<path d="M-8.75735 372.734L44.6728 291.315L1.63582 374.924L-8.75735 372.734Z" fill="#1BDC9D" fill-opacity="0.8"/>
<path d="M10.2697 374.951L31.1804 339.303L14.7828 374.965L10.2697 374.951Z" fill="#1BDC9D" fill-opacity="0.8"/>
<path d="M26.5563 375.002L42.7381 345.618L31.0658 376.193L26.5563 375.002Z" fill="#1BDC9D" fill-opacity="0.8"/>
<path d="M35.1901 375.029L78.0756 277.049L42.6466 375.052L35.1901 375.029Z" fill="#1BDC9D" fill-opacity="0.8"/>
<path d="M56.2669 376.272L76.5903 319.49L62.9861 375.115L56.2669 376.272Z" fill="#1BDC9D" fill-opacity="0.8"/>
<path d="M69.1911 377.389L96.6913 280.265L74.2311 376.327L69.1911 377.389Z" fill="#1BDC9D" fill-opacity="0.8"/>
<path d="M123.427 375.303L125.279 319.641L127.456 375.315L123.427 375.303Z" fill="#1BDC9D" fill-opacity="0.8"/>
<path d="M134.172 375.336L133.585 293.979L139.544 375.353L134.172 375.336Z" fill="#1BDC9D" fill-opacity="0.8"/>
<path d="M151.296 375.389L144.641 301.904L156.501 375.406L151.296 375.389Z" fill="#1BDC9D" fill-opacity="0.8"/>
<path d="M158.855 374.142L154.264 338.871L162.041 375.423L158.855 374.142Z" fill="#1BDC9D" fill-opacity="0.8"/>
<path d="M178.327 375.473L159.086 299.935L182.524 375.487L178.327 375.473Z" fill="#1BDC9D" fill-opacity="0.8"/>
<path d="M200.492 374.271L193.682 350.578L202.507 374.278L200.492 374.271Z" fill="#1BDC9D" fill-opacity="0.8"/>
<path d="M232.048 376.72L189.833 292.643L226.844 376.704L232.048 376.72Z" fill="#1BDC9D" fill-opacity="0.8"/>
<path d="M242.293 375.672L223.277 335.727L244.815 374.409L242.293 375.672Z" fill="#1BDC9D" fill-opacity="0.8"/>
<path d="M272.513 375.766L232.225 319.973L267.977 376.832L272.513 375.766Z" fill="#1BDC9D" fill-opacity="0.8"/>
<path d="M282.415 376.877L194.002 247.829L289.642 374.548L282.415 376.877Z" fill="#1BDC9D" fill-opacity="0.8"/>
<path d="M305.756 375.869L207.596 249.214L318.02 373.126L305.756 375.869Z" fill="#1BDC9D" fill-opacity="0.8"/>
<path d="M333.072 337.915L239.315 253.342L333.104 327.674L333.072 337.915Z" fill="#1BDC9D" fill-opacity="0.8"/>
<path d="M332.507 303.495L245.559 243.12L332.485 310.547L332.507 303.495Z" fill="#1BDC9D" fill-opacity="0.8"/>
<path d="M334.341 253.637L236.933 209.683L330.971 257.656L334.341 253.637Z" fill="#1BDC9D" fill-opacity="0.8"/>
<path d="M335.889 241.722L257.407 212.433L334.358 248.097L335.889 241.722Z" fill="#1BDC9D" fill-opacity="0.8"/>
<path d="M334.488 206.292L257.477 189.767L334.473 211.329L334.488 206.292Z" fill="#1BDC9D" fill-opacity="0.8"/>
<path d="M334.539 190.007L263.884 181.225L334.52 196.051L334.539 190.007Z" fill="#1BDC9D" fill-opacity="0.8"/>
<path d="M337.678 152.241L253.055 154.161L336.157 155.594L337.678 152.241Z" fill="#1BDC9D" fill-opacity="0.8"/>
<path d="M334.622 163.312L284.087 163.155L332.45 159.78L334.622 163.312Z" fill="#1BDC9D" fill-opacity="0.8"/>
<path d="M337.795 114.801L245.569 131.976L336.267 120.169L337.795 114.801Z" fill="#1BDC9D" fill-opacity="0.8"/>
<path d="M334.78 112.274L334.789 109.587L293.959 120.038L334.78 112.274Z" fill="#1BDC9D" fill-opacity="0.8"/>
<path d="M332.984 99.7795L332.994 96.4675L286.213 110.675L332.984 99.7795Z" fill="#1BDC9D" fill-opacity="0.8"/>
<path d="M331.842 82.2853L331.835 84.7795L289.655 98.4489L314.973 88.3134L251.159 111.118L334.251 76.8748L334.877 81.2009L331.842 82.2853Z" fill="#1BDC9D" fill-opacity="0.8"/>
<path d="M333.114 58.0108L333.133 51.9387L279.405 81.0286L333.114 58.0108Z" fill="#1BDC9D" fill-opacity="0.8"/>
<path d="M333.162 42.4625L333.168 40.4385L314.092 50.7755L333.162 42.4625Z" fill="#1BDC9D" fill-opacity="0.8"/>
<path d="M333.642 36.0238L333.654 32.1598L236.773 92.3044L333.642 36.0238Z" fill="#1BDC9D" fill-opacity="0.8"/>
<path d="M332.663 25.4405L332.033 21.0224L260.025 70.3881L332.663 25.4405Z" fill="#1BDC9D" fill-opacity="0.8"/>
<path d="M333.737 5.4793L333.288 1.98181L292.99 32.0334L333.737 5.4793Z" fill="#1BDC9D" fill-opacity="0.8"/>
<path d="M333.731 7.31934L332.705 12.0083L331.593 12.7652L332.047 16.4223L286.599 45.6299L313.214 25.2799L267.337 56.5184L333.731 7.31934Z" fill="#1BDC9D" fill-opacity="0.8"/>
<path d="M333.844 -28.8373L333.86 -33.9894L233.188 61.7484L333.844 -28.8373Z" fill="#1BDC9D" fill-opacity="0.8"/>
<path d="M309.039 -40.5067L299.931 -40.535L270.826 -0.420315L309.039 -40.5067Z" fill="#1BDC9D" fill-opacity="0.8"/>
<path d="M292.847 -40.557L287.511 -40.5736L225.435 39.9198L292.847 -40.557Z" fill="#1BDC9D" fill-opacity="0.8"/>
<path d="M283.921 -39.8487L278.127 -40.6027L224.908 31.8219L283.921 -39.8487Z" fill="#1BDC9D" fill-opacity="0.8"/>
<path d="M276.1 -39.873L267.636 -39.8993L215.418 36.3005L276.1 -39.873Z" fill="#1BDC9D" fill-opacity="0.8"/>
<path d="M256.966 -40.6685L251.63 -40.685L215.558 21.0286L256.966 -40.6685Z" fill="#1BDC9D" fill-opacity="0.8"/>
<path d="M224.212 -40.0342C221.79 -40.2871 216.872 -40.793 216.578 -40.7939L181.82 41.7163L224.212 -40.0342Z" fill="#1BDC9D" fill-opacity="0.8"/>
<path d="M209.031 -40.0814L204.615 -40.0951L177.255 30.6618L209.031 -40.0814Z" fill="#1BDC9D" fill-opacity="0.8"/>
<path d="M202.68 -39.1811L199.092 -39.1922L179.592 18.8008L202.68 -39.1811Z" fill="#1BDC9D" fill-opacity="0.8"/>
<path d="M182.443 -40.164L178.487 -40.1763L167.861 3.95191L182.443 -40.164Z" fill="#1BDC9D" fill-opacity="0.8"/>
<path d="M175.727 -40.1849L172.047 -40.1963L154.306 43.5629L175.727 -40.1849Z" fill="#1BDC9D" fill-opacity="0.8"/>
<path d="M171.219 -40.1989L169.563 -40.204L166.278 -19.4216L171.219 -40.1989Z" fill="#1BDC9D" fill-opacity="0.8"/>
<path d="M154.474 -40.2509L148.402 -40.2697L140.215 48.3032L154.474 -40.2509Z" fill="#1BDC9D" fill-opacity="0.8"/>
<path d="M94.7467 -44.041L89.4617 -44.0575L100.254 2.9266L94.7467 -44.041Z" fill="#1BDC9D" fill-opacity="0.8"/>
<path d="M79.875 -44.0873L97.573 35.2429L74.9588 -44.1025L79.875 -44.0873Z" fill="#1BDC9D" fill-opacity="0.8"/>
<path d="M72.8656 -42.88L69.5471 -42.8903C72.9548 -32.0229 79.7704 -10.411 79.7719 -10.9026C79.7735 -11.3943 75.1683 -32.4257 72.8656 -42.88Z" fill="#1BDC9D" fill-opacity="0.8"/>
<path d="M54.6721 -41.8303L51.1078 -41.8414L82.3292 36.3017L54.6721 -41.8303Z" fill="#1BDC9D" fill-opacity="0.8"/>
<path d="M17.0628 -41.9472L25.301 -43.0277L67.0561 46.8242L34.7918 -10.4664L61.4089 44.7173L23.1212 -20.3711L46.5949 26.1122L4.64934 -41.9857L11.6584 -43.0701L13.2747 -39.8695L18.2416 -39.8541L17.0628 -41.9472Z" fill="#1BDC9D" fill-opacity="0.8"/>
<path d="M-12.1853 -43.1442L-19.0715 -42.0594L60.3538 67.8205L-12.1853 -43.1442Z" fill="#1BDC9D" fill-opacity="0.8"/>
<path d="M-20.7949 -41.2044L-27.6814 -39.9968L49.8191 56.4803L-20.7949 -41.2044Z" fill="#1BDC9D" fill-opacity="0.8"/>
<path d="M-57.7386 -45.4007L10.0515 33.4419L-64.1965 -42.9635L-57.7386 -45.4007Z" fill="#0A7D58" fill-opacity="0.8"/>
<path d="M-69.564 -45.4374L30.0827 61.609L-77.7136 -42.2376L-69.564 -45.4374Z" fill="#0A7D58" fill-opacity="0.8"/>
<path d="M-83.3983 -41.4874L30.0584 69.4414L-84.6632 -29.8194L-83.3983 -41.4874Z" fill="#0A7D58" fill-opacity="0.8"/>
<path d="M-82.2785 -6.46808L20.3716 73.0971L-82.3037 1.67148L-82.2785 -6.46808Z" fill="#0A7D58" fill-opacity="0.8"/>
<path d="M-86.0874 33.1432L20.2948 97.8229L-86.1074 39.5934L-86.0874 33.1432Z" fill="#0A7D58" fill-opacity="0.8"/>
<path d="M-86.1867 65.0872L-19.0156 96.0115L-86.2043 70.7695L-86.1867 65.0872Z" fill="#0A7D58" fill-opacity="0.8"/>
<path d="M-84.173 59.5646L-56.2664 73.9341L-84.1825 62.6361L-84.173 59.5646Z" fill="#0A7D58" fill-opacity="0.8"/>
<path d="M-85.0425 92.274L-48.8342 103.905L-85.0535 95.8063L-85.0425 92.274Z" fill="#0A7D58" fill-opacity="0.8"/>
<path d="M-83.1066 111.784L-49.6527 120.182L-83.1166 115.01L-83.1066 111.784Z" fill="#0A7D58" fill-opacity="0.8"/>
<path d="M-83.1405 122.688L-47.3815 130.632L-81.9233 126.378L-83.1405 122.688Z" fill="#0A7D58" fill-opacity="0.8"/>
<path d="M-85.3602 145.104L-11.0468 151.017L-85.3779 150.786L-85.3602 145.104Z" fill="#0A7D58" fill-opacity="0.8"/>
<path d="M-87.7875 184.873L-26.7961 178.152L-87.7956 187.484L-87.7875 184.873Z" fill="#0A7D58" fill-opacity="0.8"/>
<path d="M-85.1147 214.368L-24.5597 199.813L-85.1247 217.593L-85.1147 214.368Z" fill="#0A7D58" fill-opacity="0.8"/>
<path d="M-85.1443 223.89L-26.8858 207.024L-85.1548 227.269L-85.1443 223.89Z" fill="#0A7D58" fill-opacity="0.8"/>
<path d="M-85.1891 238.326L-50.1393 227.378L-85.1987 241.398L-85.1891 238.326Z" fill="#0A7D58" fill-opacity="0.8"/>
<path d="M-84.3545 266.28L-69.4385 260.183L-84.3612 268.43L-84.3545 266.28Z" fill="#0A7D58" fill-opacity="0.8"/>
<path d="M-86.6739 271.341L-7.30816 232.886L-85.3094 277.028L-86.6739 271.341Z" fill="#0A7D58" fill-opacity="0.8"/>
<path d="M-86.7106 283.166L-51.6365 264.385L-85.3385 286.396L-86.7106 283.166Z" fill="#0A7D58" fill-opacity="0.8"/>
<path d="M-84.4609 300.528L-5.36319 249.478L-83.0897 304.064L-84.4609 300.528Z" fill="#0A7D58" fill-opacity="0.8"/>
<path d="M-86.8495 327.857L-9.41583 268.663L-50.0023 303.198L-19.5872 279.996L-83.1842 334.472L-83.8673 332.014L-85.4845 333.39L-86.8495 327.857Z" fill="#0A7D58" fill-opacity="0.8"/>
<path d="M-84.5778 338.154L6.72784 262.877L-83.2119 343.38L-84.5778 338.154Z" fill="#0A7D58" fill-opacity="0.8"/>
<path d="M-84.653 362.357L29.8987 253.682L-83.3023 372.478L-84.653 362.357Z" fill="#0A7D58" fill-opacity="0.8"/>
<path d="M-77.6601 376.402L-12.8948 310.354L-69.7779 376.426L-77.6601 376.402Z" fill="#0A7D58" fill-opacity="0.8"/>
<path d="M-65.079 374.189L-18.5664 323.661L-44.0677 355.189L-18.5801 328.069L-55.5026 372.564L-58.1142 372.556L-59.4489 374.206L-65.079 374.189Z" fill="#0A7D58" fill-opacity="0.8"/>
<path d="M-38.2488 376.524L9.4237 315.115L-31.3049 376.546L-38.2488 376.524Z" fill="#0A7D58" fill-opacity="0.8"/>
<path d="M-45.7487 374.249L3.04865 313.218L-39.5555 374.268L-45.7487 374.249Z" fill="#0A7D58" fill-opacity="0.8"/>
<path d="M-3.34164 376.632L63.4429 264.743L6.37432 376.663L-3.34164 376.632Z" fill="#0A7D58" fill-opacity="0.8"/>
<path d="M47.3371 374.538L86.1294 271.878L54.844 374.561L47.3371 374.538Z" fill="#0A7D58" fill-opacity="0.8"/>
<path d="M85.7995 378.035L103.308 300.017L93.4941 378.059L85.7995 378.035Z" fill="#0A7D58" fill-opacity="0.8"/>
<path d="M76.9789 378.008L91.4234 319.686L82.4214 378.025L76.9789 378.008Z" fill="#0A7D58" fill-opacity="0.8"/>
<path d="M113.393 376.432L117.161 311.321L108.518 374.728L113.393 376.432Z" fill="#0A7D58" fill-opacity="0.8"/>
<path d="M130.462 379.488L129.226 293.904L133.652 379.498L130.462 379.488Z" fill="#0A7D58" fill-opacity="0.8"/>
<path d="M143.415 378.214L137.003 267.279L147.919 378.228L143.415 378.214Z" fill="#0A7D58" fill-opacity="0.8"/>
<path d="M169.314 378.295L156.035 302.996L174.569 378.311L169.314 378.295Z" fill="#0A7D58" fill-opacity="0.8"/>
<path d="M193.524 378.37L176.451 316.197L198.028 378.384L193.524 378.37Z" fill="#0A7D58" fill-opacity="0.8"/>
<path d="M206.286 378.41L167.407 267.373L213.605 378.432L206.286 378.41Z" fill="#0A7D58" fill-opacity="0.8"/>
<path d="M217.921 378.446L187.214 295.211L226.565 375.095L217.921 378.446Z" fill="#0A7D58" fill-opacity="0.8"/>
<path d="M231.058 378.487L206.463 321.169L234.437 378.497L231.058 378.487Z" fill="#0A7D58" fill-opacity="0.8"/>
<path d="M252.088 375.174L192.176 268.576L261.66 375.204L252.088 375.174Z" fill="#0A7D58" fill-opacity="0.8"/>
<path d="M289.242 376.978L226.835 288.202L297.13 375.314L289.242 376.978Z" fill="#0A7D58" fill-opacity="0.8"/>
<path d="M312.331 375.361L223.521 267.548L326.97 375.407L312.331 375.361Z" fill="#0A7D58" fill-opacity="0.8"/>
<path d="M331.309 368.101L282.305 314.274L333.209 360.6L331.309 368.101Z" fill="#0A7D58" fill-opacity="0.8"/>
<path d="M335.222 316.69L265.013 262.234L336.373 308.624L335.222 316.69Z" fill="#0A7D58" fill-opacity="0.8"/>
<path d="M334.184 288.536L276.691 248.758L334.208 280.653L334.184 288.536Z" fill="#0A7D58" fill-opacity="0.8"/>
<path d="M334.222 276.337L302.934 258.786L334.233 272.771L334.222 276.337Z" fill="#0A7D58" fill-opacity="0.8"/>
<path d="M332.574 261.722L258.32 223.122L334.282 256.997L332.574 261.722Z" fill="#0A7D58" fill-opacity="0.8"/>
<path d="M336.022 251.484L259.78 218.396L337.45 257.007L336.022 251.484Z" fill="#0A7D58" fill-opacity="0.8"/>
<path d="M334.335 239.915L303.029 228.386L332.632 242.801L334.335 239.915Z" fill="#0A7D58" fill-opacity="0.8"/>
<path d="M332.668 231.237L277.932 212.408L332.658 234.654L332.668 231.237Z" fill="#0A7D58" fill-opacity="0.8"/>
<path d="M332.752 204.431L332.756 203.117L322.908 201.012L332.752 204.431Z" fill="#0A7D58" fill-opacity="0.8"/>
<path d="M332.828 179.991L255.979 172.919L332.81 185.641L332.828 179.991Z" fill="#0A7D58" fill-opacity="0.8"/>
<path d="M334.342 157.789L254.181 159.511L334.331 161.468L334.342 157.789Z" fill="#0A7D58" fill-opacity="0.8"/>
<path d="M334.413 135.056L305.491 139.303L334.404 137.947L334.413 135.056Z" fill="#0A7D58" fill-opacity="0.8"/>
<path d="M333.784 125.987L274.227 136.052L333.768 131.112L333.784 125.987Z" fill="#0A7D58" fill-opacity="0.8"/>
<path d="M333.854 103.255L246.534 125.716L333.842 107.329L333.854 103.255Z" fill="#0A7D58" fill-opacity="0.8"/>
<path d="M334.577 82.1016L244.853 116.644L334.568 85.1238L334.577 82.1016Z" fill="#0A7D58" fill-opacity="0.8"/>
<path d="M337.84 89.0761L270.887 111.601L337.83 92.4925L337.84 89.0761Z" fill="#0A7D58" fill-opacity="0.8"/>
<path d="M333.983 61.7324L334.008 53.8484L260.697 92.2528L333.983 61.7324Z" fill="#0A7D58" fill-opacity="0.8"/>
<path d="M334.056 38.343L334.727 33.8775L242.31 89.5677L334.056 38.343Z" fill="#0A7D58" fill-opacity="0.8"/>
<path d="M333.057 21.5205L333.063 19.5494L302.251 40.2153L333.057 21.5205Z" fill="#0A7D58" fill-opacity="0.8"/>
<path d="M302.231 46.5225L333.042 26.2509L333.033 29.1417L302.231 46.5225Z" fill="#0A7D58" fill-opacity="0.8"/>
<path d="M332.353 -5.5506L333.168 -14.2206L225.258 79.5281L332.353 -5.5506Z" fill="#0A7D58" fill-opacity="0.8"/>
<path d="M334.901 -22.0171L334.277 -32.798L232.821 63.4395L334.901 -22.0171Z" fill="#0A7D58" fill-opacity="0.8"/>
<path d="M334.945 -36.4654L332.473 -44.2707L241.36 46.3334L334.945 -36.4654Z" fill="#0A7D58" fill-opacity="0.8"/>
<path d="M306.55 -45.7273L298.064 -45.7537L242.502 27.6923L306.55 -45.7273Z" fill="#0A7D58" fill-opacity="0.8"/>
<path d="M294.395 -45.7651L287.285 -45.7872L202.536 67.4736L294.395 -45.7651Z" fill="#0A7D58" fill-opacity="0.8"/>
<path d="M257.471 -45.8798L245.359 -45.9174L207.013 28.7502L257.471 -45.8798Z" fill="#0A7D58" fill-opacity="0.8"/>
<path d="M229.71 -42.5259L222.372 -42.5487L182.645 47.4591L229.71 -42.5259Z" fill="#0A7D58" fill-opacity="0.8"/>
<path d="M207.235 -42.5958L202.878 -42.6093L185.509 11.4614L207.235 -42.5958Z" fill="#0A7D58" fill-opacity="0.8"/>
<path d="M198.291 -42.6235L193.245 -42.6392L168.456 37.8285L198.291 -42.6235Z" fill="#0A7D58" fill-opacity="0.8"/>
<path d="M179.725 -46.1213L175.138 -46.1356L156.76 37.7922L179.725 -46.1213Z" fill="#0A7D58" fill-opacity="0.8"/>
<path d="M157.016 -44.8159L152.659 -44.8294L145.544 30.6019L157.016 -44.8159Z" fill="#0A7D58" fill-opacity="0.8"/>
<path d="M140.274 -44.8679L132.936 -44.8907L135.086 0.984324L140.274 -44.8679Z" fill="#0A7D58" fill-opacity="0.8"/>
<path d="M119.863 -44.9313L115.964 -44.9434L121.306 7.36307L119.863 -44.9313Z" fill="#0A7D58" fill-opacity="0.8"/>
<path d="M109.772 -44.9626L105.186 -44.9769L115.73 30.5092L109.772 -44.9626Z" fill="#0A7D58" fill-opacity="0.8"/>
<path d="M35.0013 -43.1309L28.8091 -43.1501L75.3086 48.9603L35.0013 -43.1309Z" fill="#0A7D58" fill-opacity="0.8"/>
<path d="M-28.2963 -43.3275L-37.2421 -42.8797L26.9608 35.0496L-28.2963 -43.3275Z" fill="#0A7D58" fill-opacity="0.8"/>
<path d="M-3.75852 -42.7757L-9.49836 -40.7464L27.0356 10.969L-3.75852 -42.7757Z" fill="#0A7D58" fill-opacity="0.8"/>
<path d="M221.946 293.826L10.5211 284.289L35.6696 90.0139L232.351 102.803L221.946 293.826Z" fill="#585555" stroke="black"/>
<path d="M222.994 295.927L11.9956 289.979L33.6921 91.8889L230.045 101.407L222.994 295.927Z" fill="#E7E7E7" stroke="black"/>
<path d="M238.004 288.234L23.0679 296.112V101.544L223.773 96.053L238.004 288.234Z" fill="#FCFCFC" stroke="black"/>
<g filter="url(#filter0_d)">
<rect x="35.8771" y="273.819" width="86.0734" height="36.0037" fill="white"/>
<rect x="36.3771" y="274.319" width="85.0734" height="35.0037" stroke="black"/>
</g>
<circle cx="40.5066" cy="278.251" r="1.9365" fill="black"/>
<circle cx="118.243" cy="306.099" r="1.9365" fill="black"/>
<circle cx="118.243" cy="278.251" r="1.9365" fill="black"/>
<circle cx="40.5066" cy="306.099" r="1.9365" fill="black"/>
<g filter="url(#filter1_d)">
<rect x="128.05" y="273.819" width="86.0734" height="36.0037" fill="white"/>
<rect x="128.55" y="274.319" width="85.0734" height="35.0037" stroke="black"/>
</g>
<circle cx="132.679" cy="278.251" r="1.9365" fill="black"/>
<circle cx="210.415" cy="306.099" r="1.9365" fill="black"/>
<circle cx="210.415" cy="278.251" r="1.9365" fill="black"/>
<circle cx="132.679" cy="306.099" r="1.9365" fill="black"/>
<path d="M80.4897 23.9603L182.893 30.6324L177.394 81.1802L59.59 74.646L80.4897 23.9603Z" fill="white" fill-opacity="0.5"/>
<path d="M169.539 26.1409L66.9268 27.4236L69.7628 78.1905L187.747 77.8547L169.539 26.1409Z" fill="white" fill-opacity="0.8"/>
<path d="M78.428 29.0449L78.0718 29.0719L77.9818 29.4175L64.884 79.6961L64.7254 80.3048L65.3542 80.322L173.517 83.2796L174.03 83.2936V82.7798V22.3609V21.8217L173.493 21.8623L78.428 29.0449Z" stroke="black"/>
<path d="M102.693 22.7738L75.4553 25.6662L75.1373 25.7L75.0346 26.0029L68.6301 44.8963L72.131 24.5273L102.693 22.7738Z" fill="black" stroke="black"/>
<path d="M167.416 87.3386C147.727 87.9669 133.72 86.9525 120.906 85.871C131.708 86.0106 144.07 86.3905 154.445 86.7881C159.336 86.9755 163.783 87.1668 167.416 87.3386Z" fill="black" stroke="black"/>
<path d="M85.5677 41.9516L110.918 35.1914V40.6841L89.3703 44.9092L90.2154 54.6269L107.961 49.9793L107.116 54.6269L90.6379 58.852L92.3279 68.9922L110.918 66.4572L111.341 71.9498L89.3703 74.4848L85.5677 41.9516Z" fill="black"/>
<path d="M112.608 35.1914L119.791 32.6564L111.341 71.5273L131.621 70.2598L128.664 76.1749H105.003L112.608 35.1914Z" fill="black"/>
<path fill-rule="evenodd" clip-rule="evenodd" d="M130.354 40.2616L136.691 38.5715L151.057 81.245L143.029 80.4L139.649 64.3446L132.466 65.1897L130.354 79.555H124.439L130.354 40.2616ZM132.044 60.9646L134.156 44.9092L138.804 59.697L132.044 60.9646Z" fill="black"/>
<path d="M143.874 39.1812L147.043 77.4424L152.324 72.2011L150.212 47.0431L162.887 70.6288L169.225 69.0564L167.64 37.6088H161.831L163.943 62.7669L150.212 36.0364L143.874 39.1812Z" fill="black"/>
<path d="M84.5789 41.1957L109.929 34.4355V39.9281L88.3814 44.1532L89.2265 53.871L106.972 49.2233L106.127 53.871L89.649 58.096L91.339 68.2363L109.929 65.7012L110.352 71.1939L88.3814 73.7289L84.5789 41.1957Z" fill="white"/>
<path d="M111.619 34.4355L118.802 31.9005L110.352 70.7714L130.632 69.5038L127.675 75.419H104.014L111.619 34.4355Z" fill="white"/>
<path fill-rule="evenodd" clip-rule="evenodd" d="M129.365 39.5057L135.702 37.8156L150.068 80.4891L142.04 79.6441L138.66 63.5887L131.477 64.4337L129.365 78.7991H123.45L129.365 39.5057ZM131.055 60.2086L133.167 44.1533L137.815 58.9411L131.055 60.2086Z" fill="white"/>
<path d="M142.885 38.4253L146.054 76.6865L151.335 71.4452L149.223 46.2872L161.898 69.8728L168.236 68.3005L166.651 36.8529H160.842L162.954 62.0109L149.223 35.2805L142.885 38.4253Z" fill="white"/>
<path d="M81.4233 39.6837L106.774 32.9236V38.4162L85.2259 42.6413L86.0709 52.359L103.816 47.7114L102.971 52.359L86.4934 56.5841L88.1834 66.7244L106.774 64.1893L107.196 69.6819L85.2259 72.217L81.4233 39.6837Z" fill="black" stroke="black"/>
<path d="M108.464 32.9236L115.647 30.3885L107.196 69.2594L127.477 67.9919L124.519 73.907H100.859L108.464 32.9236Z" fill="black" stroke="black"/>
<path fill-rule="evenodd" clip-rule="evenodd" d="M126.209 37.9937L132.547 36.3037L146.912 78.9772L138.885 78.1321L135.504 62.0768L128.322 62.9218L126.209 77.2871H120.294L126.209 37.9937ZM127.899 58.6967L130.012 42.6413L134.659 57.4292L127.899 58.6967Z" fill="black" stroke="black"/>
<path d="M139.73 36.9133L142.898 75.1745L148.18 69.9333L146.067 44.7752L158.743 68.3609L165.08 66.7885L163.496 35.341H157.686L159.799 60.499L146.067 33.7686L139.73 36.9133Z" fill="black" stroke="black"/>
<path d="M118.805 32.6092L118.681 32.4169L118.871 32.5731L118.805 32.6092Z" stroke="black"/>
<rect x="1" y="0.917747" width="248" height="331.33" stroke="#131313" stroke-width="2"/>
</g>
<defs>
<filter id="filter0_d" x="35.8771" y="273.819" width="87.0734" height="37.0037" filterUnits="userSpaceOnUse" color-interpolation-filters="sRGB">
<feFlood flood-opacity="0" result="BackgroundImageFix"/>
<feColorMatrix in="SourceAlpha" type="matrix" values="0 0 0 0 0 0 0 0 0 0 0 0 0 0 0 0 0 0 127 0"/>
<feOffset dx="1" dy="1"/>
<feColorMatrix type="matrix" values="0 0 0 0 0 0 0 0 0 0 0 0 0 0 0 0 0 0 1 0"/>
<feBlend mode="normal" in2="BackgroundImageFix" result="effect1_dropShadow"/>
<feBlend mode="normal" in="SourceGraphic" in2="effect1_dropShadow" result="shape"/>
</filter>
<filter id="filter1_d" x="128.05" y="273.819" width="87.0734" height="37.0037" filterUnits="userSpaceOnUse" color-interpolation-filters="sRGB">
<feFlood flood-opacity="0" result="BackgroundImageFix"/>
<feColorMatrix in="SourceAlpha" type="matrix" values="0 0 0 0 0 0 0 0 0 0 0 0 0 0 0 0 0 0 127 0"/>
<feOffset dx="1" dy="1"/>
<feColorMatrix type="matrix" values="0 0 0 0 0 0 0 0 0 0 0 0 0 0 0 0 0 0 1 0"/>
<feBlend mode="normal" in2="BackgroundImageFix" result="effect1_dropShadow"/>
<feBlend mode="normal" in="SourceGraphic" in2="effect1_dropShadow" result="shape"/>
</filter>
<clipPath id="clip0">
<rect width="250" height="333.333" fill="white"/>
</clipPath>
</defs>
</svg>
