<svg width="250" height="334" viewBox="0 0 250 334" fill="none" xmlns="http://www.w3.org/2000/svg">
<g clip-path="url(#clip0)">
<rect width="250" height="333.333" fill="white"/>
<path d="M19.0679 69.3727L-84.4627 -18.4657L-84.4828 -11.9903L19.0679 69.3727Z" fill="#F40C7A" fill-opacity="0.8"/>
<path d="M-83.186 12.7382L-45.5921 38.953L-83.1976 16.4664L-83.186 12.7382Z" fill="#F40C7A" fill-opacity="0.8"/>
<path d="M-82.7144 20.9396L-33.8756 55.2243L-82.7281 25.3557L-82.7144 20.9396Z" fill="#F40C7A" fill-opacity="0.8"/>
<path d="M-83.1432 -1.05031L-50.3407 24.5363L-82.6584 2.9073L-83.1432 -1.05031Z" fill="#F40C7A" fill-opacity="0.8"/>
<path d="M-82.1509 76.4375L-82.1338 70.9286L12.9678 111.249L-82.1509 76.4375Z" fill="#F40C7A" fill-opacity="0.8"/>
<path d="M-81.6178 85.7708L-81.6021 80.7115L12.9518 116.42L-81.6178 85.7708Z" fill="#F40C7A" fill-opacity="0.8"/>
<path d="M-8.12873 134.568L-81.1604 119.501L-81.1744 123.998L-8.12873 134.568Z" fill="#F40C7A" fill-opacity="0.8"/>
<path d="M-81.143 113.879L-81.1304 109.832L-36.6469 122.112L-81.143 113.879Z" fill="#F40C7A" fill-opacity="0.8"/>
<path d="M-82.3521 141.196L-82.3403 137.373L-11.7613 145.8L-82.3521 141.196Z" fill="#F40C7A" fill-opacity="0.8"/>
<path d="M-84.5892 173.681L-84.5777 169.97L-12.6158 167.496L-84.5892 173.681Z" fill="#F40C7A" fill-opacity="0.8"/>
<path d="M-84.6126 181.213L-84.6056 178.965L-45.3573 175.489L-84.6126 181.213Z" fill="#F40C7A" fill-opacity="0.8"/>
<path d="M-84.6248 185.148L-84.6175 182.787L-70.2219 181.258L-84.6248 185.148Z" fill="#F40C7A" fill-opacity="0.8"/>
<path d="M-84.6667 198.639L-84.6591 196.166L-62.0531 193.65L-84.6667 198.639Z" fill="#F40C7A" fill-opacity="0.8"/>
<path d="M-83.6741 204.826L-84.6758 201.563L-33.3789 192.053L-83.6741 204.826Z" fill="#F40C7A" fill-opacity="0.8"/>
<path d="M-82.8061 214.947L-82.7925 210.563L-18.998 195.246L-82.8061 214.947Z" fill="#F40C7A" fill-opacity="0.8"/>
<path d="M-81.9231 220.234L-81.914 217.311L-44.7805 206.971L-81.9231 220.234Z" fill="#F40C7A" fill-opacity="0.8"/>
<path d="M-54.149 218.859L-84.3093 228.322L-84.3159 230.458L-54.149 218.859Z" fill="#F40C7A" fill-opacity="0.8"/>
<path d="M-82.8725 236.309L-10.0471 209.215L-81.9818 239.122L-82.8725 236.309Z" fill="#F40C7A" fill-opacity="0.8"/>
<path d="M-83.8257 253.62L4.67321 211.734L-84.3672 246.985L-83.8257 253.62Z" fill="#F40C7A" fill-opacity="0.8"/>
<path d="M-82.0712 267.903L10.9444 219.736L-80.6271 273.529L-82.0712 267.903Z" fill="#F40C7A" fill-opacity="0.8"/>
<path d="M-84.4664 278.914L-51.0214 261.592L-83.1247 281.279L-84.4664 278.914Z" fill="#F40C7A" fill-opacity="0.8"/>
<path d="M-83.9162 282.738L-11.3812 240.578L-82.1355 288.59L-83.9162 282.738Z" fill="#F40C7A" fill-opacity="0.8"/>
<path d="M-83.175 297.469L-83.9413 290.833L7.63576 235.241L-83.175 297.469Z" fill="#F40C7A" fill-opacity="0.8"/>
<path d="M-59.1778 302.209L0.370191 257.816L-80.7861 324.684L-82.2312 319.395L-81.5115 318.859L-85.4864 317.699L-81.0342 314.535L-83.2186 311.522L-23.7214 268.085L-66.9678 304.54L-34.4436 281.43L-59.1778 302.209Z" fill="#F40C7A" fill-opacity="0.8"/>
<path d="M-84.6963 352.891L7.30331 269.868L-83.3755 362.002L-84.6963 352.891Z" fill="#F40C7A" fill-opacity="0.8"/>
<path d="M-53.3068 374.672L54.8109 249.227L-41.5267 372.55L-53.3068 374.672Z" fill="#F40C7A" fill-opacity="0.8"/>
<path d="M-26.8264 377.893L32.6918 294.879L-17.4113 379.1L-26.8264 377.893Z" fill="#F40C7A" fill-opacity="0.8"/>
<path d="M-30.7344 372.583L18.1224 310.531L-24.0461 372.604L-30.7344 372.583Z" fill="#F40C7A" fill-opacity="0.8"/>
<path d="M-8.75729 372.651L44.6729 291.233L1.63588 374.842L-8.75729 372.651Z" fill="#F40C7A" fill-opacity="0.8"/>
<path d="M10.2697 374.869L31.1804 339.221L14.7829 374.883L10.2697 374.869Z" fill="#F40C7A" fill-opacity="0.8"/>
<path d="M26.5563 374.92L42.7381 345.536L31.0658 376.111L26.5563 374.92Z" fill="#F40C7A" fill-opacity="0.8"/>
<path d="M35.1902 374.946L78.0756 276.967L42.6467 374.97L35.1902 374.946Z" fill="#F40C7A" fill-opacity="0.8"/>
<path d="M56.2669 376.189L76.5904 319.407L62.9862 375.033L56.2669 376.189Z" fill="#F40C7A" fill-opacity="0.8"/>
<path d="M69.1911 377.307L96.6914 280.183L74.2312 376.245L69.1911 377.307Z" fill="#F40C7A" fill-opacity="0.8"/>
<path d="M123.427 375.221L125.279 319.559L127.456 375.233L123.427 375.221Z" fill="#F40C7A" fill-opacity="0.8"/>
<path d="M134.172 375.254L133.585 293.897L139.544 375.271L134.172 375.254Z" fill="#F40C7A" fill-opacity="0.8"/>
<path d="M151.297 375.307L144.641 301.822L156.501 375.323L151.297 375.307Z" fill="#F40C7A" fill-opacity="0.8"/>
<path d="M158.856 374.06L154.264 338.788L162.041 375.341L158.856 374.06Z" fill="#F40C7A" fill-opacity="0.8"/>
<path d="M178.327 375.391L159.086 299.852L182.524 375.404L178.327 375.391Z" fill="#F40C7A" fill-opacity="0.8"/>
<path d="M200.492 374.189L193.682 350.495L202.507 374.195L200.492 374.189Z" fill="#F40C7A" fill-opacity="0.8"/>
<path d="M232.048 376.638L189.833 292.561L226.844 376.622L232.048 376.638Z" fill="#F40C7A" fill-opacity="0.8"/>
<path d="M242.293 375.59L223.277 335.645L244.815 374.327L242.293 375.59Z" fill="#F40C7A" fill-opacity="0.8"/>
<path d="M272.513 375.684L232.225 319.891L267.977 376.749L272.513 375.684Z" fill="#F40C7A" fill-opacity="0.8"/>
<path d="M282.416 376.794L194.002 247.746L289.642 374.466L282.416 376.794Z" fill="#F40C7A" fill-opacity="0.8"/>
<path d="M305.756 375.787L207.597 249.132L318.02 373.043L305.756 375.787Z" fill="#F40C7A" fill-opacity="0.8"/>
<path d="M333.072 337.833L239.315 253.26L333.104 327.591L333.072 337.833Z" fill="#F40C7A" fill-opacity="0.8"/>
<path d="M332.507 303.413L245.559 243.038L332.486 310.465L332.507 303.413Z" fill="#F40C7A" fill-opacity="0.8"/>
<path d="M334.341 253.555L236.933 209.6L330.971 257.574L334.341 253.555Z" fill="#F40C7A" fill-opacity="0.8"/>
<path d="M335.889 241.639L257.407 212.35L334.358 248.015L335.889 241.639Z" fill="#F40C7A" fill-opacity="0.8"/>
<path d="M334.488 206.21L257.477 189.685L334.473 211.247L334.488 206.21Z" fill="#F40C7A" fill-opacity="0.8"/>
<path d="M334.539 189.925L263.884 181.143L334.52 195.969L334.539 189.925Z" fill="#F40C7A" fill-opacity="0.8"/>
<path d="M337.678 152.159L253.055 154.078L336.157 155.512L337.678 152.159Z" fill="#F40C7A" fill-opacity="0.8"/>
<path d="M334.622 163.23L284.087 163.073L332.45 159.698L334.622 163.23Z" fill="#F40C7A" fill-opacity="0.8"/>
<path d="M337.795 114.719L245.569 131.893L336.267 120.087L337.795 114.719Z" fill="#F40C7A" fill-opacity="0.8"/>
<path d="M334.78 112.191L334.789 109.505L293.959 119.955L334.78 112.191Z" fill="#F40C7A" fill-opacity="0.8"/>
<path d="M332.984 99.6973L332.994 96.3852L286.213 110.592L332.984 99.6973Z" fill="#F40C7A" fill-opacity="0.8"/>
<path d="M331.843 82.203L331.835 84.6973L289.655 98.3666L314.973 88.2312L251.159 111.035L334.251 76.7926L334.877 81.1187L331.843 82.203Z" fill="#F40C7A" fill-opacity="0.8"/>
<path d="M333.114 57.9285L333.133 51.8564L279.405 80.9463L333.114 57.9285Z" fill="#F40C7A" fill-opacity="0.8"/>
<path d="M333.162 42.3803L333.169 40.3562L314.092 50.6932L333.162 42.3803Z" fill="#F40C7A" fill-opacity="0.8"/>
<path d="M333.642 35.9416L333.654 32.0775L236.773 92.2222L333.642 35.9416Z" fill="#F40C7A" fill-opacity="0.8"/>
<path d="M332.663 25.3583L332.033 20.9402L260.026 70.3058L332.663 25.3583Z" fill="#F40C7A" fill-opacity="0.8"/>
<path d="M333.737 5.39705L333.288 1.89956L292.99 31.9512L333.737 5.39705Z" fill="#F40C7A" fill-opacity="0.8"/>
<path d="M333.731 7.23708L332.705 11.926L331.593 12.683L332.047 16.3401L286.599 45.5477L313.214 25.1977L267.337 56.4361L333.731 7.23708Z" fill="#F40C7A" fill-opacity="0.8"/>
<path d="M333.844 -28.9195L333.86 -34.0716L233.188 61.6662L333.844 -28.9195Z" fill="#F40C7A" fill-opacity="0.8"/>
<path d="M309.039 -40.5889L299.931 -40.6172L270.826 -0.502567L309.039 -40.5889Z" fill="#F40C7A" fill-opacity="0.8"/>
<path d="M292.847 -40.6392L287.511 -40.6558L225.435 39.8375L292.847 -40.6392Z" fill="#F40C7A" fill-opacity="0.8"/>
<path d="M283.921 -39.931L278.127 -40.685L224.908 31.7396L283.921 -39.931Z" fill="#F40C7A" fill-opacity="0.8"/>
<path d="M276.1 -39.9552L267.636 -39.9815L215.418 36.2183L276.1 -39.9552Z" fill="#F40C7A" fill-opacity="0.8"/>
<path d="M256.966 -40.7507L251.63 -40.7673L215.558 20.9463L256.966 -40.7507Z" fill="#F40C7A" fill-opacity="0.8"/>
<path d="M224.212 -40.1165C221.79 -40.3693 216.872 -40.8753 216.578 -40.8762L181.82 41.6341L224.212 -40.1165Z" fill="#F40C7A" fill-opacity="0.8"/>
<path d="M209.031 -40.1636L204.615 -40.1774L177.255 30.5796L209.031 -40.1636Z" fill="#F40C7A" fill-opacity="0.8"/>
<path d="M202.68 -39.2633L199.092 -39.2745L179.592 18.7185L202.68 -39.2633Z" fill="#F40C7A" fill-opacity="0.8"/>
<path d="M182.443 -40.2462L178.487 -40.2585L167.861 3.86965L182.443 -40.2462Z" fill="#F40C7A" fill-opacity="0.8"/>
<path d="M175.727 -40.2671L172.047 -40.2785L154.306 43.4806L175.727 -40.2671Z" fill="#F40C7A" fill-opacity="0.8"/>
<path d="M171.219 -40.2811L169.563 -40.2863L166.278 -19.5039L171.219 -40.2811Z" fill="#F40C7A" fill-opacity="0.8"/>
<path d="M154.474 -40.3331L148.402 -40.352L140.215 48.221L154.474 -40.3331Z" fill="#F40C7A" fill-opacity="0.8"/>
<path d="M94.7467 -44.1233L89.4618 -44.1397L100.255 2.84435L94.7467 -44.1233Z" fill="#F40C7A" fill-opacity="0.8"/>
<path d="M79.8751 -44.1695L97.5731 35.1606L74.9589 -44.1848L79.8751 -44.1695Z" fill="#F40C7A" fill-opacity="0.8"/>
<path d="M72.8656 -42.9622L69.5472 -42.9725C72.9548 -32.1051 79.7705 -10.4933 79.772 -10.9849C79.7735 -11.4765 75.1684 -32.5079 72.8656 -42.9622Z" fill="#F40C7A" fill-opacity="0.8"/>
<path d="M54.6721 -41.9126L51.1079 -41.9236L82.3293 36.2194L54.6721 -41.9126Z" fill="#F40C7A" fill-opacity="0.8"/>
<path d="M17.0629 -42.0294L25.301 -43.11L67.0561 46.742L34.7918 -10.5487L61.4089 44.635L23.1213 -20.4534L46.595 26.03L4.6494 -42.068L11.6585 -43.1524L13.2748 -39.9518L18.2417 -39.9363L17.0629 -42.0294Z" fill="#F40C7A" fill-opacity="0.8"/>
<path d="M-12.1853 -43.2265L-19.0715 -42.1417L60.3539 67.7383L-12.1853 -43.2265Z" fill="#F40C7A" fill-opacity="0.8"/>
<path d="M-20.7948 -41.2867L-27.6814 -40.079L49.8191 56.3981L-20.7948 -41.2867Z" fill="#F40C7A" fill-opacity="0.8"/>
<path d="M-57.7385 -45.4829L10.0515 33.3597L-64.1964 -43.0457L-57.7385 -45.4829Z" fill="#AD4778" fill-opacity="0.8"/>
<path d="M-69.564 -45.5197L30.0828 61.5267L-77.7135 -42.3198L-69.564 -45.5197Z" fill="#AD4778" fill-opacity="0.8"/>
<path d="M-83.3982 -41.5696L30.0584 69.3591L-84.6631 -29.9016L-83.3982 -41.5696Z" fill="#AD4778" fill-opacity="0.8"/>
<path d="M-82.2784 -6.55033L20.3717 73.0149L-82.3037 1.58923L-82.2784 -6.55033Z" fill="#AD4778" fill-opacity="0.8"/>
<path d="M-86.0873 33.061L20.2949 97.7407L-86.1074 39.5112L-86.0873 33.061Z" fill="#AD4778" fill-opacity="0.8"/>
<path d="M-86.1866 65.0049L-19.0155 95.9292L-86.2042 70.6872L-86.1866 65.0049Z" fill="#AD4778" fill-opacity="0.8"/>
<path d="M-84.1729 59.4824L-56.2664 73.8518L-84.1825 62.5539L-84.1729 59.4824Z" fill="#AD4778" fill-opacity="0.8"/>
<path d="M-85.0425 92.1918L-48.8342 103.823L-85.0534 95.724L-85.0425 92.1918Z" fill="#AD4778" fill-opacity="0.8"/>
<path d="M-83.1066 111.702L-49.6526 120.099L-83.1166 114.927L-83.1066 111.702Z" fill="#AD4778" fill-opacity="0.8"/>
<path d="M-83.1404 122.606L-47.3814 130.55L-81.9233 126.296L-83.1404 122.606Z" fill="#AD4778" fill-opacity="0.8"/>
<path d="M-85.3602 145.022L-11.0468 150.935L-85.3778 150.704L-85.3602 145.022Z" fill="#AD4778" fill-opacity="0.8"/>
<path d="M-87.7874 184.791L-26.796 178.069L-87.7955 187.402L-87.7874 184.791Z" fill="#AD4778" fill-opacity="0.8"/>
<path d="M-85.1146 214.286L-24.5597 199.731L-85.1247 217.511L-85.1146 214.286Z" fill="#AD4778" fill-opacity="0.8"/>
<path d="M-85.1442 223.808L-26.8857 206.942L-85.1547 227.187L-85.1442 223.808Z" fill="#AD4778" fill-opacity="0.8"/>
<path d="M-85.1891 238.244L-50.1393 227.295L-85.1986 241.316L-85.1891 238.244Z" fill="#AD4778" fill-opacity="0.8"/>
<path d="M-84.3545 266.198L-69.4384 260.101L-84.3611 268.348L-84.3545 266.198Z" fill="#AD4778" fill-opacity="0.8"/>
<path d="M-86.6738 271.259L-7.3081 232.804L-85.3093 276.945L-86.6738 271.259Z" fill="#AD4778" fill-opacity="0.8"/>
<path d="M-86.7106 283.084L-51.6364 264.303L-85.3384 286.314L-86.7106 283.084Z" fill="#AD4778" fill-opacity="0.8"/>
<path d="M-84.4609 300.445L-5.36313 249.396L-83.0896 303.982L-84.4609 300.445Z" fill="#AD4778" fill-opacity="0.8"/>
<path d="M-86.8494 327.775L-9.41577 268.581L-50.0023 303.116L-19.5871 279.914L-83.1841 334.39L-83.8673 331.932L-85.4844 333.308L-86.8494 327.775Z" fill="#AD4778" fill-opacity="0.8"/>
<path d="M-84.5778 338.072L6.7279 262.795L-83.2118 343.298L-84.5778 338.072Z" fill="#AD4778" fill-opacity="0.8"/>
<path d="M-84.653 362.275L29.8988 253.6L-83.3022 372.395L-84.653 362.275Z" fill="#AD4778" fill-opacity="0.8"/>
<path d="M-77.6601 376.319L-12.8947 310.271L-69.7778 376.344L-77.6601 376.319Z" fill="#AD4778" fill-opacity="0.8"/>
<path d="M-65.079 374.106L-18.5663 323.579L-44.0676 355.107L-18.58 327.987L-55.5025 372.482L-58.1141 372.474L-59.4488 374.124L-65.079 374.106Z" fill="#AD4778" fill-opacity="0.8"/>
<path d="M-38.2488 376.442L9.42376 315.032L-31.3049 376.463L-38.2488 376.442Z" fill="#AD4778" fill-opacity="0.8"/>
<path d="M-45.7487 374.166L3.04871 313.136L-39.5555 374.186L-45.7487 374.166Z" fill="#AD4778" fill-opacity="0.8"/>
<path d="M-3.34158 376.55L63.4429 264.661L6.37438 376.58L-3.34158 376.55Z" fill="#AD4778" fill-opacity="0.8"/>
<path d="M47.3371 374.456L86.1294 271.796L54.844 374.479L47.3371 374.456Z" fill="#AD4778" fill-opacity="0.8"/>
<path d="M85.7996 377.953L103.308 299.935L93.4942 377.977L85.7996 377.953Z" fill="#AD4778" fill-opacity="0.8"/>
<path d="M76.9789 377.926L91.4234 319.604L82.4215 377.943L76.9789 377.926Z" fill="#AD4778" fill-opacity="0.8"/>
<path d="M113.393 376.35L117.161 311.238L108.519 374.646L113.393 376.35Z" fill="#AD4778" fill-opacity="0.8"/>
<path d="M130.462 379.406L129.226 293.822L133.652 379.416L130.462 379.406Z" fill="#AD4778" fill-opacity="0.8"/>
<path d="M143.415 378.132L137.004 267.196L147.919 378.146L143.415 378.132Z" fill="#AD4778" fill-opacity="0.8"/>
<path d="M169.314 378.213L156.035 302.914L174.569 378.229L169.314 378.213Z" fill="#AD4778" fill-opacity="0.8"/>
<path d="M193.524 378.288L176.451 316.114L198.028 378.302L193.524 378.288Z" fill="#AD4778" fill-opacity="0.8"/>
<path d="M206.286 378.328L167.407 267.291L213.605 378.35L206.286 378.328Z" fill="#AD4778" fill-opacity="0.8"/>
<path d="M217.921 378.364L187.214 295.128L226.565 375.012L217.921 378.364Z" fill="#AD4778" fill-opacity="0.8"/>
<path d="M231.058 378.404L206.463 321.087L234.437 378.415L231.058 378.404Z" fill="#AD4778" fill-opacity="0.8"/>
<path d="M252.088 375.092L192.176 268.494L261.66 375.121L252.088 375.092Z" fill="#AD4778" fill-opacity="0.8"/>
<path d="M289.242 376.896L226.835 288.12L297.13 375.232L289.242 376.896Z" fill="#AD4778" fill-opacity="0.8"/>
<path d="M312.331 375.279L223.521 267.465L326.97 375.324L312.331 375.279Z" fill="#AD4778" fill-opacity="0.8"/>
<path d="M331.309 368.018L282.305 314.191L333.209 360.517L331.309 368.018Z" fill="#AD4778" fill-opacity="0.8"/>
<path d="M335.222 316.608L265.013 262.152L336.373 308.541L335.222 316.608Z" fill="#AD4778" fill-opacity="0.8"/>
<path d="M334.184 288.453L276.691 248.675L334.208 280.571L334.184 288.453Z" fill="#AD4778" fill-opacity="0.8"/>
<path d="M334.222 276.255L302.934 258.704L334.233 272.689L334.222 276.255Z" fill="#AD4778" fill-opacity="0.8"/>
<path d="M332.574 261.64L258.32 223.04L334.282 256.915L332.574 261.64Z" fill="#AD4778" fill-opacity="0.8"/>
<path d="M336.022 251.401L259.78 218.314L337.45 256.925L336.022 251.401Z" fill="#AD4778" fill-opacity="0.8"/>
<path d="M334.335 239.833L303.029 228.303L332.632 242.718L334.335 239.833Z" fill="#AD4778" fill-opacity="0.8"/>
<path d="M332.668 231.155L277.932 212.326L332.658 234.571L332.668 231.155Z" fill="#AD4778" fill-opacity="0.8"/>
<path d="M332.752 204.349L332.756 203.035L322.908 200.93L332.752 204.349Z" fill="#AD4778" fill-opacity="0.8"/>
<path d="M332.828 179.909L255.979 172.837L332.81 185.559L332.828 179.909Z" fill="#AD4778" fill-opacity="0.8"/>
<path d="M334.342 157.706L254.181 159.428L334.331 161.386L334.342 157.706Z" fill="#AD4778" fill-opacity="0.8"/>
<path d="M334.413 134.974L305.491 139.22L334.404 137.865L334.413 134.974Z" fill="#AD4778" fill-opacity="0.8"/>
<path d="M333.784 125.905L274.227 135.97L333.768 131.03L333.784 125.905Z" fill="#AD4778" fill-opacity="0.8"/>
<path d="M333.854 103.173L246.534 125.634L333.842 107.246L333.854 103.173Z" fill="#AD4778" fill-opacity="0.8"/>
<path d="M334.577 82.0194L244.853 116.562L334.568 85.0416L334.577 82.0194Z" fill="#AD4778" fill-opacity="0.8"/>
<path d="M337.841 88.9938L270.887 111.518L337.83 92.4102L337.841 88.9938Z" fill="#AD4778" fill-opacity="0.8"/>
<path d="M333.983 61.6502L334.008 53.7661L260.698 92.1706L333.983 61.6502Z" fill="#AD4778" fill-opacity="0.8"/>
<path d="M334.056 38.2608L334.727 33.7952L242.31 89.4854L334.056 38.2608Z" fill="#AD4778" fill-opacity="0.8"/>
<path d="M333.057 21.4382L333.063 19.4672L302.251 40.133L333.057 21.4382Z" fill="#AD4778" fill-opacity="0.8"/>
<path d="M302.231 46.4403L333.042 26.1686L333.033 29.0595L302.231 46.4403Z" fill="#AD4778" fill-opacity="0.8"/>
<path d="M332.353 -5.63285L333.168 -14.3029L225.258 79.4459L332.353 -5.63285Z" fill="#AD4778" fill-opacity="0.8"/>
<path d="M334.901 -22.0993L334.277 -32.8803L232.821 63.3573L334.901 -22.0993Z" fill="#AD4778" fill-opacity="0.8"/>
<path d="M334.946 -36.5477L332.473 -44.353L241.36 46.2511L334.946 -36.5477Z" fill="#AD4778" fill-opacity="0.8"/>
<path d="M306.55 -45.8096L298.064 -45.8359L242.502 27.6101L306.55 -45.8096Z" fill="#AD4778" fill-opacity="0.8"/>
<path d="M294.395 -45.8473L287.285 -45.8694L202.536 67.3913L294.395 -45.8473Z" fill="#AD4778" fill-opacity="0.8"/>
<path d="M257.471 -45.962L245.359 -45.9997L207.014 28.6679L257.471 -45.962Z" fill="#AD4778" fill-opacity="0.8"/>
<path d="M229.71 -42.6082L222.372 -42.631L182.645 47.3768L229.71 -42.6082Z" fill="#AD4778" fill-opacity="0.8"/>
<path d="M207.235 -42.678L202.878 -42.6915L185.509 11.3791L207.235 -42.678Z" fill="#AD4778" fill-opacity="0.8"/>
<path d="M198.291 -42.7058L193.245 -42.7215L168.456 37.7463L198.291 -42.7058Z" fill="#AD4778" fill-opacity="0.8"/>
<path d="M179.725 -46.2036L175.138 -46.2179L156.76 37.7099L179.725 -46.2036Z" fill="#AD4778" fill-opacity="0.8"/>
<path d="M157.016 -44.8981L152.659 -44.9116L145.544 30.5196L157.016 -44.8981Z" fill="#AD4778" fill-opacity="0.8"/>
<path d="M140.275 -44.9501L132.936 -44.9729L135.087 0.902072L140.275 -44.9501Z" fill="#AD4778" fill-opacity="0.8"/>
<path d="M119.863 -45.0135L115.965 -45.0257L121.306 7.28082L119.863 -45.0135Z" fill="#AD4778" fill-opacity="0.8"/>
<path d="M109.772 -45.0449L105.186 -45.0591L115.73 30.427L109.772 -45.0449Z" fill="#AD4778" fill-opacity="0.8"/>
<path d="M35.0014 -43.2131L28.8092 -43.2324L75.3087 48.8781L35.0014 -43.2131Z" fill="#AD4778" fill-opacity="0.8"/>
<path d="M-28.2963 -43.4098L-37.242 -42.962L26.9608 34.9674L-28.2963 -43.4098Z" fill="#AD4778" fill-opacity="0.8"/>
<path d="M-3.75846 -42.858L-9.4983 -40.8286L27.0357 10.8867L-3.75846 -42.858Z" fill="#AD4778" fill-opacity="0.8"/>
<path d="M221.946 293.826L10.5211 284.289L35.6696 90.0139L232.351 102.803L221.946 293.826Z" fill="#585555" stroke="black"/>
<path d="M222.994 295.927L11.9956 289.979L33.6921 91.8889L230.045 101.407L222.994 295.927Z" fill="#E7E7E7" stroke="black"/>
<path d="M238.004 288.234L23.0679 296.112V101.544L223.773 96.053L238.004 288.234Z" fill="#FCFCFC" stroke="black"/>
<g filter="url(#filter0_d)">
<rect x="35.8772" y="273.819" width="86.0734" height="36.0037" fill="white"/>
<rect x="36.3772" y="274.319" width="85.0734" height="35.0037" stroke="black"/>
</g>
<circle cx="40.5067" cy="278.251" r="1.9365" fill="black"/>
<circle cx="118.243" cy="306.099" r="1.9365" fill="black"/>
<circle cx="118.243" cy="278.251" r="1.9365" fill="black"/>
<circle cx="40.5067" cy="306.099" r="1.9365" fill="black"/>
<g filter="url(#filter1_d)">
<rect x="128.05" y="273.819" width="86.0734" height="36.0037" fill="white"/>
<rect x="128.55" y="274.319" width="85.0734" height="35.0037" stroke="black"/>
</g>
<circle cx="132.679" cy="278.251" r="1.9365" fill="black"/>
<circle cx="210.415" cy="306.099" r="1.9365" fill="black"/>
<circle cx="210.415" cy="278.251" r="1.9365" fill="black"/>
<circle cx="132.679" cy="306.099" r="1.9365" fill="black"/>
<path d="M80.4898 23.9603L182.893 30.6324L177.394 81.1802L59.5901 74.646L80.4898 23.9603Z" fill="white" fill-opacity="0.5"/>
<path d="M169.539 26.1409L66.9269 27.4236L69.7629 78.1905L187.747 77.8547L169.539 26.1409Z" fill="white" fill-opacity="0.8"/>
<path d="M78.4281 29.0449L78.0719 29.0719L77.9819 29.4175L64.8841 79.6961L64.7255 80.3048L65.3543 80.322L173.517 83.2796L174.03 83.2936V82.7798V22.3609V21.8217L173.493 21.8623L78.4281 29.0449Z" stroke="black"/>
<path d="M102.693 22.7738L75.4554 25.6662L75.1373 25.7L75.0346 26.0029L68.6301 44.8963L72.131 24.5273L102.693 22.7738Z" fill="black" stroke="black"/>
<path d="M167.416 87.3386C147.727 87.9669 133.72 86.9525 120.906 85.871C131.708 86.0106 144.07 86.3905 154.445 86.7881C159.336 86.9755 163.783 87.1668 167.416 87.3386Z" fill="black" stroke="black"/>
<path d="M85.5679 41.9516L110.918 35.1914V40.6841L89.3705 44.9092L90.2155 54.6269L107.961 49.9793L107.116 54.6269L90.638 58.852L92.328 68.9922L110.918 66.4572L111.341 71.9498L89.3705 74.4848L85.5679 41.9516Z" fill="black"/>
<path d="M112.608 35.1914L119.791 32.6564L111.341 71.5273L131.621 70.2598L128.664 76.1749H105.003L112.608 35.1914Z" fill="black"/>
<path fill-rule="evenodd" clip-rule="evenodd" d="M130.354 40.2616L136.692 38.5715L151.057 81.245L143.029 80.4L139.649 64.3446L132.466 65.1897L130.354 79.555H124.439L130.354 40.2616ZM132.044 60.9646L134.156 44.9092L138.804 59.697L132.044 60.9646Z" fill="black"/>
<path d="M143.874 39.1812L147.043 77.4424L152.324 72.2011L150.212 47.0431L162.887 70.6288L169.225 69.0564L167.64 37.6088H161.831L163.943 62.7669L150.212 36.0364L143.874 39.1812Z" fill="black"/>
<path d="M84.579 41.1957L109.93 34.4355V39.9281L88.3816 44.1532L89.2266 53.871L106.972 49.2233L106.127 53.871L89.6491 58.096L91.3391 68.2363L109.93 65.7012L110.352 71.1939L88.3816 73.7289L84.579 41.1957Z" fill="white"/>
<path d="M111.62 34.4355L118.802 31.9005L110.352 70.7714L130.633 69.5038L127.675 75.419H104.014L111.62 34.4355Z" fill="white"/>
<path fill-rule="evenodd" clip-rule="evenodd" d="M129.365 39.5057L135.703 37.8156L150.068 80.4891L142.04 79.6441L138.66 63.5887L131.478 64.4337L129.365 78.7991H123.45L129.365 39.5057ZM131.055 60.2086L133.168 44.1533L137.815 58.9411L131.055 60.2086Z" fill="white"/>
<path d="M142.885 38.4253L146.054 76.6865L151.335 71.4452L149.223 46.2872L161.898 69.8728L168.236 68.3005L166.651 36.8529H160.842L162.954 62.0109L149.223 35.2805L142.885 38.4253Z" fill="white"/>
<path d="M81.4235 39.6837L106.774 32.9236V38.4162L85.226 42.6413L86.0711 52.359L103.816 47.7114L102.971 52.359L86.4936 56.5841L88.1836 66.7244L106.774 64.1893L107.197 69.6819L85.226 72.217L81.4235 39.6837Z" fill="black" stroke="black"/>
<path d="M108.464 32.9236L115.647 30.3885L107.197 69.2594L127.477 67.9919L124.519 73.907H100.859L108.464 32.9236Z" fill="black" stroke="black"/>
<path fill-rule="evenodd" clip-rule="evenodd" d="M126.209 37.9937L132.547 36.3037L146.912 78.9772L138.885 78.1321L135.505 62.0768L128.322 62.9218L126.209 77.2871H120.294L126.209 37.9937ZM127.899 58.6967L130.012 42.6413L134.66 57.4292L127.899 58.6967Z" fill="black" stroke="black"/>
<path d="M139.73 36.9133L142.899 75.1745L148.18 69.9333L146.067 44.7752L158.743 68.3609L165.08 66.7885L163.496 35.341H157.686L159.799 60.499L146.067 33.7686L139.73 36.9133Z" fill="black" stroke="black"/>
<path d="M118.805 32.6092L118.681 32.4169L118.871 32.5731L118.805 32.6092Z" stroke="black"/>
<rect x="1" y="0.917747" width="248" height="331.33" stroke="#131313" stroke-width="2"/>
</g>
<defs>
<filter id="filter0_d" x="35.8772" y="273.819" width="87.0734" height="37.0037" filterUnits="userSpaceOnUse" color-interpolation-filters="sRGB">
<feFlood flood-opacity="0" result="BackgroundImageFix"/>
<feColorMatrix in="SourceAlpha" type="matrix" values="0 0 0 0 0 0 0 0 0 0 0 0 0 0 0 0 0 0 127 0"/>
<feOffset dx="1" dy="1"/>
<feColorMatrix type="matrix" values="0 0 0 0 0 0 0 0 0 0 0 0 0 0 0 0 0 0 1 0"/>
<feBlend mode="normal" in2="BackgroundImageFix" result="effect1_dropShadow"/>
<feBlend mode="normal" in="SourceGraphic" in2="effect1_dropShadow" result="shape"/>
</filter>
<filter id="filter1_d" x="128.05" y="273.819" width="87.0734" height="37.0037" filterUnits="userSpaceOnUse" color-interpolation-filters="sRGB">
<feFlood flood-opacity="0" result="BackgroundImageFix"/>
<feColorMatrix in="SourceAlpha" type="matrix" values="0 0 0 0 0 0 0 0 0 0 0 0 0 0 0 0 0 0 127 0"/>
<feOffset dx="1" dy="1"/>
<feColorMatrix type="matrix" values="0 0 0 0 0 0 0 0 0 0 0 0 0 0 0 0 0 0 1 0"/>
<feBlend mode="normal" in2="BackgroundImageFix" result="effect1_dropShadow"/>
<feBlend mode="normal" in="SourceGraphic" in2="effect1_dropShadow" result="shape"/>
</filter>
<clipPath id="clip0">
<rect width="250" height="333.333" fill="white"/>
</clipPath>
</defs>
</svg>
