<svg width="480" height="270" viewBox="0 0 480 270" fill="none" xmlns="http://www.w3.org/2000/svg">
<g id="Frame 30" clip-path="url(#clip0)">
<g id="shadow">
<path d="M355.137 71.628H128.16V213.005H355.137L451.339 142.317L355.137 71.628Z" fill="#7B7B7B"/>
<path d="M126.324 74.8973L185.746 100.768L126.324 152.508L69.1653 100.768L126.324 74.8973Z" fill="#7B7B7B"/>
<path d="M38.5816 94.9597L33.7271 104.837L69.1653 117.067L38.5816 94.9597Z" fill="#7B7B7B"/>
<path d="M45.378 117.067V126.004L69.1653 126.004L45.378 117.067Z" fill="#7B7B7B"/>
<path d="M213.929 94.9597C215.825 98.8172 216.888 100.98 218.784 104.838L183.345 117.067L213.929 94.9597Z" fill="#7B7B7B"/>
<path d="M207.133 117.067V126.004L183.345 126.004L207.133 117.067Z" fill="#7B7B7B"/>
<path d="M113.782 67.3206C104.256 62.0621 92.0608 80.6099 103.909 80.8025C107.336 80.9593 108.644 76.6069 108.644 76.6069C109.741 73.8098 121.75 72.5791 113.782 67.3206Z" fill="#7B7B7B"/>
<path fill-rule="evenodd" clip-rule="evenodd" d="M127.5 72.7819C114.982 60.2004 93.963 63.459 93.963 79.5705L102.09 93.4192H152.162L161.504 75.3163C160.383 68.1657 142.26 57.304 127.5 72.7819ZM112.083 74.0146C112.083 74.0146 120.183 71.387 113.796 67.5493C103.198 62.3286 92.4932 82.589 105.054 80.4454C106.644 79.7065 107.326 78.5886 108.014 77.4625C108.839 76.1122 109.671 74.7499 112.083 74.0146Z" fill="#7B7B7B"/>
<path d="M96.7451 94.4019V96.2395H157.67V94.3832L96.7451 94.4019Z" fill="#7B7B7B"/>
<path d="M96.9319 105.807V107.644H157.857V105.788L96.9319 105.807Z" fill="#7B7B7B"/>
<path d="M127.466 44.7203C123.54 46.7342 127.466 52.2724 127.466 52.2724C127.466 52.2724 131.796 46.902 127.466 44.7203Z" fill="#7B7B7B"/>
<path fill-rule="evenodd" clip-rule="evenodd" d="M96.7576 108.313H157.666V107.236H96.7576V108.313ZM96.7576 106.248H157.666V95.8363H96.7576V106.248ZM157.666 94.7592V93.2333C157.666 93.2333 163.738 79.5001 164.299 76.8971C164.794 75.3553 165.205 73.4703 165.258 71.5547C165.787 72.1632 166.704 72.4791 167.733 71.9805C169.712 70.8854 168.433 68.1519 166.471 68.5969C165.844 68.7463 165.413 69.0149 165.143 69.341C165.025 68.496 164.814 67.669 164.487 66.8877C165.011 67.1888 165.703 67.259 166.454 66.8949C168.433 65.7998 167.154 63.0663 165.191 63.5113C164.033 63.7877 163.541 64.4718 163.507 65.1726C163.086 64.6134 162.577 64.0978 161.967 63.6404C162.243 63.6212 162.535 63.5451 162.838 63.3986C164.816 62.3035 163.537 59.57 161.575 60.015C159.913 60.4114 159.622 61.6472 160.089 62.5674C155.955 60.7972 148.822 60.9254 136.927 64.9591C135.229 63.5233 132.892 62.4171 130.324 61.9013V59.2891C131.7 58.8474 132.627 58.0368 132.352 56.8882C132.352 55.6924 130.588 54.8484 128.569 54.5781V51.7111C129.212 50.4425 131.959 50.7168 131.959 52.4654C134.564 52.4654 134.885 47.3225 130.324 48.7968C132.138 43.5168 122.396 43.2082 124.573 48.7968C119.791 47.2882 120.398 52.9454 123.395 52.4654C123.645 51.0939 125.536 50.5111 126.571 51.7111V54.5039C124.609 54.6259 122.868 55.3536 122.717 56.8882C122.641 58.0671 123.583 58.8587 124.906 59.2891V61.7481C122.453 62.117 120.036 63.1217 117.963 64.9591C106.044 60.7092 98.0469 60.4503 93.3927 62.6044C94.5183 61.3587 93.3159 59.2573 91.5767 59.6516C88.6444 60.3511 89.9821 63.6642 92.214 63.2454C91.355 63.7912 90.6436 64.4389 90.0744 65.1734C90.2941 64.008 89.2445 62.7189 87.8497 63.0352C84.6519 63.798 86.5323 67.669 89.1126 66.4188C89.2064 66.3669 89.2929 66.3112 89.3724 66.2525C88.9717 66.995 88.6877 67.8044 88.5163 68.6691C88.1077 68.2062 87.4743 67.9347 86.747 68.0996C83.5493 68.8624 85.4296 72.7334 88.0099 71.4832C88.1275 71.4181 88.2335 71.3473 88.3286 71.2716C88.374 72.4031 88.5702 73.5963 88.9105 74.8326C90.4052 79.1411 96.7576 93.2333 96.7576 93.2333V94.7592H157.666ZM91.9932 73.7555C88.9105 63.5229 101.148 60.2916 117.309 66.9338C121.42 68.4597 123.849 79.8591 122.261 93.2333H101.989C101.989 93.2333 92.3669 76.8971 91.9932 73.7555ZM135.993 68.4597C131.72 72.8637 131.723 78.4004 131.728 87.3542C131.729 89.1674 131.73 91.1208 131.696 93.2333H152.154C152.154 93.2333 159.721 79.4104 160.562 76.8971C169.623 58.1373 138.422 63.882 135.993 68.4597ZM127.534 45.6425C125.85 46.6919 125.393 48.5568 127.534 52.1911C128.962 49.7225 129.854 47.3568 127.534 45.6425Z" fill="#7B7B7B"/>
<path d="M90.6204 59.8758C90.9353 59.5885 91.4787 59.4859 91.695 59.6314C91.7673 59.8 91.2122 59.8181 90.8984 60.09C90.5048 60.4311 90.557 60.7022 90.3483 60.6833C90.2093 60.5762 90.27 60.1544 90.6204 59.8758Z" fill="#7B7B7B"/>
<path d="M87.0918 63.252C87.4067 62.9647 87.9502 62.862 88.1665 63.0076C88.2388 63.1762 87.6837 63.1942 87.3699 63.4661C86.9762 63.8073 87.0285 64.0784 86.8197 64.0594C86.6807 63.9523 86.7414 63.5305 87.0918 63.252Z" fill="#7B7B7B"/>
<path d="M85.8128 68.5512C86.1278 68.2639 86.6712 68.1613 86.8875 68.3068C86.9598 68.4755 86.4047 68.4935 86.0909 68.7654C85.6972 69.1065 85.7495 69.3776 85.5408 69.3587C85.4017 69.2516 85.4625 68.8298 85.8128 68.5512Z" fill="#7B7B7B"/>
<path d="M166.635 63.7621C166.32 63.4748 165.777 63.3721 165.56 63.5177C165.488 63.6863 166.043 63.7043 166.357 63.9762C166.751 64.3174 166.698 64.5885 166.907 64.5695C167.046 64.4624 166.985 64.0406 166.635 63.7621Z" fill="#7B7B7B"/>
<path d="M163.008 60.2604C162.693 59.9732 162.149 59.8705 161.933 60.0161C161.861 60.1847 162.416 60.2027 162.73 60.4746C163.123 60.8158 163.071 61.0868 163.28 61.0679C163.419 60.9608 163.358 60.539 163.008 60.2604Z" fill="#7B7B7B"/>
<path d="M167.964 68.8858C167.649 68.5985 167.105 68.4958 166.889 68.6414C166.817 68.81 167.372 68.828 167.686 69.0999C168.079 69.4411 168.027 69.7122 168.236 69.6932C168.375 69.5861 168.314 69.1643 167.964 68.8858Z" fill="#7B7B7B"/>
<path d="M127.166 63.5177C121.67 63.4503 121.114 71.4042 127.166 71.7075C132.871 71.6401 133.427 63.9558 127.166 63.5177Z" fill="#7B7B7B"/>
<path d="M127.166 73.0219C123.409 73.0219 123.409 77.8415 127.166 77.8415C130.923 77.8415 130.644 73.0219 127.166 73.0219Z" fill="#7B7B7B"/>
<path d="M127.166 79.2774C124.999 79.2774 124.741 82.3602 127.166 82.3602C129.742 82.3602 129.212 79.2774 127.166 79.2774Z" fill="#7B7B7B"/>
<path d="M123.998 55.1763C124.583 54.5584 126.492 54.2605 126.709 54.7643C126.831 55.0506 125.285 55.0104 124.782 55.4466C123.998 55.6526 123.79 57.2141 123.201 56.9271C122.824 56.7436 123.267 55.7299 123.998 55.1763Z" fill="#7B7B7B"/>
<path d="M61.1293 134.838V165.501H71.9235V140.305L91.0586 127.707H51.8071L61.1293 134.838Z" fill="#7B7B7B"/>
<path d="M28.2562 167.641H61.1293V165.501V134.838L51.8071 135.175L28.2562 136.027L48.1273 151.239L28.2562 167.641Z" fill="#7B7B7B"/>
<path d="M180.601 140.305H166.372H91.0586H71.9235V165.501V179.763H180.601V165.501V140.305Z" fill="#7B7B7B"/>
<path d="M51.8071 135.175L61.1293 134.838L51.8071 127.707V135.175Z" fill="#7B7B7B"/>
<path d="M71.9235 140.305H91.0586V127.707L71.9235 140.305Z" fill="#7B7B7B"/>
<path d="M200.472 127.707H166.372L180.601 140.305V165.501H189.678V134.838L200.472 127.707Z" fill="#7B7B7B"/>
<path d="M166.372 140.305H180.601L166.372 127.707V140.305Z" fill="#7B7B7B"/>
<path d="M189.678 167.641H222.551L202.68 151.239L222.551 136.027L200.472 135.229L189.678 134.838V165.501V167.641Z" fill="#7B7B7B"/>
<path d="M189.678 134.838L200.472 135.229V127.707L189.678 134.838Z" fill="#7B7B7B"/>
<path d="M126.262 217.927L105.055 201.288V196.534V184.649V179.42H148.464V184.649V196.534V201.288L126.262 217.927Z" fill="#7B7B7B"/>
<path d="M100.651 196.534V187.85H85.7023L95.2603 193.661L85.7023 198.201H103.788L100.651 196.534Z" fill="#7B7B7B"/>
<path d="M154.106 187.85V196.534L149.753 198.201H169.431L161.466 193.661L169.431 187.85H154.106Z" fill="#7B7B7B"/>
<path d="M154.106 196.534H149.753V198.201L154.106 196.534Z" fill="#7B7B7B"/>
<path d="M103.788 196.534H100.651L103.788 198.201V196.534Z" fill="#7B7B7B"/>
<path d="M100.651 187.85V196.534H103.788L105.055 196.534H148.464L149.753 196.534H154.106V187.85V184.649L148.464 184.649H105.055L100.651 184.649V187.85Z" fill="#7B7B7B"/>
<path d="M126.262 198.544C117.015 198.544 117.534 212.814 126.262 212.98C135.322 213.706 135.509 198.544 126.262 198.544Z" fill="#7B7B7B"/>
<path d="M123.62 203.494C123.62 204.595 122.925 205.487 122.066 205.487C121.208 205.487 120.512 204.595 120.512 203.494C120.512 202.393 121.208 201.5 122.066 201.5C122.925 201.5 123.62 202.393 123.62 203.494Z" fill="#7B7B7B"/>
<path d="M149.964 107.121L181.328 116.213L170.17 161.264L138.806 152.172L149.964 107.121Z" fill="#7B7B7B"/>
<path d="M156.895 130.783C154.015 128.745 149.627 129.96 149.338 135.081C149.343 141.089 157.254 141.76 158.392 137.166C158.194 140.214 157.392 141.727 155.274 144.232L159.373 145.42C158.697 142.206 158.838 140.5 159.938 137.614C159.669 144.225 167.07 144.833 168.872 140.743C170.725 137.724 168.987 132.523 164.406 132.96C167.294 130.011 166.995 125.484 162.888 123.582C158.125 122.201 155.497 127.502 156.895 130.783Z" fill="#7B7B7B"/>
<path d="M69.4795 113.05L100.843 103.958L112.001 149.009L80.6375 158.1L69.4795 113.05Z" fill="#7B7B7B"/>
<path d="M87.9736 120.403L82.0023 133.331L93.2555 141.728L99.3714 128.296L87.9736 120.403Z" fill="#7B7B7B"/>
<path d="M119.821 91.6327L151.749 98.02L143.95 143.89L112.021 137.503L119.821 91.6327Z" fill="#7B7B7B"/>
<path d="M132.703 110.805C126.144 96.9498 110.06 112.801 129.679 128.539C151.092 125.023 147.68 100.564 132.703 110.805Z" fill="#7B7B7B"/>
<path d="M90.7404 100.455L123.004 96.5031L127.854 142.847L95.5904 146.799L90.7404 100.455Z" fill="#7B7B7B"/>
<path d="M108.095 110.689C106.091 114.691 103.697 117.022 101.727 120.059C96.6418 128.312 106.016 132.755 109.404 126.545C109.988 129.03 109.71 130.398 108.796 132.822L111.959 132.435C110.621 130.205 110 128.933 110.148 126.454C116.034 132.285 122.557 123.623 116.264 118.279C113.013 115.241 110.689 113.846 108.095 110.689Z" fill="#7B7B7B"/>
<path d="M180.601 139.962H71.9235V179.42L105.055 179.42H148.464L180.601 179.42V139.962Z" fill="#7B7B7B"/>
<path d="M92.3815 173.069V147.718H102.859V152.617H97.7118V157.546H102.646V162.327H97.7118V168.14H103.194V173.069H92.3815Z" fill="#7B7B7B"/>
<path d="M111.026 173.069V147.718H116.265V168.76H121.656V173.069H111.026Z" fill="#7B7B7B"/>
<path d="M128.523 173.069L131.051 147.718H139.915L142.412 173.069H137.447L137.082 168.967H133.914L133.61 173.069H128.523ZM134.31 164.924H136.686L135.529 152.027H135.285L134.31 164.924Z" fill="#7B7B7B"/>
<path d="M150.099 173.069V147.718H155.49L157.896 159.847V147.718H162.952V173.069H157.835L155.216 160.379V173.069H150.099Z" fill="#7B7B7B"/>
<path d="M90.3509 173.069V147.718H100.829V152.617H95.6812V157.546H100.616V162.327H95.6812V168.14H101.164V173.069H90.3509Z" fill="#7B7B7B"/>
<path d="M108.995 173.069V147.718H114.234V168.76H119.625V173.069H108.995Z" fill="#7B7B7B"/>
<path d="M126.492 173.069L129.02 147.718H137.884L140.382 173.069H135.417L135.051 168.967H131.884L131.579 173.069H126.492ZM132.28 164.924H134.655L133.498 152.027H133.254L132.28 164.924Z" fill="#7B7B7B"/>
<path d="M148.068 173.069V147.718H153.459L155.865 159.847V147.718H160.922V173.069H155.805L153.185 160.379V173.069H148.068Z" fill="#7B7B7B"/>
<path d="M110.975 186.261H113.34C113.977 186.261 114.437 186.412 114.721 186.713C115.012 187.015 115.158 187.507 115.158 188.189V188.563C115.158 189.369 114.86 189.852 114.264 190.009C114.63 190.101 114.887 190.314 115.036 190.648C115.185 190.983 115.259 191.426 115.259 191.976C115.259 192.875 115.121 193.557 114.843 194.023C114.566 194.482 114.065 194.711 113.34 194.711H110.975V186.261ZM113.036 189.438C113.185 189.438 113.286 189.386 113.34 189.281C113.395 189.169 113.422 189.015 113.422 188.819V187.973C113.422 187.697 113.296 187.559 113.046 187.559H112.681V189.438H113.036ZM112.853 193.226C113.307 193.226 113.533 193.016 113.533 192.596V191.544C113.533 191.288 113.493 191.094 113.412 190.963C113.337 190.832 113.202 190.766 113.005 190.766H112.681V193.216L112.853 193.226Z" fill="#7B7B7B"/>
<path d="M116.767 194.711V186.261H118.453V194.711H116.767Z" fill="#7B7B7B"/>
<path d="M121.961 194.79C121.332 194.79 120.861 194.577 120.55 194.15C120.245 193.718 120.093 193.065 120.093 192.193V188.553C120.093 187.773 120.272 187.182 120.631 186.782C120.99 186.382 121.525 186.182 122.235 186.182C122.811 186.182 123.257 186.294 123.575 186.517C123.894 186.74 124.114 187.064 124.235 187.491C124.357 187.917 124.418 188.464 124.418 189.133H122.712V188.376C122.712 188.173 122.682 188.015 122.621 187.904C122.567 187.792 122.465 187.736 122.316 187.736C121.985 187.736 121.819 187.946 121.819 188.366V192.458C121.819 192.714 121.853 192.908 121.92 193.039C121.988 193.17 122.107 193.236 122.276 193.236C122.445 193.236 122.563 193.17 122.631 193.039C122.699 192.908 122.733 192.714 122.733 192.458V191.248H122.266V189.793H124.398V194.711H123.697L123.403 194.003C123.091 194.528 122.611 194.79 121.961 194.79Z" fill="#7B7B7B"/>
<path d="M130.182 194.711L129.248 186.261H130.954L131.441 191.593L131.928 186.261H133.553L134.02 191.593L134.487 186.261H136.213L135.259 194.711H133.167L132.731 190.639L132.314 194.711H130.182Z" fill="#7B7B7B"/>
<path d="M137.664 194.711V186.261H139.349V194.711H137.664Z" fill="#7B7B7B"/>
<path d="M141.061 194.711V186.261H142.858L143.66 190.304V186.261H145.345V194.711H143.64L142.767 190.481V194.711H141.061Z" fill="#7B7B7B"/>
<path d="M110.393 186.261H112.758C113.395 186.261 113.855 186.412 114.139 186.713C114.43 187.015 114.576 187.507 114.576 188.189V188.563C114.576 189.369 114.278 189.852 113.682 190.009C114.048 190.101 114.305 190.314 114.454 190.648C114.603 190.983 114.677 191.426 114.677 191.976C114.677 192.875 114.539 193.557 114.261 194.023C113.984 194.482 113.483 194.711 112.758 194.711H110.393V186.261ZM112.454 189.438C112.603 189.438 112.704 189.386 112.758 189.281C112.813 189.169 112.84 189.015 112.84 188.819V187.973C112.84 187.697 112.714 187.559 112.464 187.559H112.098V189.438H112.454ZM112.271 193.226C112.725 193.226 112.951 193.016 112.951 192.596V191.544C112.951 191.288 112.911 191.094 112.829 190.963C112.755 190.832 112.62 190.766 112.423 190.766H112.098V193.216L112.271 193.226Z" fill="#7B7B7B"/>
<path d="M116.185 194.711V186.261H117.871V194.711H116.185Z" fill="#7B7B7B"/>
<path d="M121.379 194.79C120.75 194.79 120.279 194.577 119.968 194.15C119.663 193.718 119.511 193.065 119.511 192.193V188.553C119.511 187.773 119.69 187.182 120.049 186.782C120.408 186.382 120.942 186.182 121.653 186.182C122.229 186.182 122.675 186.294 122.993 186.517C123.312 186.74 123.531 187.064 123.653 187.491C123.775 187.917 123.836 188.464 123.836 189.133H122.13V188.376C122.13 188.173 122.1 188.015 122.039 187.904C121.985 187.792 121.883 187.736 121.734 187.736C121.403 187.736 121.237 187.946 121.237 188.366V192.458C121.237 192.714 121.271 192.908 121.338 193.039C121.406 193.17 121.525 193.236 121.694 193.236C121.863 193.236 121.981 193.17 122.049 193.039C122.117 192.908 122.151 192.714 122.151 192.458V191.248H121.684V189.793H123.816V194.711H123.115L122.821 194.003C122.509 194.528 122.029 194.79 121.379 194.79Z" fill="#7B7B7B"/>
<path d="M129.6 194.711L128.666 186.261H130.372L130.859 191.593L131.346 186.261H132.971L133.438 191.593L133.905 186.261H135.631L134.677 194.711H132.585L132.149 190.639L131.732 194.711H129.6Z" fill="#7B7B7B"/>
<path d="M137.082 194.711V186.261H138.767V194.711H137.082Z" fill="#7B7B7B"/>
<path d="M140.479 194.711V186.261H142.276L143.078 190.304V186.261H144.763V194.711H143.058L142.185 190.481V194.711H140.479Z" fill="#7B7B7B"/>
</g>
<path id="msg" d="M127.555 206.358V69.9807H353.399L447.091 138.169L353.399 206.358H127.555Z" fill="url(#paint0_linear)" stroke="url(#paint1_linear)" stroke-width="5"/>
<g id="Group 21">
<g id="Group 1">
<path id="crown_bg" d="M68.335 96.6901L123.278 71.025L180.398 96.6909L123.279 148.022L68.335 96.6901ZM33.9019 100.548L38.3555 91.1949L66.4132 112.127L33.9019 100.548ZM66.5577 121.607L45.0959 121.607L45.0959 113.285L66.5577 121.607ZM180.006 112.127L208.064 91.1949L212.518 100.548L180.006 112.127ZM179.862 121.607L201.324 113.285L201.324 121.607L179.862 121.607Z" fill="#FECA00" stroke="#CC611B" stroke-width="0.5"/>
<g id="crown">
<path id="Vector 4" d="M111.124 63.1732C101.894 57.9147 90.0779 76.4626 101.558 76.6551C104.878 76.8119 106.145 72.4595 106.145 72.4595C107.208 69.6624 118.844 68.4317 111.124 63.1732Z" fill="#FF7070"/>
<path id="Vector 2" fill-rule="evenodd" clip-rule="evenodd" d="M124.416 68.6346C112.287 56.0531 91.9209 59.3116 91.9209 75.4232L99.7956 89.2719H148.311L157.363 71.169C156.277 64.0184 138.717 53.1566 124.416 68.6346ZM109.478 69.8673C109.478 69.8673 117.326 67.2397 111.138 63.402C100.869 58.1813 90.4968 78.4417 102.667 76.2981C104.208 75.5591 104.869 74.4413 105.535 73.3152C106.334 71.9648 107.14 70.6025 109.478 69.8673Z" fill="#F00808"/>
<g id="Vector 3">
<path d="M94.6165 90.2546V92.0922H153.648V90.2359L94.6165 90.2546Z" fill="#F2BE2B"/>
<path d="M94.7975 101.659V103.497H153.829V101.641L94.7975 101.659Z" fill="#F2BE2B"/>
<path d="M124.382 40.5729C120.578 42.5868 124.382 48.125 124.382 48.125C124.382 48.125 128.578 42.7547 124.382 40.5729Z" fill="#F2BE2B"/>
</g>
<path id="Vector 1" fill-rule="evenodd" clip-rule="evenodd" d="M94.6286 104.166H153.644V103.088H94.6286V104.166ZM94.6286 102.101H153.644V91.689H94.6286V102.101ZM153.644 90.6119V89.086C153.644 89.086 159.527 75.3528 160.071 72.7498C160.55 71.2079 160.949 69.323 161 67.4073C161.512 68.0158 162.402 68.3318 163.399 67.8332C165.316 66.7381 164.077 64.0046 162.175 64.4496C161.568 64.599 161.15 64.8676 160.889 65.1936C160.774 64.3487 160.57 63.5216 160.253 62.7403C160.761 63.0415 161.431 63.1116 162.159 62.7476C164.077 61.6525 162.837 58.919 160.936 59.364C159.813 59.6403 159.337 60.3245 159.304 61.0253C158.896 60.4661 158.402 59.9505 157.811 59.493C158.078 59.4739 158.362 59.3977 158.655 59.2513C160.572 58.1562 159.333 55.4227 157.431 55.8677C155.821 56.2641 155.54 57.4998 155.992 58.4201C151.986 56.6498 145.075 56.7781 133.55 60.8117C131.904 59.376 129.64 58.2698 127.152 57.7539V55.1418C128.485 54.7 129.384 53.8894 129.116 52.7409C129.116 51.545 127.408 50.7011 125.452 50.4307V47.5637C126.074 46.2952 128.736 46.5695 128.736 48.318C131.26 48.318 131.571 43.1752 127.152 44.6495C128.909 39.3695 119.47 39.0609 121.579 44.6495C116.946 43.1409 117.534 48.798 120.438 48.318C120.68 46.9466 122.513 46.3637 123.515 47.5637V50.3565C121.615 50.4786 119.927 51.2062 119.781 52.7409C119.708 53.9198 120.62 54.7114 121.902 55.1418V57.6007C119.525 57.9697 117.184 58.9744 115.175 60.8117C103.627 56.5619 95.8779 56.3029 91.3683 58.4571C92.459 57.2114 91.2939 55.1099 89.6088 55.5042C86.7676 56.2037 88.0638 59.5168 90.2263 59.098C89.3939 59.6438 88.7047 60.2915 88.1532 61.0261C88.3661 59.8606 87.3491 58.5716 85.9976 58.8878C82.8992 59.6507 84.7211 63.5217 87.2212 62.2715C87.3121 62.2195 87.396 62.1639 87.473 62.1051C87.0847 62.8477 86.8096 63.657 86.6435 64.5217C86.2476 64.0588 85.6339 63.7873 84.9292 63.9522C81.8308 64.7151 83.6528 68.586 86.1528 67.3358C86.2667 67.2708 86.3695 67.1999 86.4617 67.1243C86.5056 68.2557 86.6957 69.449 87.0254 70.6853C88.4737 74.9937 94.6286 89.086 94.6286 89.086V90.6119H153.644ZM90.0124 69.6082C87.0254 59.3756 98.8828 56.1442 114.542 62.7864C118.524 64.3124 120.878 75.7118 119.339 89.086H99.6974C99.6974 89.086 90.3744 72.7498 90.0124 69.6082ZM132.645 64.3124C128.505 68.7163 128.508 74.253 128.512 83.2069C128.513 85.0201 128.514 86.9735 128.481 89.086H148.304C148.304 89.086 155.635 75.263 156.45 72.7498C165.23 53.99 134.998 59.7346 132.645 64.3124ZM124.449 41.4952C122.817 42.5445 122.375 44.4095 124.449 48.0437C125.832 45.5752 126.696 43.2095 124.449 41.4952Z" fill="#FFE352"/>
<g id="Vector 5">
<path d="M88.6822 55.7285C88.9873 55.4412 89.5139 55.3385 89.7234 55.4841C89.7935 55.6527 89.2556 55.6707 88.9516 55.9426C88.5701 56.2838 88.6208 56.5549 88.4185 56.5359C88.2838 56.4288 88.3427 56.007 88.6822 55.7285Z" fill="white"/>
<path d="M85.2633 59.1046C85.5684 58.8173 86.095 58.7146 86.3045 58.8602C86.3746 59.0288 85.8367 59.0468 85.5327 59.3188C85.1513 59.6599 85.2019 59.931 84.9997 59.9121C84.865 59.805 84.9238 59.3832 85.2633 59.1046Z" fill="white"/>
<path d="M84.0241 64.4039C84.3292 64.1166 84.8557 64.0139 85.0653 64.1595C85.1354 64.3281 84.5975 64.3461 84.2935 64.618C83.912 64.9592 83.9627 65.2303 83.7604 65.2113C83.6257 65.1042 83.6846 64.6824 84.0241 64.4039Z" fill="white"/>
<path d="M162.334 59.6147C162.029 59.3274 161.503 59.2247 161.293 59.3703C161.223 59.5389 161.761 59.557 162.065 59.8289C162.446 60.17 162.396 60.4411 162.598 60.4222C162.733 60.3151 162.674 59.8933 162.334 59.6147Z" fill="white"/>
<path d="M158.82 56.1131C158.515 55.8258 157.988 55.7231 157.779 55.8687C157.708 56.0373 158.246 56.0553 158.55 56.3273C158.932 56.6684 158.881 56.9395 159.083 56.9205C159.218 56.8134 159.159 56.3916 158.82 56.1131Z" fill="white"/>
<path d="M163.622 64.7384C163.316 64.4511 162.79 64.3484 162.58 64.494C162.51 64.6626 163.048 64.6807 163.352 64.9526C163.734 65.2937 163.683 65.5648 163.885 65.5459C164.02 65.4388 163.961 65.017 163.622 64.7384Z" fill="white"/>
<path d="M124.092 59.3703C118.767 59.3029 118.228 67.2568 124.092 67.5602C129.619 67.4928 130.159 59.8085 124.092 59.3703Z" fill="white"/>
<path d="M124.092 68.8746C120.452 68.8746 120.452 73.6941 124.092 73.6941C127.732 73.6941 127.462 68.8746 124.092 68.8746Z" fill="white"/>
<path d="M124.092 75.1301C121.992 75.1301 121.742 78.2129 124.092 78.2129C126.588 78.2129 126.075 75.1301 124.092 75.1301Z" fill="white"/>
<path d="M121.023 51.0289C121.589 50.411 123.439 50.1132 123.649 50.617C123.768 50.9032 122.27 50.863 121.782 51.2993C121.023 51.5053 120.821 53.0668 120.25 52.7798C119.885 52.5962 120.315 51.5825 121.023 51.0289Z" fill="white"/>
</g>    
</g>
</g>
<g id="Group 18">
<g id="back">
<g id="Vector 15">
<path d="M60.1077 130.691V161.354H70.5663V136.158L89.1067 123.56H51.0752L60.1077 130.691Z" fill="url(#paint2_linear)"/>
<path d="M28.2562 163.493H60.1077V161.354V130.691L51.0752 131.028L28.2562 131.879L47.5097 147.092L28.2562 163.493Z" fill="url(#paint3_linear)"/>
<path d="M175.866 136.158H162.08H89.1067H70.5663V161.354V175.616H97.4261H102.668H123.216H144.728H175.866V161.354V136.158Z" fill="url(#paint4_linear)"/>
<path d="M51.0752 131.028L60.1077 130.691L51.0752 123.56V131.028Z" fill="url(#paint5_linear)"/>
<path d="M70.5663 136.158H89.1067V123.56L70.5663 136.158Z" fill="url(#paint6_linear)"/>
<path d="M195.12 123.56H162.08L175.866 136.158V161.354H184.661V130.691L195.12 123.56Z" fill="url(#paint7_linear)"/>
<path d="M162.08 136.158H175.866L162.08 123.56V136.158Z" fill="url(#paint8_linear)"/>
<path d="M184.661 163.493H216.512L197.259 147.092L216.512 131.879L195.12 131.081L184.661 130.691V161.354V163.493Z" fill="url(#paint9_linear)"/>
<path d="M184.661 130.691L195.12 131.081V123.56L184.661 130.691Z" fill="url(#paint10_linear)"/>
<path d="M70.5663 136.158V161.354M70.5663 136.158H89.1067M70.5663 136.158L89.1067 123.56M175.866 136.158H162.08M175.866 136.158V161.354M175.866 136.158L162.08 123.56M184.661 130.691L195.12 131.081M184.661 130.691V161.354M184.661 130.691L195.12 123.56M162.08 136.158V123.56M162.08 136.158H89.1067M162.08 123.56H195.12M195.12 123.56V131.081M195.12 131.081L216.512 131.879L197.259 147.092L216.512 163.493H184.661V161.354M175.866 161.354V175.616H144.728H123.216H102.668H97.4261H70.5663V161.354M175.866 161.354H184.661M60.1077 130.691V161.354M60.1077 130.691L51.0752 131.028M60.1077 130.691L51.0752 123.56M60.1077 161.354V163.493H28.2562L47.5097 147.092L28.2562 131.879L51.0752 131.028M60.1077 161.354H70.5663M89.1067 136.158V123.56M89.1067 123.56H51.0752M51.0752 123.56V131.028" stroke="#E5A96C" stroke-width="0.5"/>
</g>
<path id="Vector 17" d="M123.216 213.78L102.668 197.141V192.387V180.502V175.273H123.216H144.728V180.502V192.387V197.141L123.216 213.78Z" fill="url(#paint11_linear)" stroke="#E5A96C" stroke-width="0.5"/>
<g id="Vector 16">
<path d="M98.4007 192.387V183.703H83.917L93.1779 189.514L83.917 194.053H101.44L98.4007 192.387Z" fill="url(#paint12_linear)"/>
<path d="M150.195 183.703V192.387L145.977 194.053H165.043L157.326 189.514L165.043 183.703H150.195Z" fill="url(#paint13_linear)"/>
<path d="M150.195 192.387H145.977V194.053L150.195 192.387Z" fill="url(#paint14_linear)"/>
<path d="M101.44 192.387H98.4007L101.44 194.053V192.387Z" fill="url(#paint15_linear)"/>
<path d="M98.4007 183.703V192.387H101.44H102.668H144.728H145.977H150.195V183.703V180.502H144.728H102.668H98.4007V183.703Z" fill="url(#paint16_linear)"/>
<path d="M150.195 192.387V183.703M150.195 192.387H145.977M150.195 192.387L145.977 194.053M98.4007 192.387V183.703M98.4007 192.387H101.44M98.4007 192.387L101.44 194.053M98.4007 183.703V180.502H102.668H144.728H150.195V183.703M98.4007 183.703H83.917L93.1779 189.514L83.917 194.053H101.44M101.44 194.053V192.387M101.44 192.387H102.668H144.728H145.977M150.195 183.703H165.043L157.326 189.514L165.043 194.053H145.977M145.977 194.053V192.387" stroke="#E5A96C" stroke-width="0.5"/>
</g>
<path id="Vector 18" d="M123.216 194.396C114.257 194.396 114.76 208.667 123.216 208.833C131.994 209.559 132.176 194.396 123.216 194.396Z" fill="url(#paint17_linear)" stroke="#E5A96C" stroke-width="0.5"/>
<ellipse id="Ellipse 87" cx="119.151" cy="199.347" rx="1.50572" ry="1.99349" fill="#FFA3A3"/>
<g id="bigwin">
<g id="BIG WIN">
<path d="M108.404 182.114H110.696C111.313 182.114 111.759 182.264 112.034 182.566C112.316 182.868 112.457 183.36 112.457 184.042V184.416C112.457 185.222 112.168 185.704 111.591 185.862C111.945 185.953 112.195 186.167 112.339 186.501C112.483 186.836 112.555 187.278 112.555 187.829C112.555 188.728 112.421 189.41 112.152 189.875C111.883 190.334 111.398 190.564 110.696 190.564H108.404V182.114ZM110.401 185.291C110.545 185.291 110.644 185.239 110.696 185.134C110.749 185.022 110.775 184.868 110.775 184.671V183.825C110.775 183.55 110.653 183.412 110.411 183.412H110.057V185.291H110.401ZM110.224 189.078C110.663 189.078 110.883 188.869 110.883 188.449V187.396C110.883 187.14 110.844 186.947 110.765 186.816C110.693 186.685 110.562 186.619 110.371 186.619H110.057V189.069L110.224 189.078Z" fill="#7B7B7B"/>
<path d="M114.016 190.564V182.114H115.649V190.564H114.016Z" fill="#7B7B7B"/>
<path d="M119.049 190.643C118.439 190.643 117.983 190.429 117.681 190.003C117.386 189.57 117.239 188.918 117.239 188.046V184.406C117.239 183.625 117.413 183.035 117.76 182.635C118.108 182.235 118.626 182.035 119.314 182.035C119.872 182.035 120.305 182.146 120.613 182.369C120.921 182.592 121.134 182.917 121.252 183.343C121.37 183.77 121.429 184.317 121.429 184.986H119.777V184.229C119.777 184.025 119.747 183.868 119.688 183.756C119.636 183.645 119.537 183.589 119.393 183.589C119.072 183.589 118.911 183.799 118.911 184.219V188.311C118.911 188.567 118.944 188.76 119.009 188.892C119.075 189.023 119.19 189.088 119.354 189.088C119.518 189.088 119.633 189.023 119.698 188.892C119.764 188.76 119.796 188.567 119.796 188.311V187.101H119.344V185.645H121.41V190.564H120.731L120.446 189.856C120.144 190.38 119.678 190.643 119.049 190.643Z" fill="#7B7B7B"/>
<path d="M127.014 190.564L126.109 182.114H127.762L128.234 187.445L128.706 182.114H130.28L130.733 187.445L131.185 182.114H132.858L131.933 190.564H129.907L129.484 186.491L129.08 190.564H127.014Z" fill="#7B7B7B"/>
<path d="M134.264 190.564V182.114H135.897V190.564H134.264Z" fill="#7B7B7B"/>
<path d="M137.555 190.564V182.114H139.296L140.073 186.157V182.114H141.706V190.564H140.054L139.208 186.334V190.564H137.555Z" fill="#7B7B7B"/>
</g>
<g id="BIG WIN_2">
<path d="M107.84 182.114H110.132C110.749 182.114 111.195 182.264 111.47 182.566C111.752 182.868 111.893 183.36 111.893 184.042V184.416C111.893 185.222 111.605 185.704 111.027 185.862C111.382 185.953 111.631 186.167 111.775 186.501C111.919 186.836 111.991 187.278 111.991 187.829C111.991 188.728 111.857 189.41 111.588 189.875C111.319 190.334 110.834 190.564 110.132 190.564H107.84V182.114ZM109.837 185.291C109.981 185.291 110.08 185.239 110.132 185.134C110.185 185.022 110.211 184.868 110.211 184.671V183.825C110.211 183.55 110.09 183.412 109.847 183.412H109.493V185.291H109.837ZM109.66 189.078C110.099 189.078 110.319 188.869 110.319 188.449V187.396C110.319 187.14 110.28 186.947 110.201 186.816C110.129 186.685 109.998 186.619 109.808 186.619H109.493V189.069L109.66 189.078Z" fill="white"/>
<path d="M113.452 190.564V182.114H115.085V190.564H113.452Z" fill="white"/>
<path d="M118.485 190.643C117.875 190.643 117.419 190.429 117.117 190.003C116.822 189.57 116.675 188.918 116.675 188.046V184.406C116.675 183.625 116.849 183.035 117.196 182.635C117.544 182.235 118.062 182.035 118.751 182.035C119.308 182.035 119.741 182.146 120.049 182.369C120.357 182.592 120.57 182.917 120.688 183.343C120.807 183.77 120.866 184.317 120.866 184.986H119.213V184.229C119.213 184.025 119.183 183.868 119.124 183.756C119.072 183.645 118.973 183.589 118.829 183.589C118.508 183.589 118.347 183.799 118.347 184.219V188.311C118.347 188.567 118.38 188.76 118.446 188.892C118.511 189.023 118.626 189.088 118.79 189.088C118.954 189.088 119.069 189.023 119.134 188.892C119.2 188.76 119.233 188.567 119.233 188.311V187.101H118.78V185.645H120.846V190.564H120.167L119.882 189.856C119.58 190.38 119.114 190.643 118.485 190.643Z" fill="white"/>
<path d="M126.45 190.564L125.545 182.114H127.198L127.67 187.445L128.143 182.114H129.717L130.169 187.445L130.622 182.114H132.294L131.369 190.564H129.343L128.92 186.491L128.516 190.564H126.45Z" fill="white"/>
<path d="M133.7 190.564V182.114H135.333V190.564H133.7Z" fill="white"/>
<path d="M136.991 190.564V182.114H138.732L139.509 186.157V182.114H141.142V190.564H139.49L138.644 186.334V190.564H136.991Z" fill="white"/>
</g>
</g>
</g>
<g id="poker">
<g id="Group 16">
<rect id="Rectangle 61" x="0.181172" y="0.314755" width="31.2199" height="45.8299" transform="matrix(0.958042 0.286628 -0.233352 0.972392 146.262 102.931)" fill="white" stroke="#E19C58" stroke-width="0.5"/>
<path id="Vector 23" d="M152.897 126.635C150.107 124.598 145.855 125.813 145.575 130.933C145.58 136.942 153.245 137.613 154.347 133.018C154.156 136.066 153.378 137.58 151.326 140.084L155.298 141.273C154.643 138.059 154.78 136.353 155.846 133.467C155.585 140.078 162.756 140.686 164.502 136.596C166.297 133.576 164.614 128.376 160.175 128.813C162.973 125.864 162.683 121.337 158.703 119.435C154.089 118.054 151.542 123.355 152.897 126.635Z" fill="black"/>
</g>
<g id="Group 14">
<rect id="Rectangle 61_2" x="0.297849" y="0.171441" width="31.2199" height="45.8299" transform="matrix(0.958042 -0.286628 0.233352 0.972392 68.1708 108.992)" fill="white" stroke="#E19C58" stroke-width="0.5"/>
<path id="Vector 18_2" d="M86.1177 116.255L80.332 129.183L91.2354 137.581L97.1612 124.148L86.1177 116.255Z" fill="#FF0000"/>
</g>
<g id="Group 13">
<rect id="Rectangle 61_3" x="0.204195" y="0.297224" width="31.089" height="45.9888" transform="matrix(0.979344 0.202199 -0.162565 0.986698 117.027 87.448)" fill="white" stroke="#E19C58" stroke-width="0.5"/>
<path id="Vector 18_3" d="M129.456 106.657C123.102 92.8025 107.518 108.654 126.527 124.391C147.275 120.875 143.969 96.4171 129.456 106.657Z" fill="#FF0000"/>
</g>
<g id="Group 15">
<rect id="Rectangle 61_4" x="0.273247" y="0.21737" width="31.0101" height="46.0816" transform="matrix(0.992104 -0.125419 0.100884 0.994898 88.7787 96.3431)" fill="white" stroke="#E19C58" stroke-width="0.5"/>
<path id="Vector 20" d="M105.613 106.541C103.672 110.543 101.352 112.875 99.4436 115.912C94.5165 124.165 103.6 128.608 106.882 122.397C107.448 124.882 107.179 126.251 106.293 128.675L109.357 128.287C108.061 126.057 107.46 124.785 107.603 122.306C113.306 128.138 119.626 119.476 113.529 114.131C110.378 111.093 108.127 109.699 105.613 106.541Z" fill="black" stroke="black"/>
</g>
</g>
<g id="elan_front">
<path id="Vector 19" d="M175.866 135.815H162.08H89.1067H70.5664V161.011V175.273H97.4262H102.668H123.216H144.728H175.866V161.011V135.815Z" fill="url(#paint18_linear)" stroke="#E5A96C" stroke-width="0.5"/>
<g id="elan">
<g id="ELAN">
<path d="M90.3885 168.922V143.571H100.541V148.47H95.5531V153.398H100.334V158.179H95.5531V163.993H100.865V168.922H90.3885Z" fill="#7B7B7B"/>
<path d="M108.453 168.922V143.571H113.529V164.613H118.753V168.922H108.453Z" fill="#7B7B7B"/>
<path d="M125.407 168.922L127.856 143.571H136.444L138.864 168.922H134.054L133.7 164.819H130.63L130.335 168.922H125.407ZM131.014 160.776H133.316L132.195 147.879H131.959L131.014 160.776Z" fill="#7B7B7B"/>
<path d="M146.312 168.922V143.571H151.535L153.867 155.7V143.571H158.766V168.922H153.808L151.27 156.231V168.922H146.312Z" fill="#7B7B7B"/>
</g>
<path id="ELAN_2" d="M88.171 168.922V169.172H88.421H98.8979H99.1479V168.922V163.993V163.743H98.8979H93.8357V158.429H98.3666H98.6166V158.179V153.398V153.148H98.3666H93.8357V148.72H98.5732H98.8232V148.47V143.571V143.321H98.5732H88.421H88.171V143.571V168.922ZM106.236 168.922V169.172H106.486H116.785H117.035V168.922V164.613V164.363H116.785H111.812V143.571V143.321H111.562H106.486H106.236V143.571V168.922ZM123.19 168.898L123.164 169.172H123.439H128.368H128.601L128.617 168.94L128.896 165.069H131.503L131.837 168.943L131.857 169.172H132.086H136.897H137.172L137.146 168.898L134.726 143.547L134.704 143.321H134.477H125.889H125.662L125.64 143.547L123.19 168.898ZM144.094 168.922V169.172H144.344H149.302H149.552V168.922V158.756L151.595 168.971L151.635 169.172H151.84H156.798H157.048V168.922V143.571V143.321H156.798H151.899H151.649V143.571V153.075L149.814 143.523L149.775 143.321H149.568H144.344H144.094V143.571V168.922ZM131.076 160.526H129.316L130.12 149.537L131.076 160.526Z" fill="white" stroke="#FFD706" stroke-width="0.5"/>
</g>
</g>
</g>
</g>
</g>
<defs>
<linearGradient id="paint0_linear" x1="451.339" y1="67.4807" x2="125.055" y2="208.858" gradientUnits="userSpaceOnUse">
<stop stop-color="#FFFDC4"/>
<stop offset="1" stop-color="#FFBEBA"/>
</linearGradient>
<linearGradient id="paint1_linear" x1="125.055" y1="67.4807" x2="456.893" y2="194.328" gradientUnits="userSpaceOnUse">
<stop stop-color="#FBD363"/>
<stop offset="0.225441" stop-color="#FBEE9A"/>
<stop offset="0.471932" stop-color="#FBEE9A"/>
<stop offset="0.714804" stop-color="#E8A456"/>
<stop offset="0.83145" stop-color="#E8A64A"/>
</linearGradient>
<linearGradient id="paint2_linear" x1="28.2562" y1="123.56" x2="216.512" y2="181.427" gradientUnits="userSpaceOnUse">
<stop stop-color="#F42F2A"/>
<stop offset="0.21875" stop-color="#F4563F"/>
<stop offset="0.395833" stop-color="#FF9D71"/>
<stop offset="0.536458" stop-color="#FF734E"/>
<stop offset="0.651042" stop-color="#FF5436"/>
<stop offset="0.786458" stop-color="#E1242B"/>
<stop offset="1" stop-color="#F13D1F"/>
</linearGradient>
<linearGradient id="paint3_linear" x1="28.2562" y1="123.56" x2="216.512" y2="181.427" gradientUnits="userSpaceOnUse">
<stop stop-color="#F42F2A"/>
<stop offset="0.21875" stop-color="#F4563F"/>
<stop offset="0.395833" stop-color="#FF9D71"/>
<stop offset="0.536458" stop-color="#FF734E"/>
<stop offset="0.651042" stop-color="#FF5436"/>
<stop offset="0.786458" stop-color="#E1242B"/>
<stop offset="1" stop-color="#F13D1F"/>
</linearGradient>
<linearGradient id="paint4_linear" x1="28.2562" y1="123.56" x2="216.512" y2="181.427" gradientUnits="userSpaceOnUse">
<stop stop-color="#F42F2A"/>
<stop offset="0.21875" stop-color="#F4563F"/>
<stop offset="0.395833" stop-color="#FF9D71"/>
<stop offset="0.536458" stop-color="#FF734E"/>
<stop offset="0.651042" stop-color="#FF5436"/>
<stop offset="0.786458" stop-color="#E1242B"/>
<stop offset="1" stop-color="#F13D1F"/>
</linearGradient>
<linearGradient id="paint5_linear" x1="28.2562" y1="123.56" x2="216.512" y2="181.427" gradientUnits="userSpaceOnUse">
<stop stop-color="#F42F2A"/>
<stop offset="0.21875" stop-color="#F4563F"/>
<stop offset="0.395833" stop-color="#FF9D71"/>
<stop offset="0.536458" stop-color="#FF734E"/>
<stop offset="0.651042" stop-color="#FF5436"/>
<stop offset="0.786458" stop-color="#E1242B"/>
<stop offset="1" stop-color="#F13D1F"/>
</linearGradient>
<linearGradient id="paint6_linear" x1="28.2562" y1="123.56" x2="216.512" y2="181.427" gradientUnits="userSpaceOnUse">
<stop stop-color="#F42F2A"/>
<stop offset="0.21875" stop-color="#F4563F"/>
<stop offset="0.395833" stop-color="#FF9D71"/>
<stop offset="0.536458" stop-color="#FF734E"/>
<stop offset="0.651042" stop-color="#FF5436"/>
<stop offset="0.786458" stop-color="#E1242B"/>
<stop offset="1" stop-color="#F13D1F"/>
</linearGradient>
<linearGradient id="paint7_linear" x1="28.2562" y1="123.56" x2="216.512" y2="181.427" gradientUnits="userSpaceOnUse">
<stop stop-color="#F42F2A"/>
<stop offset="0.21875" stop-color="#F4563F"/>
<stop offset="0.395833" stop-color="#FF9D71"/>
<stop offset="0.536458" stop-color="#FF734E"/>
<stop offset="0.651042" stop-color="#FF5436"/>
<stop offset="0.786458" stop-color="#E1242B"/>
<stop offset="1" stop-color="#F13D1F"/>
</linearGradient>
<linearGradient id="paint8_linear" x1="28.2562" y1="123.56" x2="216.512" y2="181.427" gradientUnits="userSpaceOnUse">
<stop stop-color="#F42F2A"/>
<stop offset="0.21875" stop-color="#F4563F"/>
<stop offset="0.395833" stop-color="#FF9D71"/>
<stop offset="0.536458" stop-color="#FF734E"/>
<stop offset="0.651042" stop-color="#FF5436"/>
<stop offset="0.786458" stop-color="#E1242B"/>
<stop offset="1" stop-color="#F13D1F"/>
</linearGradient>
<linearGradient id="paint9_linear" x1="28.2562" y1="123.56" x2="216.512" y2="181.427" gradientUnits="userSpaceOnUse">
<stop stop-color="#F42F2A"/>
<stop offset="0.21875" stop-color="#F4563F"/>
<stop offset="0.395833" stop-color="#FF9D71"/>
<stop offset="0.536458" stop-color="#FF734E"/>
<stop offset="0.651042" stop-color="#FF5436"/>
<stop offset="0.786458" stop-color="#E1242B"/>
<stop offset="1" stop-color="#F13D1F"/>
</linearGradient>
<linearGradient id="paint10_linear" x1="28.2562" y1="123.56" x2="216.512" y2="181.427" gradientUnits="userSpaceOnUse">
<stop stop-color="#F42F2A"/>
<stop offset="0.21875" stop-color="#F4563F"/>
<stop offset="0.395833" stop-color="#FF9D71"/>
<stop offset="0.536458" stop-color="#FF734E"/>
<stop offset="0.651042" stop-color="#FF5436"/>
<stop offset="0.786458" stop-color="#E1242B"/>
<stop offset="1" stop-color="#F13D1F"/>
</linearGradient>
<linearGradient id="paint11_linear" x1="122.384" y1="170.31" x2="122.384" y2="213.78" gradientUnits="userSpaceOnUse">
<stop stop-color="#BB5414"/>
<stop offset="0.375" stop-color="#DE7023"/>
<stop offset="0.640625" stop-color="#EC8016"/>
<stop offset="1" stop-color="#FED328"/>
</linearGradient>
<linearGradient id="paint12_linear" x1="83.4101" y1="182.312" x2="171.681" y2="194.368" gradientUnits="userSpaceOnUse">
<stop offset="0.0651498" stop-color="#FBD537"/>
<stop offset="0.172246" stop-color="#ED9F07"/>
<stop offset="0.316779" stop-color="#FBEAB2"/>
<stop offset="0.443902" stop-color="#FBEAB2"/>
<stop offset="0.655049" stop-color="#FECE0C"/>
<stop offset="0.751991" stop-color="#F29B0E"/>
<stop offset="0.864818" stop-color="#F5CE05"/>
</linearGradient>
<linearGradient id="paint13_linear" x1="83.4101" y1="182.312" x2="171.681" y2="194.368" gradientUnits="userSpaceOnUse">
<stop offset="0.0651498" stop-color="#FBD537"/>
<stop offset="0.172246" stop-color="#ED9F07"/>
<stop offset="0.316779" stop-color="#FBEAB2"/>
<stop offset="0.443902" stop-color="#FBEAB2"/>
<stop offset="0.655049" stop-color="#FECE0C"/>
<stop offset="0.751991" stop-color="#F29B0E"/>
<stop offset="0.864818" stop-color="#F5CE05"/>
</linearGradient>
<linearGradient id="paint14_linear" x1="83.4101" y1="182.312" x2="171.681" y2="194.368" gradientUnits="userSpaceOnUse">
<stop offset="0.0651498" stop-color="#FBD537"/>
<stop offset="0.172246" stop-color="#ED9F07"/>
<stop offset="0.316779" stop-color="#FBEAB2"/>
<stop offset="0.443902" stop-color="#FBEAB2"/>
<stop offset="0.655049" stop-color="#FECE0C"/>
<stop offset="0.751991" stop-color="#F29B0E"/>
<stop offset="0.864818" stop-color="#F5CE05"/>
</linearGradient>
<linearGradient id="paint15_linear" x1="83.4101" y1="182.312" x2="171.681" y2="194.368" gradientUnits="userSpaceOnUse">
<stop offset="0.0651498" stop-color="#FBD537"/>
<stop offset="0.172246" stop-color="#ED9F07"/>
<stop offset="0.316779" stop-color="#FBEAB2"/>
<stop offset="0.443902" stop-color="#FBEAB2"/>
<stop offset="0.655049" stop-color="#FECE0C"/>
<stop offset="0.751991" stop-color="#F29B0E"/>
<stop offset="0.864818" stop-color="#F5CE05"/>
</linearGradient>
<linearGradient id="paint16_linear" x1="83.4101" y1="182.312" x2="171.681" y2="194.368" gradientUnits="userSpaceOnUse">
<stop offset="0.0651498" stop-color="#FBD537"/>
<stop offset="0.172246" stop-color="#ED9F07"/>
<stop offset="0.316779" stop-color="#FBEAB2"/>
<stop offset="0.443902" stop-color="#FBEAB2"/>
<stop offset="0.655049" stop-color="#FECE0C"/>
<stop offset="0.751991" stop-color="#F29B0E"/>
<stop offset="0.864818" stop-color="#F5CE05"/>
</linearGradient>
<linearGradient id="paint17_linear" x1="115.606" y1="196.923" x2="131.665" y2="210.442" gradientUnits="userSpaceOnUse">
<stop stop-color="#DF0C2C"/>
<stop offset="0.385601" stop-color="#E16444"/>
<stop offset="0.640625" stop-color="#C40A22"/>
<stop offset="1" stop-color="#A3140E"/>
</linearGradient>
<linearGradient id="paint18_linear" x1="70.5664" y1="135.815" x2="180.176" y2="160.677" gradientUnits="userSpaceOnUse">
<stop stop-color="#F42F2A"/>
<stop offset="0.21875" stop-color="#F4563F"/>
<stop offset="0.395833" stop-color="#FF9D71"/>
<stop offset="0.536458" stop-color="#FF734E"/>
<stop offset="0.651042" stop-color="#FF5436"/>
<stop offset="0.786458" stop-color="#E1242B"/>
<stop offset="1" stop-color="#F13D1F"/>
</linearGradient>
<clipPath id="clip0">
<rect width="480" height="270" fill="white"/>
</clipPath>
</defs>
</svg>
