<svg width="250" height="334" viewBox="0 0 250 334" fill="none" xmlns="http://www.w3.org/2000/svg">
<g id="back_L1_2" clip-path="url(#clip0)">
<rect width="250" height="333.33" fill="white"/>
<g id="Group 43">
<g id="Vector 27">
<path d="M19.0679 69.455L-84.4626 -18.3834L-84.4828 -11.908L19.0679 69.455Z" fill="#FEC91A" fill-opacity="0.8"/>
<path d="M-83.186 12.8204L-45.5921 39.0353L-83.1976 16.5487L-83.186 12.8204Z" fill="#FEC91A" fill-opacity="0.8"/>
<path d="M-82.7144 21.0219L-33.8756 55.3066L-82.7281 25.438L-82.7144 21.0219Z" fill="#FEC91A" fill-opacity="0.8"/>
<path d="M-83.1432 -0.968038L-50.3407 24.6186L-82.6584 2.98958L-83.1432 -0.968038Z" fill="#FEC91A" fill-opacity="0.8"/>
<path d="M-82.1509 76.5198L-82.1338 71.0109L12.9679 111.331L-82.1509 76.5198Z" fill="#FEC91A" fill-opacity="0.8"/>
<path d="M-81.6178 85.853L-81.602 80.7938L12.9518 116.503L-81.6178 85.853Z" fill="#FEC91A" fill-opacity="0.8"/>
<path d="M-8.1287 134.65L-81.1604 119.583L-81.1744 124.08L-8.1287 134.65Z" fill="#FEC91A" fill-opacity="0.8"/>
<path d="M-81.1429 113.962L-81.1304 109.914L-36.6468 122.195L-81.1429 113.962Z" fill="#FEC91A" fill-opacity="0.8"/>
<path d="M-82.3521 141.278L-82.3402 137.455L-11.7613 145.882L-82.3521 141.278Z" fill="#FEC91A" fill-opacity="0.8"/>
<path d="M-84.5892 173.763L-84.5776 170.053L-12.6157 167.578L-84.5892 173.763Z" fill="#FEC91A" fill-opacity="0.8"/>
<path d="M-84.6126 181.296L-84.6056 179.047L-45.3572 175.571L-84.6126 181.296Z" fill="#FEC91A" fill-opacity="0.8"/>
<path d="M-84.6248 185.23L-84.6175 182.87L-70.2219 181.34L-84.6248 185.23Z" fill="#FEC91A" fill-opacity="0.8"/>
<path d="M-84.6667 198.722L-84.659 196.248L-62.0531 193.733L-84.6667 198.722Z" fill="#FEC91A" fill-opacity="0.8"/>
<path d="M-83.6741 204.908L-84.6758 201.645L-33.3789 192.135L-83.6741 204.908Z" fill="#FEC91A" fill-opacity="0.8"/>
<path d="M-82.8061 215.03L-82.7925 210.645L-18.9979 195.328L-82.8061 215.03Z" fill="#FEC91A" fill-opacity="0.8"/>
<path d="M-81.9231 220.317L-81.914 217.393L-44.7805 207.053L-81.9231 220.317Z" fill="#FEC91A" fill-opacity="0.8"/>
<path d="M-54.149 218.941L-84.3092 228.404L-84.3159 230.54L-54.149 218.941Z" fill="#FEC91A" fill-opacity="0.8"/>
<path d="M-82.8725 236.391L-10.0471 209.297L-81.9818 239.204L-82.8725 236.391Z" fill="#FEC91A" fill-opacity="0.8"/>
<path d="M-83.8257 253.702L4.67324 211.816L-84.3672 247.067L-83.8257 253.702Z" fill="#FEC91A" fill-opacity="0.8"/>
<path d="M-82.0712 267.986L10.9444 219.818L-80.6271 273.612L-82.0712 267.986Z" fill="#FEC91A" fill-opacity="0.8"/>
<path d="M-84.4664 278.996L-51.0213 261.674L-83.1246 281.361L-84.4664 278.996Z" fill="#FEC91A" fill-opacity="0.8"/>
<path d="M-83.9162 282.821L-11.3812 240.66L-82.1355 288.672L-83.9162 282.821Z" fill="#FEC91A" fill-opacity="0.8"/>
<path d="M-83.1749 297.551L-83.9413 290.915L7.63579 235.323L-83.1749 297.551Z" fill="#FEC91A" fill-opacity="0.8"/>
<path d="M-59.1778 302.291L0.370221 257.898L-80.786 324.766L-82.2312 319.477L-81.5115 318.941L-85.4863 317.781L-81.0342 314.618L-83.2186 311.604L-23.7214 268.167L-66.9677 304.623L-34.4436 281.513L-59.1778 302.291Z" fill="#FEC91A" fill-opacity="0.8"/>
<path d="M-84.6963 352.974L7.30334 269.95L-83.3754 362.084L-84.6963 352.974Z" fill="#FEC91A" fill-opacity="0.8"/>
<path d="M-53.3068 374.754L54.811 249.309L-41.5267 372.632L-53.3068 374.754Z" fill="#FEC91A" fill-opacity="0.8"/>
<path d="M-26.8263 377.976L32.6918 294.961L-17.4112 379.182L-26.8263 377.976Z" fill="#FEC91A" fill-opacity="0.8"/>
<path d="M-30.7343 372.665L18.1225 310.614L-24.0461 372.686L-30.7343 372.665Z" fill="#FEC91A" fill-opacity="0.8"/>
<path d="M-8.75726 372.734L44.6729 291.315L1.63591 374.925L-8.75726 372.734Z" fill="#FEC91A" fill-opacity="0.8"/>
<path d="M10.2698 374.951L31.1805 339.303L14.7829 374.965L10.2698 374.951Z" fill="#FEC91A" fill-opacity="0.8"/>
<path d="M26.5564 375.002L42.7382 345.618L31.0658 376.193L26.5564 375.002Z" fill="#FEC91A" fill-opacity="0.8"/>
<path d="M35.1902 375.029L78.0757 277.049L42.6467 375.052L35.1902 375.029Z" fill="#FEC91A" fill-opacity="0.8"/>
<path d="M56.267 376.272L76.5904 319.49L62.9862 375.115L56.267 376.272Z" fill="#FEC91A" fill-opacity="0.8"/>
<path d="M69.1912 377.389L96.6914 280.265L74.2312 376.327L69.1912 377.389Z" fill="#FEC91A" fill-opacity="0.8"/>
<path d="M123.427 375.303L125.279 319.641L127.456 375.315L123.427 375.303Z" fill="#FEC91A" fill-opacity="0.8"/>
<path d="M134.172 375.336L133.585 293.979L139.544 375.353L134.172 375.336Z" fill="#FEC91A" fill-opacity="0.8"/>
<path d="M151.297 375.39L144.641 301.904L156.501 375.406L151.297 375.39Z" fill="#FEC91A" fill-opacity="0.8"/>
<path d="M158.856 374.142L154.264 338.871L162.042 375.423L158.856 374.142Z" fill="#FEC91A" fill-opacity="0.8"/>
<path d="M178.327 375.473L159.086 299.935L182.524 375.487L178.327 375.473Z" fill="#FEC91A" fill-opacity="0.8"/>
<path d="M200.492 374.272L193.682 350.578L202.507 374.278L200.492 374.272Z" fill="#FEC91A" fill-opacity="0.8"/>
<path d="M232.048 376.72L189.833 292.643L226.844 376.704L232.048 376.72Z" fill="#FEC91A" fill-opacity="0.8"/>
<path d="M242.293 375.672L223.278 335.727L244.815 374.409L242.293 375.672Z" fill="#FEC91A" fill-opacity="0.8"/>
<path d="M272.513 375.766L232.225 319.973L267.977 376.832L272.513 375.766Z" fill="#FEC91A" fill-opacity="0.8"/>
<path d="M282.416 376.877L194.002 247.829L289.642 374.548L282.416 376.877Z" fill="#FEC91A" fill-opacity="0.8"/>
<path d="M305.756 375.869L207.597 249.214L318.02 373.126L305.756 375.869Z" fill="#FEC91A" fill-opacity="0.8"/>
<path d="M333.072 337.915L239.315 253.342L333.104 327.674L333.072 337.915Z" fill="#FEC91A" fill-opacity="0.8"/>
<path d="M332.507 303.495L245.559 243.12L332.486 310.547L332.507 303.495Z" fill="#FEC91A" fill-opacity="0.8"/>
<path d="M334.341 253.637L236.933 209.683L330.971 257.656L334.341 253.637Z" fill="#FEC91A" fill-opacity="0.8"/>
<path d="M335.889 241.722L257.407 212.433L334.358 248.097L335.889 241.722Z" fill="#FEC91A" fill-opacity="0.8"/>
<path d="M334.488 206.292L257.477 189.767L334.473 211.329L334.488 206.292Z" fill="#FEC91A" fill-opacity="0.8"/>
<path d="M334.539 190.007L263.884 181.225L334.52 196.051L334.539 190.007Z" fill="#FEC91A" fill-opacity="0.8"/>
<path d="M337.678 152.241L253.055 154.161L336.157 155.594L337.678 152.241Z" fill="#FEC91A" fill-opacity="0.8"/>
<path d="M334.622 163.312L284.087 163.155L332.45 159.78L334.622 163.312Z" fill="#FEC91A" fill-opacity="0.8"/>
<path d="M337.795 114.801L245.569 131.976L336.267 120.169L337.795 114.801Z" fill="#FEC91A" fill-opacity="0.8"/>
<path d="M334.78 112.274L334.789 109.587L293.959 120.038L334.78 112.274Z" fill="#FEC91A" fill-opacity="0.8"/>
<path d="M332.984 99.7796L332.994 96.4675L286.213 110.675L332.984 99.7796Z" fill="#FEC91A" fill-opacity="0.8"/>
<path d="M331.843 82.2853L331.835 84.7796L289.655 98.4489L314.973 88.3135L251.159 111.118L334.251 76.8749L334.877 81.2009L331.843 82.2853Z" fill="#FEC91A" fill-opacity="0.8"/>
<path d="M333.114 58.0108L333.133 51.9387L279.405 81.0286L333.114 58.0108Z" fill="#FEC91A" fill-opacity="0.8"/>
<path d="M333.162 42.4625L333.169 40.4385L314.092 50.7755L333.162 42.4625Z" fill="#FEC91A" fill-opacity="0.8"/>
<path d="M333.642 36.0239L333.654 32.1598L236.773 92.3044L333.642 36.0239Z" fill="#FEC91A" fill-opacity="0.8"/>
<path d="M332.663 25.4405L332.033 21.0225L260.026 70.3881L332.663 25.4405Z" fill="#FEC91A" fill-opacity="0.8"/>
<path d="M333.737 5.47932L333.288 1.98184L292.99 32.0334L333.737 5.47932Z" fill="#FEC91A" fill-opacity="0.8"/>
<path d="M333.731 7.31936L332.705 12.0083L331.593 12.7652L332.047 16.4224L286.599 45.63L313.214 25.2799L267.337 56.5184L333.731 7.31936Z" fill="#FEC91A" fill-opacity="0.8"/>
<path d="M333.844 -28.8373L333.86 -33.9894L233.188 61.7485L333.844 -28.8373Z" fill="#FEC91A" fill-opacity="0.8"/>
<path d="M309.039 -40.5067L299.931 -40.535L270.826 -0.420292L309.039 -40.5067Z" fill="#FEC91A" fill-opacity="0.8"/>
<path d="M292.847 -40.557L287.511 -40.5735L225.435 39.9198L292.847 -40.557Z" fill="#FEC91A" fill-opacity="0.8"/>
<path d="M283.921 -39.8487L278.127 -40.6027L224.908 31.8219L283.921 -39.8487Z" fill="#FEC91A" fill-opacity="0.8"/>
<path d="M276.101 -39.873L267.636 -39.8993L215.418 36.3006L276.101 -39.873Z" fill="#FEC91A" fill-opacity="0.8"/>
<path d="M256.966 -40.6684L251.63 -40.685L215.558 21.0286L256.966 -40.6684Z" fill="#FEC91A" fill-opacity="0.8"/>
<path d="M224.212 -40.0342C221.79 -40.2871 216.872 -40.793 216.578 -40.7939L181.82 41.7163L224.212 -40.0342Z" fill="#FEC91A" fill-opacity="0.8"/>
<path d="M209.031 -40.0814L204.615 -40.0951L177.255 30.6618L209.031 -40.0814Z" fill="#FEC91A" fill-opacity="0.8"/>
<path d="M202.68 -39.1811L199.092 -39.1922L179.592 18.8008L202.68 -39.1811Z" fill="#FEC91A" fill-opacity="0.8"/>
<path d="M182.443 -40.164L178.487 -40.1763L167.861 3.95193L182.443 -40.164Z" fill="#FEC91A" fill-opacity="0.8"/>
<path d="M175.727 -40.1848L172.047 -40.1963L154.306 43.5629L175.727 -40.1848Z" fill="#FEC91A" fill-opacity="0.8"/>
<path d="M171.219 -40.1988L169.563 -40.204L166.278 -19.4216L171.219 -40.1988Z" fill="#FEC91A" fill-opacity="0.8"/>
<path d="M154.474 -40.2509L148.402 -40.2697L140.215 48.3032L154.474 -40.2509Z" fill="#FEC91A" fill-opacity="0.8"/>
<path d="M94.7468 -44.041L89.4618 -44.0574L100.255 2.92662L94.7468 -44.041Z" fill="#FEC91A" fill-opacity="0.8"/>
<path d="M79.8751 -44.0872L97.5731 35.2429L74.9589 -44.1025L79.8751 -44.0872Z" fill="#FEC91A" fill-opacity="0.8"/>
<path d="M72.8657 -42.8799L69.5472 -42.8902C72.9549 -32.0229 79.7705 -10.411 79.772 -10.9026C79.7736 -11.3942 75.1684 -32.4257 72.8657 -42.8799Z" fill="#FEC91A" fill-opacity="0.8"/>
<path d="M54.6722 -41.8303L51.1079 -41.8414L82.3293 36.3017L54.6722 -41.8303Z" fill="#FEC91A" fill-opacity="0.8"/>
<path d="M17.0629 -41.9471L25.3011 -43.0277L67.0562 46.8242L34.7919 -10.4664L61.409 44.7173L23.1213 -20.3711L46.595 26.1123L4.64943 -41.9857L11.6585 -43.0701L13.2748 -39.8695L18.2417 -39.8541L17.0629 -41.9471Z" fill="#FEC91A" fill-opacity="0.8"/>
<path d="M-12.1853 -43.1442L-19.0714 -42.0594L60.3539 67.8205L-12.1853 -43.1442Z" fill="#FEC91A" fill-opacity="0.8"/>
<path d="M-20.7948 -41.2044L-27.6813 -39.9967L49.8192 56.4804L-20.7948 -41.2044Z" fill="#FEC91A" fill-opacity="0.8"/>
</g>
<g id="Vector 26">
<path d="M-57.7385 -45.4006L10.0515 33.442L-64.1964 -42.9634L-57.7385 -45.4006Z" fill="#FEA41B" fill-opacity="0.8"/>
<path d="M-69.564 -45.4374L30.0828 61.609L-77.7135 -42.2376L-69.564 -45.4374Z" fill="#FEA41B" fill-opacity="0.8"/>
<path d="M-83.3982 -41.4873L30.0584 69.4414L-84.6631 -29.8193L-83.3982 -41.4873Z" fill="#FEA41B" fill-opacity="0.8"/>
<path d="M-82.2784 -6.46805L20.3717 73.0972L-82.3037 1.67151L-82.2784 -6.46805Z" fill="#FEA41B" fill-opacity="0.8"/>
<path d="M-86.0873 33.1433L20.2949 97.823L-86.1074 39.5935L-86.0873 33.1433Z" fill="#FEA41B" fill-opacity="0.8"/>
<path d="M-86.1866 65.0872L-19.0155 96.0115L-86.2042 70.7695L-86.1866 65.0872Z" fill="#FEA41B" fill-opacity="0.8"/>
<path d="M-84.1729 59.5646L-56.2664 73.9341L-84.1825 62.6362L-84.1729 59.5646Z" fill="#FEA41B" fill-opacity="0.8"/>
<path d="M-85.0425 92.2741L-48.8342 103.905L-85.0534 95.8063L-85.0425 92.2741Z" fill="#FEA41B" fill-opacity="0.8"/>
<path d="M-83.1066 111.784L-49.6526 120.182L-83.1166 115.01L-83.1066 111.784Z" fill="#FEA41B" fill-opacity="0.8"/>
<path d="M-83.1404 122.688L-47.3814 130.632L-81.9233 126.378L-83.1404 122.688Z" fill="#FEA41B" fill-opacity="0.8"/>
<path d="M-85.3602 145.104L-11.0468 151.017L-85.3778 150.786L-85.3602 145.104Z" fill="#FEA41B" fill-opacity="0.8"/>
<path d="M-87.7874 184.873L-26.796 178.152L-87.7955 187.484L-87.7874 184.873Z" fill="#FEA41B" fill-opacity="0.8"/>
<path d="M-85.1146 214.368L-24.5597 199.813L-85.1247 217.594L-85.1146 214.368Z" fill="#FEA41B" fill-opacity="0.8"/>
<path d="M-85.1442 223.89L-26.8857 207.024L-85.1547 227.269L-85.1442 223.89Z" fill="#FEA41B" fill-opacity="0.8"/>
<path d="M-85.1891 238.326L-50.1393 227.378L-85.1986 241.398L-85.1891 238.326Z" fill="#FEA41B" fill-opacity="0.8"/>
<path d="M-84.3545 266.28L-69.4384 260.183L-84.3611 268.43L-84.3545 266.28Z" fill="#FEA41B" fill-opacity="0.8"/>
<path d="M-86.6738 271.341L-7.3081 232.886L-85.3093 277.028L-86.6738 271.341Z" fill="#FEA41B" fill-opacity="0.8"/>
<path d="M-86.7106 283.166L-51.6364 264.385L-85.3384 286.396L-86.7106 283.166Z" fill="#FEA41B" fill-opacity="0.8"/>
<path d="M-84.4609 300.528L-5.36313 249.478L-83.0896 304.064L-84.4609 300.528Z" fill="#FEA41B" fill-opacity="0.8"/>
<path d="M-86.8494 327.857L-9.41577 268.663L-50.0023 303.198L-19.5871 279.996L-83.1841 334.472L-83.8673 332.014L-85.4844 333.39L-86.8494 327.857Z" fill="#FEA41B" fill-opacity="0.8"/>
<path d="M-84.5778 338.154L6.7279 262.877L-83.2118 343.38L-84.5778 338.154Z" fill="#FEA41B" fill-opacity="0.8"/>
<path d="M-84.653 362.357L29.8988 253.682L-83.3022 372.478L-84.653 362.357Z" fill="#FEA41B" fill-opacity="0.8"/>
<path d="M-77.6601 376.402L-12.8947 310.354L-69.7778 376.426L-77.6601 376.402Z" fill="#FEA41B" fill-opacity="0.8"/>
<path d="M-65.079 374.189L-18.5663 323.661L-44.0676 355.189L-18.58 328.069L-55.5025 372.564L-58.1141 372.556L-59.4488 374.206L-65.079 374.189Z" fill="#FEA41B" fill-opacity="0.8"/>
<path d="M-38.2488 376.524L9.42376 315.115L-31.3049 376.546L-38.2488 376.524Z" fill="#FEA41B" fill-opacity="0.8"/>
<path d="M-45.7487 374.249L3.04871 313.218L-39.5555 374.268L-45.7487 374.249Z" fill="#FEA41B" fill-opacity="0.8"/>
<path d="M-3.34158 376.632L63.4429 264.743L6.37438 376.663L-3.34158 376.632Z" fill="#FEA41B" fill-opacity="0.8"/>
<path d="M47.3371 374.538L86.1294 271.878L54.844 374.561L47.3371 374.538Z" fill="#FEA41B" fill-opacity="0.8"/>
<path d="M85.7996 378.035L103.308 300.017L93.4942 378.059L85.7996 378.035Z" fill="#FEA41B" fill-opacity="0.8"/>
<path d="M76.9789 378.008L91.4234 319.686L82.4215 378.025L76.9789 378.008Z" fill="#FEA41B" fill-opacity="0.8"/>
<path d="M113.393 376.432L117.161 311.321L108.519 374.728L113.393 376.432Z" fill="#FEA41B" fill-opacity="0.8"/>
<path d="M130.462 379.488L129.226 293.904L133.652 379.498L130.462 379.488Z" fill="#FEA41B" fill-opacity="0.8"/>
<path d="M143.415 378.214L137.004 267.279L147.919 378.228L143.415 378.214Z" fill="#FEA41B" fill-opacity="0.8"/>
<path d="M169.314 378.295L156.035 302.996L174.569 378.311L169.314 378.295Z" fill="#FEA41B" fill-opacity="0.8"/>
<path d="M193.524 378.37L176.451 316.197L198.028 378.384L193.524 378.37Z" fill="#FEA41B" fill-opacity="0.8"/>
<path d="M206.286 378.41L167.407 267.373L213.605 378.433L206.286 378.41Z" fill="#FEA41B" fill-opacity="0.8"/>
<path d="M217.921 378.446L187.214 295.211L226.565 375.095L217.921 378.446Z" fill="#FEA41B" fill-opacity="0.8"/>
<path d="M231.058 378.487L206.463 321.17L234.437 378.497L231.058 378.487Z" fill="#FEA41B" fill-opacity="0.8"/>
<path d="M252.088 375.174L192.176 268.576L261.66 375.204L252.088 375.174Z" fill="#FEA41B" fill-opacity="0.8"/>
<path d="M289.242 376.978L226.835 288.202L297.13 375.314L289.242 376.978Z" fill="#FEA41B" fill-opacity="0.8"/>
<path d="M312.331 375.361L223.521 267.548L326.97 375.407L312.331 375.361Z" fill="#FEA41B" fill-opacity="0.8"/>
<path d="M331.309 368.101L282.305 314.274L333.209 360.6L331.309 368.101Z" fill="#FEA41B" fill-opacity="0.8"/>
<path d="M335.222 316.69L265.013 262.234L336.373 308.624L335.222 316.69Z" fill="#FEA41B" fill-opacity="0.8"/>
<path d="M334.184 288.536L276.691 248.758L334.208 280.653L334.184 288.536Z" fill="#FEA41B" fill-opacity="0.8"/>
<path d="M334.222 276.337L302.934 258.786L334.233 272.771L334.222 276.337Z" fill="#FEA41B" fill-opacity="0.8"/>
<path d="M332.574 261.722L258.32 223.122L334.282 256.997L332.574 261.722Z" fill="#FEA41B" fill-opacity="0.8"/>
<path d="M336.022 251.484L259.78 218.396L337.45 257.007L336.022 251.484Z" fill="#FEA41B" fill-opacity="0.8"/>
<path d="M334.335 239.915L303.029 228.386L332.632 242.801L334.335 239.915Z" fill="#FEA41B" fill-opacity="0.8"/>
<path d="M332.668 231.237L277.932 212.408L332.658 234.654L332.668 231.237Z" fill="#FEA41B" fill-opacity="0.8"/>
<path d="M332.752 204.431L332.756 203.117L322.908 201.012L332.752 204.431Z" fill="#FEA41B" fill-opacity="0.8"/>
<path d="M332.828 179.991L255.979 172.919L332.81 185.641L332.828 179.991Z" fill="#FEA41B" fill-opacity="0.8"/>
<path d="M334.342 157.789L254.181 159.511L334.331 161.468L334.342 157.789Z" fill="#FEA41B" fill-opacity="0.8"/>
<path d="M334.413 135.056L305.491 139.303L334.404 137.947L334.413 135.056Z" fill="#FEA41B" fill-opacity="0.8"/>
<path d="M333.784 125.988L274.227 136.052L333.768 131.112L333.784 125.988Z" fill="#FEA41B" fill-opacity="0.8"/>
<path d="M333.854 103.255L246.534 125.716L333.842 107.329L333.854 103.255Z" fill="#FEA41B" fill-opacity="0.8"/>
<path d="M334.577 82.1016L244.853 116.644L334.568 85.1238L334.577 82.1016Z" fill="#FEA41B" fill-opacity="0.8"/>
<path d="M337.841 89.0761L270.887 111.601L337.83 92.4925L337.841 89.0761Z" fill="#FEA41B" fill-opacity="0.8"/>
<path d="M333.983 61.7325L334.008 53.8484L260.698 92.2529L333.983 61.7325Z" fill="#FEA41B" fill-opacity="0.8"/>
<path d="M334.056 38.3431L334.727 33.8775L242.31 89.5677L334.056 38.3431Z" fill="#FEA41B" fill-opacity="0.8"/>
<path d="M333.057 21.5205L333.063 19.5495L302.251 40.2153L333.057 21.5205Z" fill="#FEA41B" fill-opacity="0.8"/>
<path d="M302.231 46.5225L333.042 26.2509L333.033 29.1417L302.231 46.5225Z" fill="#FEA41B" fill-opacity="0.8"/>
<path d="M332.353 -5.55057L333.168 -14.2206L225.258 79.5282L332.353 -5.55057Z" fill="#FEA41B" fill-opacity="0.8"/>
<path d="M334.901 -22.017L334.277 -32.798L232.821 63.4396L334.901 -22.017Z" fill="#FEA41B" fill-opacity="0.8"/>
<path d="M334.946 -36.4654L332.473 -44.2707L241.36 46.3334L334.946 -36.4654Z" fill="#FEA41B" fill-opacity="0.8"/>
<path d="M306.55 -45.7273L298.064 -45.7536L242.502 27.6924L306.55 -45.7273Z" fill="#FEA41B" fill-opacity="0.8"/>
<path d="M294.395 -45.765L287.285 -45.7871L202.536 67.4736L294.395 -45.765Z" fill="#FEA41B" fill-opacity="0.8"/>
<path d="M257.471 -45.8798L245.359 -45.9174L207.014 28.7502L257.471 -45.8798Z" fill="#FEA41B" fill-opacity="0.8"/>
<path d="M229.71 -42.5259L222.372 -42.5487L182.645 47.4591L229.71 -42.5259Z" fill="#FEA41B" fill-opacity="0.8"/>
<path d="M207.235 -42.5957L202.878 -42.6093L185.509 11.4614L207.235 -42.5957Z" fill="#FEA41B" fill-opacity="0.8"/>
<path d="M198.291 -42.6235L193.245 -42.6392L168.456 37.8286L198.291 -42.6235Z" fill="#FEA41B" fill-opacity="0.8"/>
<path d="M179.725 -46.1213L175.138 -46.1356L156.76 37.7922L179.725 -46.1213Z" fill="#FEA41B" fill-opacity="0.8"/>
<path d="M157.016 -44.8158L152.659 -44.8294L145.544 30.6019L157.016 -44.8158Z" fill="#FEA41B" fill-opacity="0.8"/>
<path d="M140.275 -44.8678L132.936 -44.8906L135.087 0.984355L140.275 -44.8678Z" fill="#FEA41B" fill-opacity="0.8"/>
<path d="M119.863 -44.9313L115.965 -44.9434L121.306 7.3631L119.863 -44.9313Z" fill="#FEA41B" fill-opacity="0.8"/>
<path d="M109.772 -44.9626L105.186 -44.9769L115.73 30.5093L109.772 -44.9626Z" fill="#FEA41B" fill-opacity="0.8"/>
<path d="M35.0014 -43.1308L28.8092 -43.1501L75.3087 48.9603L35.0014 -43.1308Z" fill="#FEA41B" fill-opacity="0.8"/>
<path d="M-28.2963 -43.3275L-37.242 -42.8797L26.9608 35.0496L-28.2963 -43.3275Z" fill="#FEA41B" fill-opacity="0.8"/>
<path d="M-3.75846 -42.7757L-9.4983 -40.7463L27.0357 10.969L-3.75846 -42.7757Z" fill="#FEA41B" fill-opacity="0.8"/>
</g>
</g>
<g id="Group 44">
<g id="Group 39">
<path id="Vector 26_2" d="M221.946 293.909L10.5211 284.371L35.6696 90.0962L232.351 102.885L221.946 293.909Z" fill="#585555" stroke="black"/>
<path id="Vector 24" d="M222.994 296.01L11.9956 290.061L33.6921 91.9712L230.045 101.489L222.994 296.01Z" fill="#E7E7E7" stroke="black"/>
<path id="Vector 25" d="M238.004 288.317L23.0679 296.195V101.626L223.773 96.1353L238.004 288.317Z" fill="#FCFCFC" stroke="black"/>
</g>
<g id="Group 40">
<g id="Rectangle 79" filter="url(#filter0_d)">
<rect x="81.9633" y="273.819" width="86.0734" height="36.0037" fill="white"/>
<rect x="82.4633" y="274.319" width="85.0734" height="35.0037" stroke="black"/>
</g>
<circle id="Ellipse 1" cx="86.5927" cy="278.251" r="1.9365" fill="black"/>
<circle id="Ellipse 2" cx="164.329" cy="306.099" r="1.9365" fill="black"/>
<circle id="Ellipse 3" cx="164.329" cy="278.251" r="1.9365" fill="black"/>
<circle id="Ellipse 4" cx="86.5927" cy="306.099" r="1.9365" fill="black"/>
</g>
</g>
<g id="Group 42">
<path id="Rectangle 77" d="M80.4897 24.0426L182.893 30.7147L177.394 81.2625L59.59 74.7283L80.4897 24.0426Z" fill="white" fill-opacity="0.5"/>
<path id="Rectangle 78" d="M169.539 26.2232L66.9268 27.5059L69.7628 78.2728L187.747 77.9369L169.539 26.2232Z" fill="white" fill-opacity="0.8"/>
<g id="Group 31">
<path id="Vector 2" d="M174.03 22.4431V21.9039L173.493 21.9446L78.4281 29.1272L78.0719 29.1541L77.9819 29.4998L64.8841 79.7784L64.7255 80.3871L65.3543 80.4043L173.517 83.3618L174.03 83.3759V82.862V22.4431Z" stroke="black"/>
<path id="Vector 4" d="M102.693 22.856L75.4553 25.7485L75.1373 25.7823L75.0346 26.0852L68.6301 44.9785L72.131 24.6096L102.693 22.856Z" fill="black" stroke="black"/>
<path id="Vector 3" d="M167.416 87.4209C147.727 88.0492 133.72 87.0348 120.906 85.9533C131.708 86.0929 144.07 86.4728 154.445 86.8704C159.336 87.0578 163.783 87.2491 167.416 87.4209Z" fill="black" stroke="black"/>
</g>
<g id="Group 30">
<g id="Group 30_2">
<path id="Vector 5" d="M85.5678 42.0339L110.918 35.2737V40.7663L89.3704 44.9914L90.2154 54.7092L107.961 50.0616L107.116 54.7092L90.6379 58.9343L92.328 69.0745L110.918 66.5394L111.341 72.0321L89.3704 74.5671L85.5678 42.0339Z" fill="black"/>
<path id="Vector 6" d="M112.608 35.2737L119.791 32.7387L111.341 71.6096L131.621 70.342L128.664 76.2572H105.003L112.608 35.2737Z" fill="black"/>
<path id="Vector 7" fill-rule="evenodd" clip-rule="evenodd" d="M130.354 40.3439L136.691 38.6538L151.057 81.3273L143.029 80.4823L139.649 64.4269L132.466 65.2719L130.354 79.6373H124.439L130.354 40.3439ZM132.044 61.0468L134.156 44.9915L138.804 59.7793L132.044 61.0468Z" fill="black"/>
<path id="Vector 8" d="M143.874 39.2635L147.043 77.5247L152.324 72.2834L150.212 47.1254L162.887 70.711L169.225 69.1387L167.64 37.6911H161.831L163.943 62.8491L150.212 36.1187L143.874 39.2635Z" fill="black"/>
</g>
<g id="Group 31_2">
<path id="Vector 5_2" d="M84.5789 41.2779L109.929 34.5178V40.0104L88.3814 44.2355L89.2265 53.9532L106.972 49.3056L106.127 53.9532L89.649 58.1783L91.339 68.3186L109.929 65.7835L110.352 71.2761L88.3814 73.8112L84.5789 41.2779Z" fill="white"/>
<path id="Vector 6_2" d="M111.619 34.5178L118.802 31.9827L110.352 70.8536L130.632 69.5861L127.675 75.5012H104.014L111.619 34.5178Z" fill="white"/>
<path id="Vector 7_2" fill-rule="evenodd" clip-rule="evenodd" d="M129.365 39.5879L135.702 37.8979L150.068 80.5714L142.04 79.7264L138.66 63.671L131.477 64.516L129.365 78.8813H123.45L129.365 39.5879ZM131.055 60.2909L133.167 44.2355L137.815 59.0234L131.055 60.2909Z" fill="white"/>
<path id="Vector 8_2" d="M142.885 38.5075L146.054 76.7687L151.335 71.5275L149.223 46.3694L161.898 69.9551L168.236 68.3827L166.651 36.9352H160.842L162.954 62.0932L149.223 35.3628L142.885 38.5075Z" fill="white"/>
</g>
<g id="Group 29">
<path id="Vector 5_3" d="M81.4233 39.766L106.774 33.0059V38.4985L85.2259 42.7236L86.0709 52.4413L103.816 47.7937L102.971 52.4413L86.4934 56.6664L88.1834 66.8066L106.774 64.2716L107.196 69.7642L85.2259 72.2993L81.4233 39.766Z" fill="black" stroke="black"/>
<path id="Vector 6_3" d="M108.464 33.0059L115.647 30.4708L107.196 69.3417L127.477 68.0742L124.519 73.9893H100.859L108.464 33.0059Z" fill="black" stroke="black"/>
<path id="Vector 7_3" fill-rule="evenodd" clip-rule="evenodd" d="M126.209 38.076L132.547 36.3859L146.912 79.0594L138.885 78.2144L135.504 62.159L128.322 63.0041L126.209 77.3694H120.294L126.209 38.076ZM127.899 58.779L130.012 42.7236L134.659 57.5114L127.899 58.779Z" fill="black" stroke="black"/>
<path id="Vector 8_3" d="M139.73 36.9956L142.898 75.2568L148.18 70.0156L146.067 44.8575L158.743 68.4432L165.08 66.8708L163.496 35.4232H157.686L159.799 60.5813L146.067 33.8509L139.73 36.9956Z" fill="black" stroke="black"/>
</g>
<path id="Vector 9" d="M118.805 32.6915L118.681 32.4991L118.871 32.6554L118.805 32.6915Z" stroke="black"/>
</g>
</g>
<rect id="Rectangle 80" x="1" y="1.00003" width="248" height="331.33" stroke="#131313" stroke-width="2"/>
</g>
<defs>
<filter id="filter0_d" x="81.9633" y="273.819" width="87.0734" height="37.0037" filterUnits="userSpaceOnUse" color-interpolation-filters="sRGB">
<feFlood flood-opacity="0" result="BackgroundImageFix"/>
<feColorMatrix in="SourceAlpha" type="matrix" values="0 0 0 0 0 0 0 0 0 0 0 0 0 0 0 0 0 0 127 0"/>
<feOffset dx="1" dy="1"/>
<feColorMatrix type="matrix" values="0 0 0 0 0 0 0 0 0 0 0 0 0 0 0 0 0 0 1 0"/>
<feBlend mode="normal" in2="BackgroundImageFix" result="effect1_dropShadow"/>
<feBlend mode="normal" in="SourceGraphic" in2="effect1_dropShadow" result="shape"/>
</filter>
<clipPath id="clip0">
<rect width="250" height="333.33" fill="white"/>
</clipPath>
</defs>
</svg>
