<svg width="100vw" height="100vh" viewBox="0 0 480 270" fill="none" xmlns="http://www.w3.org/2000/svg">
<rect x="126" y="191" width="227" height="29" fill="#2F4249"/>
<path d="M109 224C109 218.477 113.477 214 119 214H360C365.523 214 370 218.477 370 224V229H109V224Z" fill="#C72228"/>
<path d="M407 105H411C419.284 105 426 111.716 426 120V152C426 160.284 419.284 167 411 167H407V105Z" fill="#FFC40F"/>

<g id="bar">
<rect width="10" height="57" fill="#9F9F9F" transform="translate(426, 79)" >
    <animateTransform attributeName="transform" dur="1s" type="translate" from="426, 79" to="-426, -79"  repeatCount="1" additive="sum" begin="bar.click" restart="whenNotActive"/>
    <animateTransform attributeName="transform" dur="1s" type="translate" from="-426, -79" to="426, 134"  repeatCount="1" additive="sum" begin="bar.click" restart="whenNotActive"/>
    <animate attributeName="height" dur="1s" type="xml" to="10"  repeatCount="1" additive="sum" begin="bar.click" restart="whenNotActive"/>
</rect>
<circle  cx="431" cy="71" r="12" fill="#C72228">
    <animate attributeName="cy" dur="1s" type="xml" to="160"  repeatCount="1" additive="sum" begin="bar.click" restart="whenNotActive"/>
    <animate attributeName="r" dur="1s" type="xml" to="20"  repeatCount="1" additive="sum" begin="bar.click" restart="whenNotActive"/>
</circle>
</g>

<path d="M154 72C154 60.9543 162.954 52 174 52H307C318.046 52 327 60.9543 327 72V72H154V72Z" fill="#C72228"/>
<path d="M78 75C78 68.3726 83.3726 63 90 63H389C395.627 63 401 68.3726 401 75V75H78V75Z" fill="#2F4249"/>
<path fill-rule="evenodd" clip-rule="evenodd" d="M71 71C68.2386 71 66 73.2386 66 76V195C66 197.761 68.2386 200 71 200H408C410.761 200 413 197.761 413 195V76C413 73.2386 410.761 71 408 71H71ZM152 105H107V165H152V105ZM162 105H207V165H162V105ZM262 105H217V165H262V105ZM272 105H317V165H272V105ZM372 105H327V165H372V105Z" fill="#C72228"/>
<path fill-rule="evenodd" clip-rule="evenodd" d="M91 87C88.2386 87 86 89.2386 86 92V178C86 180.761 88.2386 183 91 183H388C390.761 183 393 180.761 393 178V92C393 89.2386 390.761 87 388 87H91ZM152 105H107V165H152V105ZM162 105H207V165H162V105ZM262 105H217V165H262V105ZM272 105H317V165H272V105ZM372 105H327V165H372V105Z" fill="#2F4249"/>
<path fill-rule="evenodd" clip-rule="evenodd" d="M102 96C99.2386 96 97 98.2386 97 101V169C97 171.761 99.2386 174 102 174H378C380.761 174 383 171.761 383 169V101C383 98.2386 380.761 96 378 96H102ZM152 105H107V165H152V105ZM162 105H207V165H162V105ZM262 105H217V165H262V105ZM272 105H317V165H272V105ZM372 105H327V165H372V105Z" fill="#E22028"/>
<circle cx="76" cy="117" r="5" fill="#FFC40F"/>
<circle cx="76" cy="155" r="5" fill="#FFC40F"/>
<circle cx="76" cy="190" r="5" fill="#FFC40F"/>
<circle cx="118" cy="190" r="5" fill="#FFC40F"/>
<circle cx="162" cy="190" r="5" fill="#FFC40F"/>
<circle cx="206" cy="190" r="5" fill="#FFC40F"/>
<circle cx="250" cy="190" r="5" fill="#FFC40F"/>
<circle cx="294" cy="190" r="5" fill="#FFC40F"/>
<circle cx="338" cy="190" r="5" fill="#FFC40F"/>
<circle cx="382" cy="190" r="5" fill="#FFC40F"/>
<circle cx="402" cy="174" r="5" fill="#FFC40F"/>
<circle cx="402" cy="136" r="5" fill="#FFC40F"/>
<circle cx="402" cy="98" r="5" fill="#FFC40F"/>
<circle cx="382" cy="80" r="5" fill="#FFC40F"/>
<circle cx="338" cy="80" r="5" fill="#FFC40F"/>
<circle cx="294" cy="80" r="5" fill="#FFC40F"/>
<circle cx="250" cy="80" r="5" fill="#FFC40F"/>
<circle cx="206" cy="80" r="5" fill="#FFC40F"/>
<circle cx="162" cy="80" r="5" fill="#FFC40F"/>
<circle cx="118" cy="80" r="5" fill="#FFC40F"/>
<circle cx="76" cy="80" r="5" fill="#FFC40F"/>
<circle cx="76" cy="98" r="5" fill="#FBF710"/>
<circle cx="76" cy="136" r="5" fill="#FBF710"/>
<circle cx="76" cy="174" r="5" fill="#FBF710"/>
<circle cx="96" cy="190" r="5" fill="#FBF710"/>
<circle cx="140" cy="190" r="5" fill="#FBF710"/>
<circle cx="184" cy="190" r="5" fill="#FBF710"/>
<circle cx="228" cy="190" r="5" fill="#FBF710"/>
<circle cx="272" cy="190" r="5" fill="#FBF710"/>
<circle cx="316" cy="190" r="5" fill="#FBF710"/>
<circle cx="360" cy="190" r="5" fill="#FBF710"/>
<circle cx="402" cy="190" r="5" fill="#FBF710"/>
<circle cx="402" cy="155" r="5" fill="#FBF710"/>
<circle cx="402" cy="117" r="5" fill="#FBF710"/>
<circle cx="402" cy="80" r="5" fill="#FBF710"/>
<circle cx="360" cy="80" r="5" fill="#FBF710"/>
<circle cx="316" cy="80" r="5" fill="#FBF710"/>
<circle cx="272" cy="80" r="5" fill="#FBF710"/>
<circle cx="228" cy="80" r="5" fill="#FBF710"/>
<circle cx="184" cy="80" r="5" fill="#FBF710"/>
<circle cx="140" cy="80" r="5" fill="#FBF710"/>
<circle cx="96" cy="80" r="5" fill="#FBF710"/>
<g filter="url(#filter0_dddd)">
<path d="M195.742 47.5391H182.805V55.6719H198.086V62H174.578V27.875H198.133V34.2266H182.805V41.4219H195.742V47.5391ZM216.384 55.6719H230.704V62H208.158V27.875H216.384V55.6719ZM260.745 55.625H249.471L247.503 62H238.713L251.229 27.875H258.963L271.573 62H262.737L260.745 55.625ZM251.44 49.2734H258.776L255.096 37.4375L251.44 49.2734ZM309.301 62H301.121L289.027 40.7656V62H280.801V27.875H289.027L301.097 49.1094V27.875H309.301V62Z" fill="url(#paint0_linear)"/>
<path d="M195.742 47.5391V48.5391H196.742V47.5391H195.742ZM182.805 47.5391V46.5391H181.805V47.5391H182.805ZM182.805 55.6719H181.805V56.6719H182.805V55.6719ZM198.086 55.6719H199.086V54.6719H198.086V55.6719ZM198.086 62V63H199.086V62H198.086ZM174.578 62H173.578V63H174.578V62ZM174.578 27.875V26.875H173.578V27.875H174.578ZM198.133 27.875H199.133V26.875H198.133V27.875ZM198.133 34.2266V35.2266H199.133V34.2266H198.133ZM182.805 34.2266V33.2266H181.805V34.2266H182.805ZM182.805 41.4219H181.805V42.4219H182.805V41.4219ZM195.742 41.4219H196.742V40.4219H195.742V41.4219ZM195.742 46.5391H182.805V48.5391H195.742V46.5391ZM181.805 47.5391V55.6719H183.805V47.5391H181.805ZM182.805 56.6719H198.086V54.6719H182.805V56.6719ZM197.086 55.6719V62H199.086V55.6719H197.086ZM198.086 61H174.578V63H198.086V61ZM175.578 62V27.875H173.578V62H175.578ZM174.578 28.875H198.133V26.875H174.578V28.875ZM197.133 27.875V34.2266H199.133V27.875H197.133ZM198.133 33.2266H182.805V35.2266H198.133V33.2266ZM181.805 34.2266V41.4219H183.805V34.2266H181.805ZM182.805 42.4219H195.742V40.4219H182.805V42.4219ZM194.742 41.4219V47.5391H196.742V41.4219H194.742ZM216.384 55.6719H215.384V56.6719H216.384V55.6719ZM230.704 55.6719H231.704V54.6719H230.704V55.6719ZM230.704 62V63H231.704V62H230.704ZM208.158 62H207.158V63H208.158V62ZM208.158 27.875V26.875H207.158V27.875H208.158ZM216.384 27.875H217.384V26.875H216.384V27.875ZM216.384 56.6719H230.704V54.6719H216.384V56.6719ZM229.704 55.6719V62H231.704V55.6719H229.704ZM230.704 61H208.158V63H230.704V61ZM209.158 62V27.875H207.158V62H209.158ZM208.158 28.875H216.384V26.875H208.158V28.875ZM215.384 27.875V55.6719H217.384V27.875H215.384ZM260.745 55.625L261.699 55.3267L261.48 54.625H260.745V55.625ZM249.471 55.625V54.625H248.733L248.516 55.3299L249.471 55.625ZM247.503 62V63H248.24L248.458 62.2951L247.503 62ZM238.713 62L237.775 61.6557L237.282 63H238.713V62ZM251.229 27.875V26.875H250.531L250.29 27.5307L251.229 27.875ZM258.963 27.875L259.901 27.5284L259.66 26.875H258.963V27.875ZM271.573 62V63H273.008L272.511 61.6534L271.573 62ZM262.737 62L261.782 62.2983L262.002 63H262.737V62ZM251.44 49.2734L250.485 48.9783L250.084 50.2734H251.44V49.2734ZM258.776 49.2734V50.2734H260.134L259.731 48.9766L258.776 49.2734ZM255.096 37.4375L256.051 37.1406L255.093 34.0593L254.141 37.1424L255.096 37.4375ZM260.745 54.625H249.471V56.625H260.745V54.625ZM248.516 55.3299L246.547 61.7049L248.458 62.2951L250.427 55.9201L248.516 55.3299ZM247.503 61H238.713V63H247.503V61ZM239.652 62.3443L252.168 28.2193L250.29 27.5307L237.775 61.6557L239.652 62.3443ZM251.229 28.875H258.963V26.875H251.229V28.875ZM258.025 28.2216L270.635 62.3466L272.511 61.6534L259.901 27.5284L258.025 28.2216ZM271.573 61H262.737V63H271.573V61ZM263.691 61.7017L261.699 55.3267L259.79 55.9233L261.782 62.2983L263.691 61.7017ZM251.44 50.2734H258.776V48.2734H251.44V50.2734ZM259.731 48.9766L256.051 37.1406L254.141 37.7344L257.821 49.5703L259.731 48.9766ZM254.141 37.1424L250.485 48.9783L252.395 49.5686L256.052 37.7326L254.141 37.1424ZM309.301 62V63H310.301V62H309.301ZM301.121 62L300.252 62.4949L300.54 63H301.121V62ZM289.027 40.7656L289.896 40.2707L288.027 36.9892V40.7656H289.027ZM289.027 62V63H290.027V62H289.027ZM280.801 62H279.801V63H280.801V62ZM280.801 27.875V26.875H279.801V27.875H280.801ZM289.027 27.875L289.897 27.3808L289.609 26.875H289.027V27.875ZM301.097 49.1094L300.228 49.6035L302.097 52.8922V49.1094H301.097ZM301.097 27.875V26.875H300.097V27.875H301.097ZM309.301 27.875H310.301V26.875H309.301V27.875ZM309.301 61H301.121V63H309.301V61ZM301.99 61.5051L289.896 40.2707L288.158 41.2605L300.252 62.4949L301.99 61.5051ZM288.027 40.7656V62H290.027V40.7656H288.027ZM289.027 61H280.801V63H289.027V61ZM281.801 62V27.875H279.801V62H281.801ZM280.801 28.875H289.027V26.875H280.801V28.875ZM288.158 28.3692L300.228 49.6035L301.967 48.6152L289.897 27.3808L288.158 28.3692ZM302.097 49.1094V27.875H300.097V49.1094H302.097ZM301.097 28.875H309.301V26.875H301.097V28.875ZM308.301 27.875V62H310.301V27.875H308.301Z" fill="#FFEF00"/>
</g>
<path d="M172.559 21.0958L181.663 25.7928L175.357 30.6526L172.559 21.0958Z" fill="#F79329"/>
<path d="M181.844 25.9739C181.836 25.9816 181.829 25.9893 181.82 25.9954L175.512 30.8567C175.444 30.9089 175.357 30.9228 175.275 30.8967C175.194 30.8706 175.133 30.8061 175.108 30.7262L172.312 21.1679C172.284 21.0696 172.318 20.9621 172.395 20.8977C172.473 20.8316 172.584 20.8193 172.674 20.8669L181.712 25.5317C181.763 25.5394 181.812 25.564 181.85 25.6023C181.95 25.7021 181.95 25.8649 181.85 25.9647C181.852 25.9663 181.847 25.9709 181.844 25.9739V25.9739ZM175.495 30.2226L181.187 25.8357L172.974 21.5963L175.495 30.2226Z" fill="#F79329"/>
<path d="M162.296 26.608C162.518 26.8304 162.643 27.132 162.643 27.4464C162.643 27.7609 162.518 28.0624 162.296 28.2848C161.834 28.747 161.082 28.747 160.619 28.2848C160.156 27.8211 160.156 27.0718 160.619 26.608C161.083 26.1443 161.832 26.1443 162.296 26.608Z" fill="#F79329"/>
<path d="M162.476 28.4644C162.205 28.7343 161.838 28.8858 161.456 28.8858C161.074 28.8858 160.707 28.7343 160.437 28.4644C160.167 28.1937 160.015 27.8271 160.015 27.4448C160.015 27.0626 160.167 26.696 160.437 26.4253C160.707 26.1554 161.074 26.0039 161.456 26.0039C161.838 26.0039 162.205 26.1554 162.476 26.4253C162.746 26.696 162.897 27.0626 162.897 27.4448C162.897 27.8271 162.746 28.1937 162.476 28.4644V28.4644ZM160.8 26.7892C160.438 27.1515 160.438 27.7412 160.8 28.1035C161.163 28.4659 161.752 28.4659 162.115 28.1035C162.477 27.7412 162.479 27.15 162.116 26.7876C161.754 26.4253 161.163 26.4268 160.8 26.7892V26.7892Z" fill="#F79329"/>
<path d="M169.656 17.5717C170.145 17.1371 170.896 17.1817 171.331 17.6715C171.767 18.1598 171.719 18.9106 171.233 19.3452C171.116 19.4488 170.981 19.5285 170.834 19.5796C170.687 19.6308 170.531 19.6524 170.375 19.6433C170.22 19.6342 170.068 19.5945 169.928 19.5264C169.787 19.4584 169.662 19.3634 169.559 19.2469C169.123 18.7555 169.166 18.0062 169.656 17.5717V17.5717Z" fill="#F79329"/>
<path d="M171.463 19.4772L171.401 19.5356C171.114 19.792 170.743 19.921 170.36 19.898C170.171 19.8873 169.986 19.8393 169.816 19.7569C169.645 19.6744 169.493 19.559 169.367 19.4173C169.123 19.1423 168.993 18.7845 169.004 18.4169C169.015 18.0494 169.166 17.6999 169.425 17.4397L169.487 17.3813C170.083 16.8531 170.998 16.9084 171.524 17.5026C171.767 17.7777 171.897 18.1351 171.885 18.5021C171.874 18.869 171.723 19.2178 171.463 19.4772V19.4772ZM169.821 17.7652C169.438 18.149 169.422 18.708 169.749 19.0749C169.914 19.2607 170.141 19.3713 170.39 19.3866C170.638 19.402 170.875 19.3191 171.062 19.1532L171.102 19.1164C171.449 18.7694 171.466 18.2089 171.139 17.842C170.798 17.4581 170.208 17.4243 169.823 17.7636L169.821 17.7652V17.7652Z" fill="#F79329"/>
<path d="M164.094 29.5608L168.793 38.6631L173.653 32.3569L164.094 29.5608Z" fill="#F79329"/>
<path d="M168.974 38.8443C168.922 38.8965 168.846 38.9257 168.77 38.9196C168.682 38.9119 168.605 38.8597 168.565 38.7829L163.867 29.6806C163.819 29.59 163.832 29.4795 163.898 29.4012C163.968 29.3152 164.068 29.2891 164.168 29.3183L173.726 32.1144C173.806 32.1389 173.87 32.2003 173.897 32.2817C173.924 32.3616 173.907 32.4491 173.857 32.5182L168.997 38.8244C168.989 38.829 168.982 38.8367 168.974 38.8443V38.8443ZM164.596 29.9739L168.836 38.1902L173.223 32.4982L164.596 29.9739Z" fill="#F79329"/>
<path d="M166.262 20.7533C166.955 21.4458 166.955 22.5697 166.262 23.2622C165.57 23.9547 164.444 23.9563 163.752 23.2638C163.058 22.5697 163.059 21.4473 163.753 20.7533C164.447 20.0592 165.568 20.0592 166.262 20.7533V20.7533Z" fill="#FCC21B"/>
<path d="M158.19 30.7139C158.74 31.2636 158.74 32.1541 158.189 32.7054C157.639 33.2551 156.748 33.2551 156.199 32.7054C155.647 32.1541 155.647 31.2636 156.197 30.7139C156.748 30.1626 157.639 30.1626 158.19 30.7139Z" fill="#FCC21B"/>
<path d="M173.712 15.1918C174.262 15.7415 175.153 15.7415 175.704 15.1903C176.254 14.6406 176.255 13.7485 175.705 13.1988C175.441 12.9345 175.083 12.786 174.709 12.786C174.335 12.786 173.977 12.9345 173.712 13.1988C173.448 13.4631 173.3 13.8215 173.3 14.1953C173.3 14.5691 173.448 14.9275 173.712 15.1918V15.1918Z" fill="#FCC21B"/>
<path d="M166.262 20.7533C166.955 21.4458 166.955 22.5697 166.262 23.2622C165.57 23.9547 164.444 23.9563 163.752 23.2638C163.058 22.5697 163.059 21.4473 163.753 20.7533C164.447 20.0592 165.568 20.0592 166.262 20.7533V20.7533Z" fill="#FCC21B"/>
<path d="M158.19 30.7139C158.74 31.2636 158.74 32.1541 158.189 32.7054C157.639 33.2551 156.748 33.2551 156.199 32.7054C155.647 32.1541 155.647 31.2636 156.197 30.7139C156.748 30.1626 157.639 30.1626 158.19 30.7139Z" fill="#FCC21B"/>
<path d="M173.712 15.1918C174.262 15.7415 175.153 15.7415 175.704 15.1903C176.254 14.6406 176.255 13.7485 175.705 13.1988C175.441 12.9345 175.083 12.786 174.709 12.786C174.335 12.786 173.977 12.9345 173.712 13.1988C173.448 13.4631 173.3 13.8215 173.3 14.1953C173.3 14.5691 173.448 14.9275 173.712 15.1918V15.1918Z" fill="#FCC21B"/>
<path d="M177.318 17.2739C177.271 17.292 177.23 17.3237 177.2 17.365C177.171 17.4062 177.155 17.4552 177.153 17.5057L176.862 26.7217L168.404 25.048C168.32 25.0311 168.235 25.0572 168.174 25.1186C168.114 25.1785 168.086 25.2645 168.102 25.3474L169.762 33.8217L160.546 34.1104C160.495 34.1118 160.446 34.1282 160.405 34.1574C160.364 34.1867 160.332 34.2274 160.314 34.2747C160.277 34.3699 160.302 34.4804 160.377 34.5495L167.868 41.6511C169.455 43.2372 174.393 40.7866 179.11 36.0696C183.827 31.3527 186.277 26.4146 184.696 24.833L177.59 17.3368C177.522 17.2631 177.413 17.237 177.318 17.2739V17.2739Z" fill="#FCC21B"/>
<path d="M181.163 20.9928L181.166 20.9928L183.969 23.9778L183.968 23.9793C183.303 24.6043 182.139 24.4415 181.364 23.6169C180.587 22.7909 180.498 21.6178 181.163 20.9928V20.9928Z" fill="#D7598B"/>
<path d="M164.036 38.1195L164.036 38.1226L167.019 40.9279L167.022 40.9248C167.646 40.2615 167.485 39.0961 166.659 38.3222C165.832 37.5453 164.659 37.4562 164.036 38.1195V38.1195Z" fill="#D7598B"/>
<path d="M176.768 31.0656C177.625 31.9224 177.724 33.2137 176.989 33.9492C176.255 34.6832 174.964 34.5834 174.107 33.7266C173.248 32.8682 173.15 31.5784 173.884 30.8445C174.618 30.1074 175.909 30.2073 176.768 31.0656Z" fill="#D7598B"/>
<path d="M180.252 29.2981C180.646 29.7326 180.662 30.3591 180.289 30.6985C179.917 31.0363 179.294 30.9564 178.902 30.5219C178.508 30.0843 178.492 29.4578 178.865 29.1215C179.235 28.7822 179.857 28.8636 180.252 29.2981V29.2981Z" fill="#ED6C30"/>
<path d="M182.459 26.1827C182.066 25.747 181.444 25.6671 181.07 26.0042C180.696 26.3413 180.711 26.9678 181.103 27.4036C181.496 27.8393 182.117 27.9192 182.492 27.5821C182.866 27.245 182.851 26.6184 182.459 26.1827Z" fill="#ED6C30"/>
<path d="M172.34 37.2107C172.774 37.6053 173.401 37.6207 173.74 37.2475C174.078 36.876 173.998 36.2525 173.563 35.861C173.127 35.4649 172.501 35.4495 172.165 35.8226C171.824 36.1942 171.904 36.8176 172.34 37.2107V37.2107Z" fill="#ED6C30"/>
<path d="M170.621 39.4491C170.958 39.0758 170.877 38.4549 170.441 38.0624C170.005 37.6699 169.38 37.6544 169.043 38.0277C168.707 38.4011 168.788 39.0219 169.223 39.4144C169.659 39.8069 170.285 39.8225 170.621 39.4491Z" fill="#ED6C30"/>
<path d="M144.5 37.2361L147.478 46.4012L147.702 47.0922H148.429L158.066 47.0922L150.269 52.7566L149.682 53.1836L149.906 53.8746L152.884 63.0398L145.088 57.3754L144.5 56.9483L143.912 57.3754L136.116 63.0398L139.094 53.8746L139.318 53.1836L138.731 52.7566L130.934 47.0922L140.571 47.0922H141.298L141.522 46.4012L144.5 37.2361Z" fill="#FEE907" stroke="#FFBD0A" stroke-width="2"/>
<path d="M335.5 37.2361L338.478 46.4012L338.702 47.0922H339.429L349.066 47.0922L341.269 52.7566L340.682 53.1836L340.906 53.8746L343.884 63.0398L336.088 57.3754L335.5 56.9483L334.912 57.3754L327.116 63.0398L330.094 53.8746L330.318 53.1836L329.731 52.7566L321.934 47.0922L331.571 47.0922H332.298L332.522 46.4012L335.5 37.2361Z" fill="#FEE907" stroke="#FFBD0A" stroke-width="2"/>
<path d="M119 49.2361L120.294 53.2188L120.519 53.9098H121.245H125.433L122.045 56.3713L121.457 56.7984L121.682 57.4894L122.976 61.4721L119.588 59.0106L119 58.5836L118.412 59.0106L115.024 61.4721L116.318 57.4894L116.543 56.7984L115.955 56.3713L112.567 53.9098H116.755H117.481L117.706 53.2188L119 49.2361Z" fill="#FEE907" stroke="#FFBD0A" stroke-width="2"/>
<path d="M360 49.2361L361.294 53.2188L361.519 53.9098H362.245H366.433L363.045 56.3713L362.457 56.7984L362.682 57.4894L363.976 61.4721L360.588 59.0106L360 58.5836L359.412 59.0106L356.024 61.4721L357.318 57.4894L357.543 56.7984L356.955 56.3713L353.567 53.9098H357.755H358.481L358.706 53.2188L360 49.2361Z" fill="#FEE907" stroke="#FFBD0A" stroke-width="2"/>
<defs>
<filter id="filter0_dddd" x="172.578" y="25.875" width="138.723" height="37.125" filterUnits="userSpaceOnUse" color-interpolation-filters="sRGB">
<feFlood flood-opacity="0" result="BackgroundImageFix"/>
<feColorMatrix in="SourceAlpha" type="matrix" values="0 0 0 0 0 0 0 0 0 0 0 0 0 0 0 0 0 0 127 0"/>
<feOffset dx="-1"/>
<feColorMatrix type="matrix" values="0 0 0 0 0.780392 0 0 0 0 0.435294 0 0 0 0 0.0352941 0 0 0 1 0"/>
<feBlend mode="normal" in2="BackgroundImageFix" result="effect1_dropShadow"/>
<feColorMatrix in="SourceAlpha" type="matrix" values="0 0 0 0 0 0 0 0 0 0 0 0 0 0 0 0 0 0 127 0"/>
<feOffset dx="1"/>
<feColorMatrix type="matrix" values="0 0 0 0 0.779167 0 0 0 0 0.43668 0 0 0 0 0.0346297 0 0 0 1 0"/>
<feBlend mode="normal" in2="effect1_dropShadow" result="effect2_dropShadow"/>
<feColorMatrix in="SourceAlpha" type="matrix" values="0 0 0 0 0 0 0 0 0 0 0 0 0 0 0 0 0 0 127 0"/>
<feOffset dx="1" dy="-1"/>
<feColorMatrix type="matrix" values="0 0 0 0 0.779167 0 0 0 0 0.43668 0 0 0 0 0.0346297 0 0 0 1 0"/>
<feBlend mode="normal" in2="effect2_dropShadow" result="effect3_dropShadow"/>
<feColorMatrix in="SourceAlpha" type="matrix" values="0 0 0 0 0 0 0 0 0 0 0 0 0 0 0 0 0 0 127 0"/>
<feOffset dx="-1" dy="-1"/>
<feColorMatrix type="matrix" values="0 0 0 0 0.779167 0 0 0 0 0.43668 0 0 0 0 0.0346297 0 0 0 1 0"/>
<feBlend mode="normal" in2="effect3_dropShadow" result="effect4_dropShadow"/>
<feBlend mode="normal" in="SourceGraphic" in2="effect4_dropShadow" result="shape"/>
</filter>
<linearGradient id="paint0_linear" x1="242" y1="18" x2="242" y2="74" gradientUnits="userSpaceOnUse">
<stop stop-color="#D26500"/>
<stop offset="0.392361" stop-color="#EE9105"/>
<stop offset="0.590278" stop-color="#F5C62E"/>
<stop offset="0.725695" stop-color="#EE9105"/>
<stop offset="1" stop-color="#D26500"/>
</linearGradient>
</defs>
</svg>
